<svg width="593" height="58" viewBox="0 0 593 58" fill="none" xmlns="http://www.w3.org/2000/svg">
<path d="M46.5039 30.668C46.5039 31.6055 46.1523 32.4062 45.4492 33.0703C44.7852 33.7344 43.9844 34.0664 43.0469 34.0664H10H6.95312C6.01562 34.0664 5.19531 33.7344 4.49219 33.0703C3.82812 32.3672 3.49609 31.5664 3.49609 30.668V8.22656C3.49609 7.28906 3.82812 6.48828 4.49219 5.82422C5.19531 5.16016 6.01562 4.82812 6.95312 4.82812H43.0469C43.9844 4.82812 44.7852 5.16016 45.4492 5.82422C46.1523 6.48828 46.5039 7.28906 46.5039 8.22656V30.668ZM40 27.9727V10.8633C40 10.5117 39.8242 10.3359 39.4727 10.3359H10.4688C10.1563 10.3359 10 10.5117 10 10.8633V27.9727C10 28.3242 10.1563 28.5 10.4688 28.5H39.4727C39.8242 28.5 40 28.3242 40 27.9727ZM5.54688 54.6328C4.80469 55.1016 4.00391 55.2578 3.14453 55.1016C2.28516 54.9844 1.5625 54.5742 0.976562 53.8711C0.46875 53.2461 0.273438 52.5234 0.390625 51.7031C0.546875 50.8828 0.976562 50.2578 1.67969 49.8281C6.91406 46.3516 11.3672 42.6016 15.0391 38.5781C15.5859 37.9531 16.2891 37.6211 17.1484 37.582C18.0469 37.5039 18.8281 37.7383 19.4922 38.2852C20.1562 38.832 20.5273 39.5156 20.6055 40.3359C20.6836 41.1172 20.4492 41.8398 19.9023 42.5039C15.6836 47.0742 10.8984 51.1172 5.54688 54.6328ZM35.3125 38.2266C40.1562 41.7812 44.6484 45.6875 48.7891 49.9453C49.4141 50.5703 49.707 51.3125 49.668 52.1719C49.668 53.0703 49.3359 53.832 48.6719 54.457C48.0859 55.043 47.3438 55.3359 46.4453 55.3359C45.5859 55.3359 44.8633 55.0039 44.2773 54.3398C40.332 50.2383 35.8594 46.332 30.8594 42.6211C30.2344 42.1523 29.9023 41.5078 29.8633 40.6875C29.8242 39.8672 30.0781 39.1836 30.625 38.6367C31.25 38.0117 32.0117 37.6602 32.9102 37.582C33.8086 37.5039 34.6094 37.7188 35.3125 38.2266ZM68.8797 34.125C68.2156 34.5938 67.493 34.7305 66.7117 34.5352C65.9305 34.3008 65.3641 33.8125 65.0125 33.0703C64.6219 32.2891 64.5437 31.4688 64.7781 30.6094C65.0125 29.7109 65.5008 28.9883 66.243 28.4414C72.5711 23.793 77.3367 18.4219 80.5398 12.3281C80.618 12.25 80.618 12.1523 80.5398 12.0352C80.5008 11.918 80.4227 11.8594 80.3055 11.8594H68.118C67.4148 11.8594 66.7898 11.6055 66.243 11.0977C65.7352 10.5898 65.4812 9.98438 65.4812 9.28125C65.4812 8.53906 65.7352 7.91406 66.243 7.40625C66.7898 6.85937 67.4148 6.58594 68.118 6.58594H82.6492C82.9617 6.58594 83.1766 6.42969 83.2937 6.11719L84.0555 4.125C84.368 3.1875 84.9148 2.46484 85.6961 1.95703C86.5164 1.41016 87.3953 1.15625 88.3328 1.19531C89.2312 1.27344 89.9148 1.66406 90.3836 2.36719C90.8914 3.07031 90.9891 3.83203 90.6766 4.65234C90.6375 4.80859 90.5594 5.0625 90.4422 5.41406C90.325 5.72656 90.2469 5.96094 90.2078 6.11719C90.1297 6.42969 90.2469 6.58594 90.5594 6.58594H116.282C116.985 6.58594 117.591 6.85937 118.098 7.40625C118.645 7.91406 118.919 8.53906 118.919 9.28125C118.919 9.98438 118.645 10.5898 118.098 11.0977C117.591 11.6055 116.985 11.8594 116.282 11.8594H88.3328C87.9812 11.8594 87.7469 12.0352 87.6297 12.3867C86.9656 13.7539 86.0867 15.3164 84.993 17.0742C84.9148 17.1523 84.8953 17.2695 84.9344 17.4258C85.0125 17.543 85.1102 17.6016 85.2273 17.6016H111.477C112.415 17.6016 113.216 17.9336 113.88 18.5977C114.544 19.2227 114.876 20.0039 114.876 20.9414V47.4258C114.876 51.0977 114.427 53.3828 113.528 54.2812C112.63 55.2188 110.325 55.6875 106.614 55.6875C106.262 55.6875 105.813 55.668 105.266 55.6289C104.72 55.6289 103.977 55.6094 103.04 55.5703C102.102 55.5312 101.204 55.4922 100.345 55.4531C99.6023 55.4141 98.9773 55.1406 98.4695 54.6328C97.9617 54.125 97.6883 53.5 97.6492 52.7578C97.6102 52.0547 97.8445 51.4492 98.3523 50.9414C98.8992 50.4336 99.5242 50.1992 100.227 50.2383C102.766 50.3555 104.544 50.4141 105.559 50.4141C106.927 50.4141 107.708 50.3555 107.903 50.2383C108.137 50.082 108.255 49.5742 108.255 48.7148V44.6133C108.255 44.2617 108.079 44.0859 107.727 44.0859H82.3562C82.0437 44.0859 81.8875 44.2617 81.8875 44.6133V52.5234C81.8875 53.4219 81.5555 54.1836 80.8914 54.8086C80.2273 55.4727 79.4461 55.8047 78.5477 55.8047C77.6492 55.8047 76.868 55.4727 76.2039 54.8086C75.5789 54.1836 75.2664 53.4219 75.2664 52.5234V29.3789C75.2664 29.3008 75.2078 29.2422 75.0906 29.2031C74.9734 29.125 74.8953 29.125 74.8562 29.2031C72.7078 31.1562 70.7156 32.7969 68.8797 34.125ZM81.8875 23.168V27.9727C81.8875 28.3242 82.0437 28.5 82.3562 28.5H107.727C108.079 28.5 108.255 28.3242 108.255 27.9727V23.168C108.255 22.8555 108.079 22.6992 107.727 22.6992H82.3562C82.0437 22.6992 81.8875 22.8555 81.8875 23.168ZM81.8875 33.832V38.7539C81.8875 39.1055 82.0437 39.2812 82.3562 39.2812H107.727C108.079 39.2812 108.255 39.1055 108.255 38.7539V33.832C108.255 33.4805 108.079 33.3047 107.727 33.3047H82.3562C82.0437 33.3047 81.8875 33.4805 81.8875 33.832ZM160.162 55.1602C159.537 55.7852 158.775 56.0977 157.877 56.0977C156.978 56.0977 156.197 55.7852 155.533 55.1602C154.908 54.5352 154.595 53.7734 154.595 52.875V28.9688C154.595 28.6953 154.459 28.5586 154.185 28.5586H135.552C134.732 28.5586 134.009 28.2656 133.384 27.6797C132.798 27.0547 132.505 26.332 132.505 25.5117C132.505 24.6523 132.798 23.9297 133.384 23.3438C134.009 22.7578 134.732 22.4648 135.552 22.4648H154.185C154.459 22.4648 154.595 22.3086 154.595 21.9961V4.53516C154.595 3.63672 154.908 2.89453 155.533 2.30859C156.197 1.68359 156.978 1.37109 157.877 1.37109C158.775 1.37109 159.537 1.68359 160.162 2.30859C160.787 2.89453 161.099 3.63672 161.099 4.53516V8.75391C161.099 9.02734 161.255 9.16406 161.568 9.16406H176.568C177.349 9.16406 178.033 9.45703 178.619 10.043C179.205 10.6289 179.498 11.332 179.498 12.1523C179.498 12.9727 179.205 13.6758 178.619 14.2617C178.033 14.8086 177.349 15.082 176.568 15.082H161.568C161.255 15.082 161.099 15.2383 161.099 15.5508V21.9961C161.099 22.3086 161.255 22.4648 161.568 22.4648H182.837C183.658 22.4648 184.361 22.7578 184.947 23.3438C185.572 23.9297 185.884 24.6523 185.884 25.5117C185.884 26.332 185.572 27.0547 184.947 27.6797C184.361 28.2656 183.658 28.5586 182.837 28.5586H161.568C161.255 28.5586 161.099 28.6953 161.099 28.9688V32.7773C161.099 32.7773 161.119 32.7773 161.158 32.7773C161.548 32.1914 162.076 31.9961 162.74 32.1914C168.834 33.9102 174.283 35.7656 179.087 37.7578C179.908 38.0312 180.455 38.5977 180.728 39.457C180.806 39.7695 180.845 40.0625 180.845 40.3359C180.845 40.8438 180.709 41.332 180.435 41.8008C179.966 42.582 179.302 43.1094 178.443 43.3828C178.091 43.5 177.74 43.5586 177.388 43.5586C176.88 43.5586 176.392 43.4414 175.923 43.207C171.822 41.3711 167.017 39.5547 161.509 37.7578C161.431 37.7188 161.334 37.7383 161.216 37.8164C161.138 37.8555 161.099 37.9141 161.099 37.9922V52.875C161.099 53.7734 160.787 54.5352 160.162 55.1602ZM253.202 6.70312C254.217 7.17188 254.705 7.95313 254.666 9.04688C254.666 9.75 254.413 10.375 253.905 10.9219C253.397 11.4297 252.772 11.6836 252.03 11.6836H242.538C242.225 11.6836 242.069 11.8594 242.069 12.2109V15.8438C242.069 16.1953 242.225 16.3711 242.538 16.3711H250.155C251.092 16.3711 251.893 16.7031 252.557 17.3672C253.26 18.0312 253.612 18.8125 253.612 19.7109V47.8945C253.612 49.5352 253.573 50.8242 253.495 51.7617C253.416 52.6992 253.299 53.5 253.143 54.1641C252.987 54.8672 252.674 55.3359 252.205 55.5703C251.737 55.8438 251.229 56.0195 250.682 56.0977C250.135 56.2148 249.373 56.2734 248.397 56.2734C248.28 56.2734 248.026 56.2539 247.635 56.2148C247.284 56.2148 247.01 56.2148 246.815 56.2148C246.112 56.1758 245.487 55.9023 244.94 55.3945C244.393 54.8867 244.1 54.2812 244.061 53.5781C244.022 52.9531 244.237 52.3867 244.705 51.8789C245.174 51.4102 245.741 51.1758 246.405 51.1758C246.952 51.1758 247.284 51.0586 247.401 50.8242C247.518 50.5508 247.577 49.7109 247.577 48.3047V43.7344C247.577 43.3828 247.42 43.207 247.108 43.207H242.538C242.225 43.207 242.069 43.3828 242.069 43.7344V51.9375C242.069 52.7188 241.776 53.4023 241.19 53.9883C240.604 54.6133 239.92 54.9258 239.139 54.9258C238.358 54.9258 237.674 54.6328 237.088 54.0469C236.502 53.4609 236.209 52.7578 236.209 51.9375V43.7344C236.209 43.3828 236.034 43.207 235.682 43.207H231.17C230.819 43.207 230.643 43.3828 230.643 43.7344V53.4609C230.643 54.2422 230.35 54.9258 229.764 55.5117C229.217 56.0977 228.534 56.3906 227.713 56.3906C226.932 56.3906 226.248 56.0977 225.663 55.5117C225.077 54.9258 224.784 54.2422 224.784 53.4609V19.7109C224.784 18.7734 225.116 17.9922 225.78 17.3672C226.483 16.7031 227.303 16.3711 228.241 16.3711H235.682C236.034 16.3711 236.209 16.1953 236.209 15.8438V12.2109C236.209 11.8594 236.034 11.6836 235.682 11.6836H226.952C226.248 11.6836 225.623 11.4297 225.077 10.9219C224.569 10.4141 224.315 9.80859 224.315 9.10547C224.315 8.36328 224.569 7.73828 225.077 7.23047C225.623 6.72266 226.248 6.46875 226.952 6.46875H235.682C236.034 6.46875 236.209 6.29297 236.209 5.94141V4.53516C236.209 3.75391 236.502 3.08984 237.088 2.54297C237.674 1.95703 238.358 1.66406 239.139 1.66406C239.92 1.66406 240.604 1.95703 241.19 2.54297C241.776 3.08984 242.069 3.75391 242.069 4.53516V5.94141C242.069 6.29297 242.225 6.46875 242.538 6.46875H245.936C246.014 6.46875 246.073 6.42969 246.112 6.35156C246.151 6.23438 246.151 6.13672 246.112 6.05859L244.823 4.41797C244.432 3.94922 244.315 3.42188 244.471 2.83594C244.666 2.21094 245.077 1.82031 245.702 1.66406C247.42 1.15625 248.827 1.58594 249.92 2.95312C250.467 3.61719 251.307 4.67188 252.44 6.11719C252.713 6.39062 252.967 6.58594 253.202 6.70312ZM236.209 38.0508V32.4844C236.209 32.1328 236.034 31.9375 235.682 31.8984H231.17C230.819 31.8984 230.643 32.0938 230.643 32.4844V38.0508C230.643 38.3633 230.819 38.5195 231.17 38.5195H235.682C236.034 38.5195 236.209 38.3633 236.209 38.0508ZM236.209 26.7422V21.8203C236.209 21.4688 236.034 21.293 235.682 21.293H231.17C230.819 21.293 230.643 21.4688 230.643 21.8203V26.7422C230.643 27.0938 230.819 27.2891 231.17 27.3281H235.682C236.034 27.2891 236.209 27.0938 236.209 26.7422ZM247.577 38.0508V32.4844C247.577 32.1328 247.42 31.9375 247.108 31.8984H242.538C242.225 31.8984 242.069 32.0938 242.069 32.4844V38.0508C242.069 38.3633 242.225 38.5195 242.538 38.5195H247.108C247.42 38.5195 247.577 38.3633 247.577 38.0508ZM242.538 21.293C242.225 21.293 242.069 21.4688 242.069 21.8203V26.7422C242.069 27.0938 242.225 27.2891 242.538 27.3281H247.108C247.42 27.3281 247.577 27.1328 247.577 26.7422V21.8203C247.577 21.4688 247.42 21.293 247.108 21.293H242.538ZM201.815 17.6016C201.268 18.1094 200.643 18.2461 199.94 18.0117C199.237 17.7773 198.807 17.2891 198.651 16.5469C198.221 14.4375 198.807 12.6406 200.409 11.1562C202.518 9.16406 204.471 7.07422 206.268 4.88672C207.713 3.12891 209.51 2.23047 211.659 2.19141C213.768 2.19141 215.682 3.01172 217.401 4.65234C218.924 6.17578 220.897 7.91406 223.319 9.86719C223.983 10.4141 224.413 11.1172 224.608 11.9766C224.842 12.7969 224.784 13.5977 224.432 14.3789L223.963 15.4336C223.768 15.8633 223.416 16.1367 222.909 16.2539C222.44 16.332 222.03 16.2344 221.678 15.9609C221.6 15.9609 221.541 15.9805 221.502 16.0195V16.2539C221.502 17.1914 221.17 17.9922 220.506 18.6562C219.842 19.3203 219.061 19.6523 218.163 19.6523H214.647C214.334 19.6523 214.178 19.8281 214.178 20.1797V24.5156C214.178 24.8672 214.334 25.0625 214.647 25.1016H220.682C221.346 25.1016 221.932 25.3359 222.44 25.8047C222.948 26.2734 223.202 26.8594 223.202 27.5625C223.202 28.2266 222.948 28.8125 222.44 29.3203C221.932 29.7891 221.346 30.0234 220.682 30.0234H214.647C214.334 30.0234 214.178 30.1992 214.178 30.5508V35.0625C214.178 35.4141 214.334 35.5898 214.647 35.5898H218.866C219.803 35.5898 220.604 35.9219 221.268 36.5859C221.932 37.25 222.264 38.0312 222.264 38.9297V40.3359V53.168C222.264 53.9492 221.971 54.6328 221.385 55.2188C220.838 55.8047 220.155 56.0977 219.334 56.0977H218.866C218.202 56.0977 217.616 55.8438 217.108 55.3359C216.639 54.8672 216.405 54.3008 216.405 53.6367C216.405 53.4023 216.288 53.2852 216.053 53.2852H206.268C206.034 53.2852 205.916 53.4023 205.916 53.6367C205.916 54.3008 205.663 54.8672 205.155 55.3359C204.686 55.8438 204.12 56.0977 203.455 56.0977H202.928C202.069 56.0977 201.346 55.8047 200.76 55.2188C200.174 54.6328 199.881 53.9297 199.881 53.1094V38.9297C199.881 37.9922 200.213 37.2109 200.877 36.5859C201.58 35.9219 202.401 35.5898 203.338 35.5898H207.616C207.928 35.5898 208.104 35.4141 208.143 35.0625V30.5508C208.143 30.1992 207.967 30.0234 207.616 30.0234H201.346C200.682 30.0234 200.096 29.7891 199.588 29.3203C199.12 28.8125 198.885 28.2266 198.885 27.5625C198.885 26.8594 199.12 26.2734 199.588 25.8047C200.057 25.3359 200.643 25.1016 201.346 25.1016H207.616C207.928 25.1016 208.104 24.9062 208.143 24.5156V20.1797C208.143 19.8672 207.967 19.6914 207.616 19.6523H204.217C203.67 19.6523 203.182 19.457 202.752 19.0664C202.323 18.6367 202.108 18.1484 202.108 17.6016C202.108 17.4844 202.03 17.4648 201.873 17.543L201.815 17.6016ZM215.877 40.3359H206.444C206.092 40.3359 205.916 40.5117 205.916 40.8633V47.9531C205.916 48.3047 206.092 48.4805 206.444 48.4805H215.877C216.229 48.4805 216.405 48.3047 216.405 47.9531V40.8633C216.405 40.5117 216.229 40.3359 215.877 40.3359ZM204.979 14.4375C204.901 14.4766 204.881 14.5742 204.92 14.7305C204.959 14.8477 205.018 14.9062 205.096 14.9062H219.862C219.94 14.9062 219.998 14.8672 220.038 14.7891C220.077 14.6719 220.057 14.5742 219.979 14.4961C217.205 12.1523 214.569 9.53516 212.069 6.64453C211.834 6.41016 211.639 6.42969 211.483 6.70312C209.686 9.20312 207.518 11.7812 204.979 14.4375ZM272.179 57.6211C271.437 57.6211 270.831 57.3086 270.362 56.6836C269.894 56.0977 269.757 55.4336 269.952 54.6914L272.472 45.3164C272.745 44.3398 273.292 43.5391 274.112 42.9141C274.933 42.2891 275.831 41.9766 276.808 41.9766H278.39C279.171 41.9766 279.796 42.3086 280.265 42.9727C280.734 43.6367 280.812 44.3594 280.499 45.1406L276.339 54.8672C275.519 56.7031 274.132 57.6211 272.179 57.6211ZM306.449 17.8945C305.707 17.8945 305.082 17.6406 304.574 17.1328C304.066 16.5859 303.812 15.9414 303.812 15.1992C303.812 14.418 304.066 13.7734 304.574 13.2656C305.082 12.7578 305.707 12.5039 306.449 12.5039H309.906C310.258 12.5039 310.434 12.3086 310.434 11.918V5.41406C310.434 4.55469 310.707 3.85156 311.254 3.30469C311.84 2.71875 312.543 2.42578 313.363 2.42578C314.223 2.42578 314.945 2.71875 315.531 3.30469C316.117 3.85156 316.41 4.55469 316.41 5.41406V11.918C316.41 12.2695 316.566 12.4648 316.879 12.5039H320.629C321.371 12.5039 321.996 12.7578 322.504 13.2656C323.051 13.7734 323.324 14.418 323.324 15.1992C323.324 15.9414 323.051 16.5859 322.504 17.1328C321.996 17.6406 321.371 17.8945 320.629 17.8945H316.879C316.566 17.8945 316.41 18.0508 316.41 18.3633V29.0859C316.41 29.3984 316.547 29.5156 316.82 29.4375C317.133 29.3594 317.641 29.2031 318.344 28.9688C319.086 28.7344 319.652 28.5586 320.043 28.4414C320.707 28.207 321.332 28.2852 321.918 28.6758C322.504 29.0273 322.816 29.5742 322.855 30.3164C322.895 31.1758 322.68 31.957 322.211 32.6602C321.742 33.3633 321.117 33.8516 320.336 34.125C319.789 34.3203 318.637 34.7109 316.879 35.2969C316.566 35.4141 316.41 35.6289 316.41 35.9414V47.0742C316.41 48.5195 316.391 49.6719 316.352 50.5312C316.312 51.3516 316.195 52.1328 316 52.875C315.844 53.6172 315.648 54.1445 315.414 54.457C315.18 54.8086 314.789 55.1016 314.242 55.3359C313.695 55.5703 313.109 55.707 312.484 55.7461C311.859 55.7852 311.02 55.8047 309.965 55.8047C309.691 55.8047 308.656 55.7656 306.859 55.6875C306.117 55.6094 305.473 55.2969 304.926 54.75C304.379 54.2422 304.086 53.6172 304.047 52.875C304.008 52.2109 304.242 51.625 304.75 51.1172C305.297 50.6484 305.902 50.4336 306.566 50.4727C307.191 50.5117 307.953 50.5312 308.852 50.5312C309.594 50.5312 310.043 50.3945 310.199 50.1211C310.355 49.8477 310.434 48.9492 310.434 47.4258V37.6992C310.434 37.3477 310.277 37.2109 309.965 37.2891L306.859 37.9922C306.117 38.1484 305.453 37.9922 304.867 37.5234C304.281 37.0547 303.949 36.4492 303.871 35.707C303.832 34.9258 304.047 34.2227 304.516 33.5977C304.984 32.9336 305.609 32.5039 306.391 32.3086C307.133 32.1523 308.285 31.8594 309.848 31.4297C310.238 31.3516 310.434 31.1367 310.434 30.7852V18.3633C310.434 18.0508 310.258 17.8945 309.906 17.8945H306.449ZM355.785 19.4766C356.566 19.4766 357.211 19.75 357.719 20.2969C358.266 20.8438 358.539 21.5078 358.539 22.2891C358.539 23.0703 358.266 23.7344 357.719 24.2812C357.172 24.8281 356.527 25.1016 355.785 25.1016H350.395C350.043 25.1016 349.867 25.2578 349.867 25.5703V36.1172C349.867 36.4297 349.984 36.6641 350.219 36.8203C351.742 37.875 353.656 39.3008 355.961 41.0977C356.586 41.6055 356.996 42.2695 357.191 43.0898C357.387 43.9102 357.27 44.7109 356.84 45.4922C356.488 46.1172 355.941 46.4883 355.199 46.6055C354.496 46.7227 353.852 46.5664 353.266 46.1367C352.953 45.8633 352.445 45.4922 351.742 45.0234C351.078 44.5156 350.57 44.125 350.219 43.8516C349.984 43.6953 349.867 43.7734 349.867 44.0859V52.6992C349.867 53.5977 349.555 54.3398 348.93 54.9258C348.305 55.5117 347.543 55.8047 346.645 55.8047C345.785 55.8047 345.043 55.4922 344.418 54.8672C343.832 54.2812 343.539 53.5586 343.539 52.6992V39.8086C343.539 39.457 343.422 39.1836 343.188 38.9883C341.117 37.6211 338.539 36.0977 335.453 34.418C334.789 34.0664 334.34 33.5391 334.105 32.8359C333.871 32.0938 333.949 31.3906 334.34 30.7266C334.77 30.0625 335.375 29.6133 336.156 29.3789C336.977 29.1445 337.738 29.2227 338.441 29.6133C339.457 30.1211 341 30.9805 343.07 32.1914C343.383 32.3867 343.539 32.3281 343.539 32.0156V25.5703C343.539 25.2578 343.363 25.1016 343.012 25.1016H333.168C332.816 25.1016 332.641 25.2578 332.641 25.5703C332.133 32.2891 331.176 37.7188 329.77 41.8594C328.402 46 326.41 49.75 323.793 53.1094C323.285 53.7734 322.582 54.1445 321.684 54.2227C320.785 54.3008 320.004 54.0664 319.34 53.5195C318.715 53.0117 318.363 52.3281 318.285 51.4688C318.246 50.6094 318.48 49.8477 318.988 49.1836C321.957 45.3945 324.027 40.707 325.199 35.1211C326.41 29.4961 327.055 21.1367 327.133 10.043C327.133 9.06641 327.465 8.22656 328.129 7.52344C328.793 6.78125 329.613 6.39062 330.59 6.35156C338.598 5.76562 345.59 4.71094 351.566 3.1875C352.348 2.99219 353.109 3.08984 353.852 3.48047C354.633 3.87109 355.141 4.47656 355.375 5.29688C355.609 6.07813 355.531 6.83984 355.141 7.58203C354.75 8.28516 354.184 8.71484 353.441 8.87109C348.012 10.1992 341.43 11.1953 333.695 11.8594C333.344 11.8594 333.168 12.0352 333.168 12.3867C333.09 14.8477 333.031 17.0352 332.992 18.9492C332.992 19.3008 333.148 19.4766 333.461 19.4766H355.785ZM372.829 17.3086C372.087 17.3086 371.442 17.0352 370.895 16.4883C370.388 15.9414 370.134 15.2969 370.134 14.5547C370.134 13.7734 370.388 13.1289 370.895 12.6211C371.403 12.0742 372.048 11.8008 372.829 11.8008H375.29C375.641 11.8008 375.817 11.6445 375.817 11.332V5.47266C375.817 4.61328 376.11 3.89062 376.696 3.30469C377.321 2.71875 378.044 2.42578 378.864 2.42578C379.723 2.42578 380.446 2.71875 381.032 3.30469C381.657 3.89062 381.97 4.61328 381.97 5.47266V11.332C381.97 11.6445 382.145 11.8008 382.497 11.8008H383.61C384.196 11.8008 384.723 11.9961 385.192 12.3867C385.7 12.7773 386.032 13.2656 386.188 13.8516C386.266 14.1641 386.423 14.2031 386.657 13.9688C389.86 10.6484 392.419 7.03516 394.333 3.12891C394.723 2.34766 395.309 1.72266 396.091 1.25391C396.911 0.785156 397.751 0.609375 398.61 0.726562L398.845 0.785156C399.548 0.902344 400.095 1.29297 400.485 1.95703C400.876 2.58203 400.934 3.20703 400.661 3.83203C400.583 4.06641 400.661 4.18359 400.895 4.18359H414.02C414.684 4.18359 415.27 4.4375 415.778 4.94531C416.325 5.45312 416.598 6.03906 416.598 6.70312C416.598 8.53906 416.11 10.1016 415.134 11.3906C414.977 11.5859 414.743 11.8789 414.43 12.2695C414.118 12.6602 413.884 12.9336 413.727 13.0898C413.532 13.3633 413.591 13.5 413.903 13.5H420.583C421.52 13.5 422.302 13.8516 422.927 14.5547C423.591 15.2188 423.923 16 423.923 16.8984V36.5273C423.923 36.7617 424.04 36.8789 424.274 36.8789C424.86 36.8789 425.368 37.1133 425.798 37.582C426.266 38.0117 426.501 38.5195 426.501 39.1055V39.5156C426.501 40.2188 426.247 40.8242 425.739 41.332C425.231 41.8398 424.606 42.0938 423.864 42.0938H409.684C409.372 42.0938 409.313 42.2695 409.509 42.6211C412.165 46.2539 416.891 48.8711 423.688 50.4727C424.391 50.668 424.938 51.0781 425.329 51.7031C425.759 52.3281 425.856 52.9922 425.622 53.6953C425.348 54.4766 424.841 55.0625 424.098 55.4531C423.395 55.8438 422.673 55.9414 421.93 55.7461C418.454 54.8086 415.27 53.4609 412.38 51.7031C409.489 49.9844 407.184 48.0703 405.466 45.9609C405.231 45.7266 405.016 45.7266 404.821 45.9609C403.063 48.0703 400.7 50.0039 397.731 51.7617C394.802 53.5195 391.559 54.8672 388.005 55.8047C387.263 56 386.54 55.9023 385.837 55.5117C385.134 55.1211 384.626 54.5156 384.313 53.6953C384.079 53.0312 384.157 52.3672 384.548 51.7031C384.938 51.0391 385.485 50.6289 386.188 50.4727C393.141 48.8711 397.888 46.2539 400.427 42.6211C400.505 42.543 400.505 42.4453 400.427 42.3281C400.388 42.1719 400.309 42.0938 400.192 42.0938H386.071C385.368 42.0938 384.743 41.8594 384.196 41.3906C383.688 40.8828 383.434 40.2773 383.434 39.5742C383.434 38.832 383.688 38.207 384.196 37.6992C384.743 37.1523 385.368 36.8789 386.071 36.8789H386.716C387.028 36.8789 387.204 36.7227 387.243 36.4102V21.3516C387.243 21.0391 387.106 20.7656 386.833 20.5312L385.72 19.418C385.212 18.9492 384.919 18.3047 384.841 17.4844C384.841 17.1719 384.704 17.0352 384.43 17.0742C383.962 17.1914 383.688 17.2695 383.61 17.3086H382.497C382.145 17.3086 381.97 17.4648 381.97 17.7773V29.0859C381.97 29.3594 382.106 29.457 382.38 29.3789C382.458 29.3398 382.575 29.3008 382.731 29.2617C382.888 29.1836 383.005 29.125 383.083 29.0859C383.747 28.8125 384.391 28.8516 385.016 29.2031C385.641 29.5156 385.993 30.0234 386.071 30.7266C386.188 31.5859 386.052 32.4062 385.661 33.1875C385.27 33.9297 384.684 34.4766 383.903 34.8281C383.747 34.9062 383.493 35.0039 383.141 35.1211C382.829 35.2383 382.595 35.3359 382.438 35.4141C382.126 35.5312 381.97 35.7656 381.97 36.1172V47.4258C381.97 51.332 381.618 53.7539 380.915 54.6914C380.251 55.6289 378.493 56.0977 375.641 56.0977C375.407 56.0977 374.645 56.0586 373.356 55.9805C372.614 55.9023 371.97 55.5898 371.423 55.043C370.876 54.5352 370.583 53.9102 370.544 53.168C370.505 52.5039 370.739 51.918 371.247 51.4102C371.794 50.9023 372.399 50.6875 373.063 50.7656C374.118 50.8438 374.684 50.8828 374.763 50.8828C375.27 50.8828 375.563 50.7461 375.641 50.4727C375.759 50.1992 375.817 49.2812 375.817 47.7188V38.2266C375.817 37.9141 375.661 37.7969 375.348 37.875C375.114 37.9141 374.763 37.9922 374.294 38.1094C373.864 38.2266 373.532 38.3242 373.298 38.4023C372.595 38.5586 371.93 38.4219 371.305 37.9922C370.68 37.5234 370.329 36.8984 370.251 36.1172C370.173 35.3359 370.348 34.6133 370.778 33.9492C371.247 33.2852 371.891 32.8555 372.712 32.6602C372.985 32.582 373.415 32.4648 374.001 32.3086C374.587 32.1133 375.016 31.9766 375.29 31.8984C375.641 31.7422 375.817 31.5273 375.817 31.2539V17.7773C375.817 17.4648 375.641 17.3086 375.29 17.3086H372.829ZM412.145 19.125V23.3438C412.145 25.1797 412.302 26.2734 412.614 26.625C412.927 26.9375 413.962 27.0938 415.72 27.0938H417.595C417.946 27.0938 418.122 26.918 418.122 26.5664V19.125C418.122 18.7734 417.946 18.5977 417.595 18.5977H412.614C412.302 18.5977 412.145 18.7734 412.145 19.125ZM395.095 13.0898C394.899 13.3633 394.958 13.5 395.27 13.5H405.348C405.661 13.5 405.934 13.3828 406.169 13.1484C407.536 11.625 408.532 10.4727 409.157 9.69141C409.352 9.41797 409.294 9.28125 408.981 9.28125H398.259C397.946 9.28125 397.692 9.41797 397.497 9.69141C396.638 11.0195 395.837 12.1523 395.095 13.0898ZM392.927 19.125V29.2617C392.927 29.3398 392.966 29.418 393.044 29.4961C393.122 29.5352 393.2 29.5352 393.278 29.4961C395.153 28.0117 396.442 26.5664 397.145 25.1602C397.848 23.7148 398.239 21.7031 398.317 19.125C398.317 18.7734 398.141 18.5977 397.79 18.5977H393.395C393.083 18.5977 392.927 18.7734 392.927 19.125ZM392.927 31.3125V36.3516C392.927 36.7031 393.083 36.8789 393.395 36.8789H401.188C401.54 36.8789 401.716 36.7031 401.716 36.3516V35.707C401.716 34.8086 402.009 34.0664 402.595 33.4805C403.22 32.8555 403.962 32.543 404.821 32.543C405.72 32.543 406.481 32.8555 407.106 33.4805C407.731 34.0664 408.044 34.8086 408.044 35.707V36.3516C408.044 36.7031 408.22 36.8789 408.571 36.8789H417.595C417.946 36.8789 418.122 36.7031 418.122 36.3516V32.7773C418.122 32.4648 417.946 32.3086 417.595 32.3086H412.555C409.977 32.3086 408.298 31.8594 407.516 30.9609C406.774 30.0625 406.403 28.1875 406.403 25.3359V19.125C406.403 18.7734 406.227 18.5977 405.876 18.5977H404.528C404.177 18.5977 403.981 18.7539 403.942 19.0664C403.747 22.543 403.259 25.2969 402.477 27.3281C401.735 29.3203 400.388 31.2539 398.434 33.1289C397.77 33.7539 397.009 34.0078 396.149 33.8906C395.29 33.7734 394.587 33.3438 394.04 32.6016L393.161 31.2539C393.122 31.1758 393.063 31.1562 392.985 31.1953C392.946 31.1953 392.927 31.2344 392.927 31.3125ZM445.478 55.8047C444.541 55.8047 443.759 55.4727 443.134 54.8086C442.548 54.1836 442.255 53.4414 442.255 52.582V11.918C442.255 10.9805 442.587 10.1797 443.252 9.51562C443.955 8.85156 444.755 8.51953 445.654 8.51953H458.955C459.267 8.51953 459.502 8.38281 459.658 8.10938C460.127 6.78125 460.615 5.29688 461.123 3.65625C461.396 2.71875 461.923 1.99609 462.705 1.48828C463.525 0.980469 464.404 0.785156 465.341 0.902344C466.24 0.980469 466.923 1.39063 467.392 2.13281C467.861 2.875 467.978 3.65625 467.744 4.47656C467.587 5.10156 467.177 6.3125 466.513 8.10938C466.435 8.38281 466.572 8.51953 466.923 8.51953H485.029C485.966 8.51953 486.767 8.87109 487.431 9.57422C488.095 10.2383 488.427 11.0195 488.427 11.918V52.582C488.427 53.4805 488.115 54.2422 487.49 54.8672C486.865 55.4922 486.103 55.8047 485.205 55.8047H484.619C483.916 55.8047 483.31 55.5508 482.802 55.043C482.295 54.5352 482.041 53.9297 482.041 53.2266C482.041 52.9531 481.904 52.8164 481.63 52.8164H449.052C448.779 52.8164 448.642 52.9531 448.642 53.2266C448.642 53.9297 448.388 54.5352 447.88 55.043C447.412 55.5508 446.806 55.8047 446.064 55.8047H445.478ZM448.642 14.4375V21.1172C448.642 21.4297 448.837 21.5859 449.228 21.5859H481.455C481.806 21.5859 482.002 21.4297 482.041 21.1172V14.4375C482.041 14.0859 481.845 13.9102 481.455 13.9102H449.228C448.837 13.9102 448.642 14.0859 448.642 14.4375ZM448.642 27.2109V33.9492C448.642 34.3008 448.837 34.4766 449.228 34.4766H481.455C481.806 34.4766 482.002 34.3008 482.041 33.9492V27.2109C482.041 26.8594 481.845 26.6836 481.455 26.6836H449.228C448.837 26.6836 448.642 26.8594 448.642 27.2109ZM448.642 40.1602V47.0156C448.642 47.3672 448.837 47.5625 449.228 47.6016H481.455C481.806 47.6016 482.002 47.4062 482.041 47.0156V40.1602C482.041 39.8086 481.845 39.6133 481.455 39.5742H449.228C448.837 39.6133 448.642 39.8086 448.642 40.1602ZM538.987 54.2227C538.401 54.8086 537.678 55.1016 536.819 55.1016C535.998 55.1016 535.315 54.8086 534.768 54.2227C534.221 53.6367 533.948 52.9141 533.948 52.0547V9.10547C533.948 8.16797 534.26 7.36719 534.885 6.70312C535.549 6.03906 536.35 5.70703 537.288 5.70703H555.1C556.038 5.70703 556.838 6.05859 557.502 6.76172C558.166 7.42578 558.498 8.20703 558.498 9.10547V51.9375C558.498 52.7969 558.186 53.5391 557.561 54.1641C556.975 54.7891 556.252 55.1016 555.393 55.1016C554.495 55.1016 553.752 54.7891 553.166 54.1641C552.62 53.5391 552.346 52.7773 552.346 51.8789C552.346 51.6055 552.19 51.4688 551.877 51.4688H540.334C540.022 51.4688 539.866 51.6055 539.866 51.8789V52.0547C539.866 52.9141 539.573 53.6367 538.987 54.2227ZM539.866 11.7422V45.5508C539.866 45.9023 540.041 46.0781 540.393 46.0781H551.877C552.19 46.0781 552.346 45.9023 552.346 45.5508V11.7422C552.346 11.4297 552.19 11.2734 551.877 11.2734H540.393C540.041 11.2734 539.866 11.4297 539.866 11.7422ZM507.463 17.4258C506.721 17.4258 506.077 17.1719 505.53 16.6641C505.022 16.1172 504.768 15.4727 504.768 14.7305C504.768 13.9492 505.022 13.3047 505.53 12.7969C506.077 12.25 506.721 11.9766 507.463 11.9766H510.569C510.881 11.9766 511.077 11.8203 511.155 11.5078C511.389 9.90625 511.663 7.79687 511.975 5.17969C512.053 4.28125 512.424 3.55859 513.088 3.01172C513.752 2.46484 514.514 2.23047 515.373 2.30859C516.233 2.34766 516.916 2.67969 517.424 3.30469C517.971 3.89062 518.205 4.61328 518.127 5.47266C517.698 9.37891 517.463 11.3906 517.424 11.5078C517.346 11.8203 517.483 11.9766 517.834 11.9766H527.795C528.733 11.9766 529.514 12.3281 530.139 13.0312C530.803 13.6953 531.116 14.4961 531.077 15.4336C530.686 24.5742 528.655 32.582 524.983 39.457C524.866 39.7305 524.924 40.0039 525.159 40.2773C526.916 41.957 528.948 44.0664 531.252 46.6055C531.799 47.2305 532.053 47.9727 532.014 48.832C532.014 49.6914 531.702 50.4141 531.077 51C530.53 51.5469 529.846 51.8008 529.026 51.7617C528.245 51.7617 527.58 51.4688 527.034 50.8828C525.588 49.2422 523.87 47.4258 521.877 45.4336C521.721 45.2383 521.506 45.2578 521.233 45.4922C518.303 49.3984 514.729 52.7969 510.51 55.6875C509.807 56.1562 509.026 56.3125 508.166 56.1562C507.346 56 506.663 55.5898 506.116 54.9258C505.647 54.2617 505.471 53.5195 505.588 52.6992C505.745 51.918 506.174 51.293 506.877 50.8242C510.666 48.1289 513.889 44.9453 516.545 41.2734C516.78 40.9609 516.76 40.707 516.487 40.5117C515.784 39.9258 514.202 38.7539 511.741 36.9961C511.506 36.8398 511.33 36.8789 511.213 37.1133C510.979 37.7383 510.53 38.1289 509.866 38.2852C509.241 38.4414 508.655 38.3047 508.108 37.875L507.815 37.582C506.252 36.1367 505.803 34.3984 506.467 32.3672C507.913 27.9922 509.123 23.168 510.1 17.8945C510.178 17.582 510.041 17.4258 509.69 17.4258H507.463ZM513.44 30.4922C513.362 30.8438 513.44 31.0977 513.674 31.2539C515.588 32.5039 517.541 33.8906 519.534 35.4141C519.768 35.6484 519.963 35.5898 520.12 35.2383C522.698 30.043 524.28 24.2617 524.866 17.8945C524.866 17.582 524.709 17.4258 524.397 17.4258H517.014C516.663 17.4258 516.448 17.6016 516.37 17.9531C515.393 23.0312 514.416 27.2109 513.44 30.4922ZM585.855 43.2656C584.917 42.3281 583.784 41.8594 582.456 41.8594C581.128 41.8594 579.995 42.3281 579.058 43.2656C578.12 44.2031 577.652 45.3359 577.652 46.6641C577.652 47.9922 578.12 49.125 579.058 50.0625C579.995 51 581.128 51.4688 582.456 51.4688C583.784 51.4688 584.917 51 585.855 50.0625C586.792 49.125 587.261 47.9922 587.261 46.6641C587.261 45.3359 586.792 44.2031 585.855 43.2656ZM589.253 53.4609C587.378 55.3359 585.112 56.2734 582.456 56.2734C579.839 56.2734 577.573 55.3359 575.659 53.4609C573.784 51.5859 572.847 49.3398 572.847 46.7227C572.847 44.0664 573.784 41.8008 575.659 39.9258C577.573 38.0117 579.839 37.0547 582.456 37.0547C585.112 37.0547 587.378 38.0117 589.253 39.9258C591.128 41.8008 592.066 44.0664 592.066 46.7227C592.066 49.3398 591.128 51.5859 589.253 53.4609Z" fill="white"/>
</svg>
