<svg width="1899" height="326" viewBox="0 0 1899 326" fill="none" xmlns="http://www.w3.org/2000/svg">
<rect x="137.5" y="313.5" width="301" height="1749" rx="27.5" transform="rotate(-90 137.5 313.5)" fill="white" stroke="#1E1C1C" stroke-width="25"/>
<path d="M137.5 238.277L23.4237 166.294L137.5 94.3107V238.277Z" fill="white" stroke="#1E1C1C" stroke-width="25"/>
<path d="M44 166.294L194 71.6426V260.945L44 166.294Z" fill="white"/>
<path d="M227.5 109.311C227.93 108.308 228.646 107.556 229.648 107.055C230.293 106.768 230.938 106.625 231.582 106.625C231.94 106.625 232.334 106.697 232.764 106.84C233.838 107.126 234.59 107.735 235.02 108.666C235.521 109.597 235.557 110.564 235.127 111.566C232.406 118.012 229.255 124.35 225.674 130.58C225.459 131.081 225.352 131.583 225.352 132.084V200.941C225.352 202.016 224.958 202.947 224.17 203.734C223.382 204.522 222.451 204.916 221.377 204.916C220.374 204.916 219.479 204.522 218.691 203.734C217.975 202.947 217.617 202.016 217.617 200.941V144.33C217.617 144.187 217.546 144.115 217.402 144.115C217.331 144.044 217.259 144.044 217.188 144.115C214.967 147.195 212.425 150.346 209.561 153.568C208.844 154.428 207.949 154.786 206.875 154.643C205.801 154.428 204.977 153.855 204.404 152.924C203.831 151.921 203.545 150.919 203.545 149.916C203.545 149.701 203.545 149.486 203.545 149.271C203.688 147.911 204.189 146.729 205.049 145.727C214.144 135.772 221.628 123.633 227.5 109.311ZM247.91 155.717C248.197 154.643 248.805 153.783 249.736 153.139C250.739 152.494 251.777 152.279 252.852 152.494C253.926 152.709 254.749 153.282 255.322 154.213C255.967 155.144 256.146 156.146 255.859 157.221C252.565 168.965 248.376 178.956 243.291 187.191C242.646 188.122 241.751 188.695 240.605 188.91C239.46 189.053 238.421 188.803 237.49 188.158C236.559 187.585 235.986 186.762 235.771 185.688C235.557 184.613 235.771 183.611 236.416 182.68C241.214 175.733 245.046 166.745 247.91 155.717ZM295.068 134.555C295.14 133.982 294.889 133.695 294.316 133.695H275.41C274.837 133.695 274.551 133.982 274.551 134.555V195.248C274.551 197.54 274.264 199.33 273.691 200.619C273.118 201.908 272.152 202.875 270.791 203.52C268.786 204.522 265.42 205.059 260.693 205.131C260.622 205.131 260.586 205.131 260.586 205.131C259.368 205.131 258.258 204.773 257.256 204.057C256.253 203.269 255.537 202.266 255.107 201.049C254.749 200.046 254.857 199.115 255.43 198.256C256.003 197.468 256.79 197.074 257.793 197.074C259.154 197.074 260.192 197.074 260.908 197.074C261.624 197.074 262.412 197.074 263.271 197.074C264.131 197.074 264.632 197.074 264.775 197.074C265.42 197.074 265.885 196.931 266.172 196.645C266.458 196.43 266.602 195.964 266.602 195.248V134.555C266.602 133.982 266.315 133.695 265.742 133.695H250.811C250.238 133.695 249.844 133.946 249.629 134.447C247.194 140.033 244.58 144.975 241.787 149.271C241.214 150.202 240.355 150.704 239.209 150.775C238.063 150.847 237.061 150.561 236.201 149.916C235.342 149.271 234.805 148.376 234.59 147.23C234.59 147.016 234.59 146.801 234.59 146.586C234.59 145.655 234.84 144.831 235.342 144.115C241.429 135.092 246.263 123.598 249.844 109.633C250.13 108.559 250.775 107.735 251.777 107.162C252.422 106.732 253.138 106.518 253.926 106.518C254.212 106.518 254.535 106.553 254.893 106.625C255.967 106.911 256.79 107.52 257.363 108.451C257.936 109.311 258.079 110.277 257.793 111.352C256.432 116.15 254.928 120.84 253.281 125.424C253.21 125.639 253.21 125.854 253.281 126.068C253.424 126.212 253.604 126.283 253.818 126.283H297.217C297.288 126.283 297.396 126.247 297.539 126.176C298.327 125.961 299.115 125.961 299.902 126.176L301.514 126.605C302.301 126.749 302.91 127.178 303.34 127.895C303.698 128.396 303.877 128.897 303.877 129.398C303.877 129.542 303.841 129.721 303.77 129.936C302.624 135.951 301.442 141.645 300.225 147.016C300.01 148.018 299.473 148.77 298.613 149.271C297.826 149.773 296.966 149.952 296.035 149.809C295.104 149.594 294.352 149.092 293.779 148.305C293.206 147.517 293.027 146.658 293.242 145.727C294.03 141.072 294.639 137.348 295.068 134.555ZM284.326 156.684C284.04 156.182 283.896 155.717 283.896 155.287C283.896 154.857 284.004 154.428 284.219 153.998C284.577 153.067 285.221 152.423 286.152 152.064C286.582 151.921 287.048 151.85 287.549 151.85C288.05 151.85 288.587 151.957 289.16 152.172C290.163 152.602 290.915 153.282 291.416 154.213C296.501 164.382 300.225 174.122 302.588 183.432C302.66 183.861 302.695 184.255 302.695 184.613C302.695 185.329 302.48 186.046 302.051 186.762C301.478 187.764 300.618 188.445 299.473 188.803C299.115 188.946 298.721 189.018 298.291 189.018C297.718 189.018 297.145 188.839 296.572 188.48C295.641 187.979 295.033 187.191 294.746 186.117C292.526 176.736 289.053 166.924 284.326 156.684ZM341.896 110.6C344.904 114.467 348.484 119.587 352.638 125.961C353.211 126.82 353.354 127.787 353.068 128.861C352.781 129.864 352.137 130.544 351.134 130.902C348.627 131.905 346.658 131.296 345.226 129.076C342.003 124.135 338.351 119.05 334.269 113.822C333.696 113.035 333.517 112.139 333.732 111.137C333.946 110.134 334.555 109.454 335.558 109.096C336.632 108.594 337.778 108.487 338.995 108.773C340.213 109.06 341.18 109.669 341.896 110.6ZM405.919 110.707C406.492 109.776 407.351 109.132 408.497 108.773C409.715 108.344 410.861 108.308 411.935 108.666C412.937 109.024 413.618 109.704 413.976 110.707C414.334 111.71 414.262 112.676 413.761 113.607C410.037 119.48 406.349 124.708 402.696 129.291C400.978 131.439 398.901 131.977 396.466 130.902C395.535 130.544 394.926 129.864 394.64 128.861C394.425 127.859 394.64 126.964 395.284 126.176C399.152 121.091 402.696 115.935 405.919 110.707ZM336.31 203.197C335.522 204.057 334.519 204.486 333.302 204.486C332.156 204.486 331.154 204.057 330.294 203.197C329.435 202.338 329.005 201.335 329.005 200.189V141.752C329.005 140.033 329.614 138.565 330.831 137.348C332.12 136.13 333.624 135.521 335.343 135.521H368.536C369.109 135.521 369.396 135.199 369.396 134.555V109.955C369.396 108.809 369.825 107.807 370.685 106.947C371.616 106.016 372.654 105.551 373.8 105.551C374.946 105.551 375.948 106.016 376.808 106.947C377.739 107.807 378.204 108.809 378.204 109.955V134.555C378.204 135.199 378.527 135.521 379.171 135.521H412.257C413.976 135.521 415.444 136.166 416.661 137.455C417.95 138.673 418.595 140.105 418.595 141.752V189.77C418.595 196.072 417.879 199.975 416.446 201.479C415.014 202.982 411.362 203.734 405.489 203.734C403.341 203.734 399.402 203.627 393.673 203.412C392.67 203.34 391.811 202.911 391.095 202.123C390.45 201.407 390.092 200.512 390.021 199.438C389.949 198.435 390.271 197.576 390.988 196.859C391.704 196.215 392.527 195.928 393.458 196C398.829 196.215 402.374 196.322 404.093 196.322C407.101 196.322 408.855 196.072 409.357 195.57C409.858 194.997 410.109 193.135 410.109 189.984V143.793C410.109 143.22 409.822 142.898 409.249 142.826H338.458C337.814 142.826 337.491 143.148 337.491 143.793V200.189C337.491 201.335 337.098 202.338 336.31 203.197ZM358.761 189.447C358.761 190.521 358.367 191.452 357.579 192.24C356.792 193.028 355.825 193.422 354.679 193.422C353.605 193.422 352.674 193.028 351.886 192.24C351.098 191.452 350.704 190.521 350.704 189.447V159.369C350.704 157.65 351.313 156.182 352.53 154.965C353.82 153.747 355.288 153.139 356.935 153.139H390.665C392.384 153.139 393.852 153.747 395.07 154.965C396.287 156.182 396.896 157.65 396.896 159.369V180.961C396.896 182.68 396.251 184.148 394.962 185.365C393.745 186.583 392.312 187.191 390.665 187.191H359.62C359.047 187.191 358.761 187.442 358.761 187.943V189.447ZM358.761 160.766V179.457C358.761 180.03 359.083 180.352 359.728 180.424H387.872C388.517 180.424 388.839 180.102 388.839 179.457V160.766C388.839 160.193 388.517 159.906 387.872 159.906H359.728C359.083 159.906 358.761 160.193 358.761 160.766ZM449.524 196.752C448.593 197.325 447.554 197.468 446.409 197.182C445.334 196.967 444.511 196.394 443.938 195.463C443.365 194.532 443.222 193.493 443.508 192.348C443.866 191.13 444.547 190.235 445.549 189.662C462.235 178.848 475.054 167.318 484.006 155.072C484.293 154.643 484.185 154.428 483.684 154.428H449.416C448.485 154.428 447.626 154.07 446.838 153.354C446.051 152.566 445.657 151.671 445.657 150.668C445.657 149.737 446.015 148.913 446.731 148.197C447.447 147.41 448.342 147.016 449.416 147.016H487.336C487.981 147.016 488.303 146.693 488.303 146.049V128.217C488.303 127.572 487.981 127.25 487.336 127.25H453.928C452.926 127.25 452.066 126.928 451.35 126.283C450.634 125.567 450.276 124.708 450.276 123.705C450.276 122.631 450.634 121.736 451.35 121.02C452.066 120.232 452.926 119.838 453.928 119.838H487.336C487.981 119.838 488.303 119.551 488.303 118.979V110.385C488.303 109.239 488.733 108.236 489.592 107.377C490.452 106.518 491.454 106.088 492.6 106.088C493.746 106.088 494.748 106.518 495.608 107.377C496.467 108.236 496.897 109.239 496.897 110.385V118.979C496.897 119.551 497.219 119.838 497.864 119.838H531.272C532.203 119.838 533.026 120.232 533.743 121.02C534.53 121.736 534.924 122.631 534.924 123.705C534.924 124.708 534.566 125.567 533.85 126.283C533.205 126.928 532.346 127.25 531.272 127.25H497.864C497.219 127.25 496.897 127.572 496.897 128.217V146.049C496.897 146.693 497.219 147.016 497.864 147.016H535.784C536.786 147.016 537.646 147.41 538.362 148.197C539.149 148.913 539.543 149.737 539.543 150.668C539.543 151.671 539.149 152.566 538.362 153.354C537.646 154.07 536.786 154.428 535.784 154.428H501.516C501.015 154.428 500.907 154.643 501.194 155.072C510.146 167.318 522.965 178.848 539.651 189.662C540.582 190.235 541.226 191.13 541.584 192.348C541.942 193.493 541.799 194.532 541.155 195.463C540.582 196.394 539.758 196.967 538.684 197.182C537.681 197.468 536.679 197.325 535.676 196.752C519.276 185.938 506.529 174.337 497.434 161.947C497.291 161.804 497.148 161.768 497.004 161.84C496.933 161.911 496.897 162.019 496.897 162.162V201.264C496.897 202.41 496.467 203.412 495.608 204.271C494.748 205.131 493.746 205.561 492.6 205.561C491.454 205.561 490.452 205.131 489.592 204.271C488.733 203.484 488.303 202.481 488.303 201.264V161.947C488.303 161.804 488.232 161.697 488.088 161.625C488.017 161.482 487.909 161.518 487.766 161.732C478.599 174.193 465.852 185.867 449.524 196.752ZM590.882 195.678C591.384 195.678 591.563 195.391 591.42 194.818C589.772 190.808 587.982 186.833 586.048 182.895C585.834 182.322 585.404 182.035 584.759 182.035H583.685C581.966 182.035 580.498 181.426 579.281 180.209C578.135 178.992 577.562 177.559 577.562 175.912V161.947C577.562 160.229 578.135 158.76 579.281 157.543C580.498 156.254 581.966 155.609 583.685 155.609H639.115C640.834 155.609 642.266 156.254 643.412 157.543C644.629 158.76 645.238 160.229 645.238 161.947V175.912C645.238 177.631 644.629 179.099 643.412 180.316C642.266 181.462 640.834 182.035 639.115 182.035H638.041C637.396 182.035 636.966 182.322 636.752 182.895C634.746 186.905 632.347 190.88 629.554 194.818C629.411 194.962 629.375 195.141 629.447 195.355C629.59 195.57 629.769 195.678 629.984 195.678H656.195C657.126 195.678 657.949 196 658.666 196.645C659.453 197.361 659.847 198.22 659.847 199.223C659.847 200.297 659.453 201.192 658.666 201.908C657.949 202.624 657.126 202.982 656.195 202.982H566.605C565.674 202.982 564.815 202.624 564.027 201.908C563.311 201.192 562.953 200.297 562.953 199.223C562.953 198.22 563.311 197.361 564.027 196.645C564.815 196 565.674 195.678 566.605 195.678H590.882ZM627.621 183.002C627.764 182.787 627.764 182.572 627.621 182.357C627.549 182.143 627.37 182.035 627.084 182.035H595.824C595.179 182.035 594.964 182.322 595.179 182.895C597.256 187.048 599.011 191.023 600.443 194.818C600.658 195.391 601.052 195.678 601.625 195.678H618.49C619.134 195.678 619.636 195.427 619.994 194.926C622.858 191.13 625.401 187.156 627.621 183.002ZM586.908 175.697H635.892C636.537 175.697 636.895 175.339 636.966 174.623V163.236C636.966 162.592 636.608 162.27 635.892 162.27H586.908C586.263 162.27 585.905 162.592 585.834 163.236V174.623C585.905 175.339 586.263 175.697 586.908 175.697ZM567.142 157.328C566.211 157.829 565.244 157.901 564.242 157.543C563.239 157.113 562.523 156.397 562.093 155.395C561.664 154.464 561.628 153.461 561.986 152.387C562.344 151.312 563.024 150.525 564.027 150.023C571.188 146.299 577.311 142.576 582.396 138.852C582.897 138.565 582.933 138.171 582.504 137.67C576.918 132.657 572.728 129.005 569.935 126.713C569.147 126.068 568.718 125.209 568.646 124.135C568.574 123.061 568.897 122.165 569.613 121.449C570.401 120.661 571.367 120.232 572.513 120.16C573.659 120.089 574.626 120.447 575.414 121.234C579.281 124.457 583.685 128.253 588.627 132.621C589.128 133.051 589.593 133.051 590.023 132.621C595.752 127.608 600.228 122.595 603.451 117.582C603.594 117.439 603.594 117.26 603.451 117.045C603.379 116.83 603.236 116.723 603.021 116.723H578.314C577.383 116.723 576.559 116.365 575.843 115.648C575.127 114.932 574.769 114.109 574.769 113.178C574.769 112.175 575.091 111.316 575.736 110.6C576.452 109.883 577.311 109.525 578.314 109.525H609.252C613.19 109.525 616.27 111.352 618.49 115.004C619.851 117.439 621.892 120.303 624.613 123.598C625.043 124.027 625.436 124.027 625.795 123.598C629.017 120.232 632.132 116.615 635.14 112.748C635.785 111.96 636.644 111.459 637.718 111.244C638.793 111.029 639.759 111.208 640.619 111.781C641.55 112.283 642.087 113.035 642.23 114.037C642.373 115.04 642.158 115.971 641.586 116.83C638.148 121.27 634.603 125.352 630.951 129.076C630.449 129.577 630.449 130.043 630.951 130.473C633.314 132.764 635.892 134.984 638.685 137.133C639.258 137.562 639.759 137.562 640.189 137.133C643.77 133.552 647.351 129.434 650.931 124.779C651.576 123.992 652.435 123.526 653.509 123.383C654.584 123.168 655.55 123.311 656.41 123.812C657.269 124.314 657.77 125.102 657.914 126.176C658.129 127.178 657.949 128.074 657.377 128.861C653.724 133.66 650.072 137.885 646.42 141.537C645.918 142.038 645.918 142.396 646.42 142.611C650.358 145.261 654.512 147.732 658.88 150.023C659.811 150.525 660.456 151.312 660.814 152.387C661.172 153.461 661.136 154.464 660.707 155.395C660.277 156.326 659.561 157.006 658.558 157.436C657.556 157.794 656.589 157.722 655.658 157.221C647.207 152.781 639.652 147.768 632.992 142.182C632.992 142.253 632.956 142.325 632.884 142.396C633.099 142.826 633.207 143.327 633.207 143.9C633.207 144.831 632.849 145.655 632.132 146.371C631.416 147.016 630.557 147.338 629.554 147.338H593.246C592.243 147.338 591.384 147.016 590.668 146.371C589.951 145.655 589.593 144.831 589.593 143.9C589.593 143.399 589.701 142.898 589.916 142.396C589.844 142.325 589.808 142.253 589.808 142.182C583.22 147.768 575.664 152.816 567.142 157.328ZM610.863 118.871C606.208 126.247 600.013 133.337 592.279 140.141C592.136 140.284 592.171 140.355 592.386 140.355C592.601 140.284 592.888 140.248 593.246 140.248H629.554C629.912 140.248 630.199 140.284 630.414 140.355C630.629 140.355 630.664 140.284 630.521 140.141C622.715 133.409 616.485 126.283 611.83 118.764C611.543 118.334 611.221 118.37 610.863 118.871ZM689.487 202.982C688.485 203.484 687.446 203.555 686.372 203.197C685.298 202.911 684.438 202.302 683.794 201.371C683.221 200.512 683.042 199.545 683.257 198.471C683.471 197.468 684.044 196.716 684.975 196.215C697.651 189.053 708.143 178.705 716.45 165.17C724.757 151.563 728.911 137.992 728.911 124.457V119.838C728.911 119.265 728.624 118.979 728.052 118.979H702.593C701.59 118.979 700.695 118.62 699.907 117.904C699.119 117.117 698.725 116.221 698.725 115.219C698.725 114.145 699.119 113.249 699.907 112.533C700.695 111.745 701.59 111.352 702.593 111.352H731.489C733.208 111.352 734.676 111.96 735.893 113.178C737.111 114.395 737.72 115.863 737.72 117.582V121.557C737.72 137.312 741.157 151.993 748.032 165.6C754.979 179.135 764.11 189.304 775.425 196.107C776.356 196.609 776.929 197.396 777.143 198.471C777.358 199.545 777.179 200.512 776.606 201.371C776.033 202.302 775.21 202.911 774.136 203.197C773.061 203.555 772.023 203.484 771.02 202.982C762.427 197.969 754.8 190.701 748.139 181.176C741.551 171.579 736.645 160.909 733.423 149.164C733.279 148.878 733.136 148.842 732.993 149.057C729.126 160.443 723.325 170.971 715.591 180.639C707.856 190.235 699.155 197.683 689.487 202.982ZM810.221 208.139C809.218 208.139 808.395 207.709 807.75 206.85C807.177 206.062 807.034 205.202 807.32 204.271L812.584 186.225C813.014 184.649 813.909 183.396 815.27 182.465C816.63 181.462 818.134 180.961 819.781 180.961C821.07 180.961 822.073 181.498 822.789 182.572C823.577 183.646 823.684 184.828 823.111 186.117L815.807 204.379C814.876 206.885 813.014 208.139 810.221 208.139ZM921.823 147.982C920.821 147.982 919.926 147.624 919.138 146.908C918.422 146.12 918.064 145.225 918.064 144.223C918.064 143.148 918.422 142.253 919.138 141.537C919.926 140.821 920.821 140.463 921.823 140.463H931.062C931.706 140.463 932.029 140.141 932.029 139.496V130.043C932.029 129.9 931.957 129.792 931.814 129.721C931.742 129.649 931.635 129.685 931.491 129.828C931.062 130.329 929.629 131.798 927.195 134.232C926.407 134.949 925.44 135.342 924.294 135.414C923.22 135.486 922.253 135.199 921.394 134.555C920.606 133.982 920.14 133.194 919.997 132.191C919.926 131.117 920.248 130.186 920.964 129.398C927.839 122.38 933.568 114.861 938.152 106.84C938.724 105.837 939.512 105.121 940.515 104.691C941.589 104.19 942.699 104.083 943.845 104.369C944.848 104.656 945.564 105.3 945.993 106.303C946.423 107.234 946.387 108.165 945.886 109.096L943.308 113.715C943.165 113.858 943.129 114.037 943.2 114.252C943.344 114.467 943.523 114.574 943.737 114.574H1009.16C1010.16 114.574 1010.98 114.932 1011.63 115.648C1012.34 116.293 1012.7 117.117 1012.7 118.119C1012.7 119.122 1012.34 119.981 1011.63 120.697C1010.91 121.413 1010.09 121.771 1009.16 121.771H1004.11C1003.54 121.771 1003.25 122.094 1003.25 122.738V139.496C1003.25 140.141 1003.54 140.463 1004.11 140.463H1013.35C1014.35 140.463 1015.21 140.821 1015.92 141.537C1016.71 142.253 1017.11 143.148 1017.11 144.223C1017.11 145.225 1016.71 146.12 1015.92 146.908C1015.21 147.624 1014.35 147.982 1013.35 147.982H1004.11C1003.54 147.982 1003.25 148.305 1003.25 148.949V166.889C1003.25 167.462 1003.54 167.748 1004.11 167.748H1011.52C1012.45 167.748 1013.24 168.106 1013.88 168.822C1014.53 169.467 1014.85 170.29 1014.85 171.293C1014.85 172.224 1014.53 173.048 1013.88 173.764C1013.24 174.408 1012.45 174.73 1011.52 174.73H923.757C922.826 174.73 922.002 174.408 921.286 173.764C920.642 173.048 920.32 172.224 920.32 171.293C920.32 170.29 920.642 169.467 921.286 168.822C922.002 168.106 922.826 167.748 923.757 167.748H931.062C931.706 167.748 932.029 167.462 932.029 166.889V148.949C932.029 148.305 931.706 147.982 931.062 147.982H921.823ZM982.302 122.738V139.496C982.302 140.141 982.588 140.463 983.161 140.463H993.796C994.441 140.463 994.763 140.141 994.763 139.496V122.738C994.763 122.094 994.441 121.771 993.796 121.771H983.161C982.588 121.771 982.302 122.094 982.302 122.738ZM982.302 148.949V166.889C982.302 167.462 982.588 167.748 983.161 167.748H993.796C994.441 167.748 994.763 167.462 994.763 166.889V148.949C994.763 148.305 994.441 147.982 993.796 147.982H983.161C982.588 147.982 982.302 148.305 982.302 148.949ZM961.032 122.738V139.496C961.032 140.141 961.355 140.463 961.999 140.463H973.279C973.851 140.463 974.138 140.141 974.138 139.496V122.738C974.138 122.094 973.851 121.771 973.279 121.771H961.999C961.355 121.771 961.032 122.094 961.032 122.738ZM961.032 148.949V166.889C961.032 167.462 961.355 167.748 961.999 167.748H973.279C973.851 167.748 974.138 167.462 974.138 166.889V148.949C974.138 148.305 973.851 147.982 973.279 147.982H961.999C961.355 147.982 961.032 148.305 961.032 148.949ZM940.515 122.738V139.496C940.515 140.141 940.801 140.463 941.374 140.463H952.009C952.654 140.463 952.976 140.141 952.976 139.496V122.738C952.976 122.094 952.654 121.771 952.009 121.771H941.374C940.801 121.771 940.515 122.094 940.515 122.738ZM940.515 148.949V166.889C940.515 167.462 940.801 167.748 941.374 167.748H952.009C952.654 167.748 952.976 167.462 952.976 166.889V148.949C952.976 148.305 952.654 147.982 952.009 147.982H941.374C940.801 147.982 940.515 148.305 940.515 148.949ZM932.673 181.605C933.174 180.674 933.998 180.03 935.144 179.672C936.29 179.242 937.364 179.278 938.366 179.779C939.369 180.281 940.014 181.068 940.3 182.143C940.586 183.145 940.479 184.148 939.978 185.15C936.254 191.524 932.458 197.182 928.591 202.123C927.875 203.054 926.944 203.627 925.798 203.842C924.652 204.128 923.578 203.949 922.575 203.305C921.644 202.732 921.107 201.908 920.964 200.834C920.821 199.76 921.071 198.757 921.716 197.826C925.87 192.455 929.522 187.048 932.673 181.605ZM954.372 180.531C955.518 180.388 956.556 180.639 957.487 181.283C958.49 181.928 959.099 182.823 959.314 183.969C960.459 189.841 961.355 195.176 961.999 199.975C962.142 201.12 961.856 202.159 961.14 203.09C960.424 204.021 959.493 204.558 958.347 204.701C957.201 204.844 956.163 204.594 955.232 203.949C954.372 203.305 953.871 202.374 953.728 201.156C953.083 196.143 952.188 190.808 951.042 185.15C950.827 184.076 951.042 183.074 951.687 182.143C952.403 181.212 953.298 180.674 954.372 180.531ZM975.964 179.887C977.038 179.529 978.112 179.636 979.187 180.209C980.261 180.71 981.013 181.462 981.443 182.465C984.164 188.839 986.312 194.389 987.888 199.115C988.246 200.118 988.139 201.085 987.566 202.016C987.064 203.018 986.312 203.663 985.31 203.949C984.236 204.236 983.197 204.092 982.195 203.52C981.192 203.018 980.512 202.23 980.154 201.156C978.22 195.785 976.071 190.342 973.708 184.828C973.279 183.897 973.279 182.93 973.708 181.928C974.209 180.854 974.961 180.173 975.964 179.887ZM1003.25 180.639C1006.4 184.936 1010.12 190.557 1014.42 197.504C1014.92 198.435 1015.03 199.402 1014.74 200.404C1014.53 201.407 1013.96 202.195 1013.02 202.768C1012.02 203.269 1010.98 203.376 1009.91 203.09C1008.91 202.875 1008.12 202.302 1007.55 201.371C1004.47 196.286 1000.71 190.736 996.267 184.721C995.694 183.861 995.479 182.895 995.622 181.82C995.837 180.746 996.41 179.923 997.341 179.35C998.272 178.777 999.31 178.633 1000.46 178.92C1001.67 179.135 1002.6 179.708 1003.25 180.639ZM1042.77 116.83C1041.98 116.186 1041.52 115.362 1041.38 114.359C1041.3 113.285 1041.59 112.354 1042.23 111.566C1042.95 110.779 1043.85 110.313 1044.92 110.17C1045.99 109.955 1046.96 110.17 1047.82 110.814C1052.91 114.825 1056.92 118.191 1059.85 120.912C1060.64 121.628 1061.07 122.559 1061.14 123.705C1061.21 124.851 1060.89 125.818 1060.17 126.605C1059.53 127.393 1058.63 127.823 1057.49 127.895C1056.41 127.966 1055.52 127.644 1054.8 126.928C1051.29 123.777 1047.28 120.411 1042.77 116.83ZM1037.72 141C1036.94 140.355 1036.47 139.532 1036.33 138.529C1036.18 137.455 1036.43 136.524 1037.08 135.736C1037.79 134.949 1038.69 134.483 1039.76 134.34C1040.84 134.125 1041.81 134.376 1042.66 135.092C1048.18 139.317 1052.83 143.148 1056.63 146.586C1057.42 147.302 1057.85 148.233 1057.92 149.379C1057.99 150.453 1057.63 151.42 1056.84 152.279C1056.13 153.067 1055.23 153.497 1054.16 153.568C1053.16 153.64 1052.26 153.318 1051.47 152.602C1046.67 148.305 1042.09 144.438 1037.72 141ZM1054.16 169.359C1054.52 168.357 1055.2 167.641 1056.2 167.211C1057.2 166.781 1058.17 166.745 1059.1 167.104C1060.1 167.462 1060.85 168.142 1061.36 169.145C1061.86 170.147 1061.93 171.186 1061.57 172.26C1057.99 182.429 1053.26 191.918 1047.39 200.727C1046.82 201.658 1045.92 202.23 1044.71 202.445C1043.56 202.66 1042.52 202.445 1041.59 201.801C1040.66 201.228 1040.09 200.368 1039.87 199.223C1039.73 198.148 1039.94 197.146 1040.52 196.215C1045.82 188.122 1050.36 179.171 1054.16 169.359ZM1132.9 148.197C1133.9 148.197 1134.76 148.555 1135.48 149.271C1136.26 149.988 1136.66 150.883 1136.66 151.957C1136.66 152.96 1136.26 153.819 1135.48 154.535C1134.76 155.251 1133.9 155.609 1132.9 155.609H1099.6C1098.95 155.609 1098.56 155.896 1098.42 156.469C1094.76 168.643 1090.57 180.316 1085.85 191.488C1085.7 191.918 1085.92 192.133 1086.49 192.133C1098.74 191.059 1110.05 189.805 1120.44 188.373C1120.94 188.23 1121.05 187.943 1120.76 187.514C1117.9 181.999 1115 176.664 1112.06 171.508C1111.56 170.577 1111.45 169.61 1111.74 168.607C1112.09 167.605 1112.78 166.889 1113.78 166.459C1114.85 166.029 1115.96 165.993 1117.11 166.352C1118.25 166.71 1119.11 167.39 1119.69 168.393C1125.49 178.204 1130.71 187.943 1135.37 197.611C1135.87 198.614 1135.91 199.652 1135.48 200.727C1135.05 201.801 1134.3 202.589 1133.22 203.09C1132.15 203.52 1131.04 203.484 1129.89 202.982C1128.82 202.481 1128.03 201.729 1127.53 200.727C1127.24 200.225 1126.88 199.473 1126.45 198.471C1126.02 197.468 1125.63 196.716 1125.27 196.215C1124.99 195.57 1124.52 195.32 1123.88 195.463C1102.82 198.471 1082.91 200.368 1064.15 201.156C1063.15 201.228 1062.25 200.906 1061.46 200.189C1060.68 199.473 1060.25 198.578 1060.17 197.504C1060.1 196.501 1060.42 195.642 1061.14 194.926C1061.93 194.21 1062.82 193.78 1063.83 193.637C1064.9 193.637 1066.05 193.601 1067.26 193.529C1068.48 193.458 1069.81 193.386 1071.24 193.314C1072.74 193.171 1073.92 193.064 1074.78 192.992C1075.43 192.992 1075.89 192.706 1076.18 192.133C1081.05 180.746 1085.42 168.894 1089.29 156.576C1089.43 155.932 1089.18 155.609 1088.53 155.609H1066.4C1065.4 155.609 1064.51 155.251 1063.72 154.535C1063 153.819 1062.64 152.96 1062.64 151.957C1062.64 150.883 1063 149.988 1063.72 149.271C1064.44 148.555 1065.33 148.197 1066.4 148.197H1093.8C1094.37 148.197 1094.66 147.839 1094.66 147.123V128.002C1094.66 127.357 1094.37 127.035 1093.8 127.035H1071.45C1070.45 127.035 1069.56 126.677 1068.77 125.961C1068.05 125.173 1067.69 124.314 1067.69 123.383C1067.69 122.452 1068.05 121.628 1068.77 120.912C1069.48 120.124 1070.38 119.73 1071.45 119.73H1093.8C1094.37 119.73 1094.66 119.408 1094.66 118.764V111.459C1094.66 110.242 1095.05 109.239 1095.84 108.451C1096.7 107.592 1097.74 107.162 1098.95 107.162C1100.17 107.162 1101.21 107.592 1102.07 108.451C1102.93 109.239 1103.36 110.242 1103.36 111.459V118.764C1103.36 119.408 1103.64 119.73 1104.22 119.73H1128.06C1129 119.73 1129.82 120.089 1130.54 120.805C1131.32 121.521 1131.72 122.38 1131.72 123.383C1131.72 124.385 1131.32 125.245 1130.54 125.961C1129.82 126.677 1129 127.035 1128.06 127.035H1104.22C1103.64 127.035 1103.36 127.357 1103.36 128.002V147.123C1103.36 147.768 1103.64 148.126 1104.22 148.197H1132.9ZM1182.85 172.13H1227.4V181.26H1182.85V172.13ZM1182.85 157.28H1227.4V166.3H1182.85V157.28ZM1174.71 151.34V187.2H1235.87V151.34H1174.71ZM1156.67 117.68V124.94H1254.24V117.68H1156.67ZM1200.89 103.6V147.93H1209.14V103.6H1200.89ZM1196.16 119.77C1187.36 132.09 1170.09 143.97 1154.25 149.36C1156.01 151.01 1158.43 153.98 1159.64 155.96C1175.81 149.58 1193.19 136.71 1203.09 122.52L1196.16 119.77ZM1213.65 119.88L1206.94 122.52C1216.95 136.38 1234.55 149.03 1250.94 155.19C1252.15 152.99 1254.57 149.91 1256.44 148.37C1240.16 143.2 1222.56 131.87 1213.65 119.88ZM1158.43 193.91V201.28H1252.7V193.91H1158.43ZM1278.22 183.217C1277.44 183.79 1276.54 183.969 1275.54 183.754C1274.54 183.467 1273.85 182.859 1273.5 181.928C1273.07 180.925 1273 179.851 1273.28 178.705C1273.64 177.559 1274.28 176.664 1275.22 176.02C1286.1 168.07 1294.95 158.868 1301.75 148.412C1301.89 148.269 1301.89 148.09 1301.75 147.875C1301.68 147.66 1301.53 147.553 1301.32 147.553H1278.12C1277.18 147.553 1276.36 147.23 1275.65 146.586C1275 145.941 1274.68 145.154 1274.68 144.223C1274.68 143.22 1275 142.396 1275.65 141.752C1276.36 141.107 1277.18 140.785 1278.12 140.785H1305.29C1305.94 140.785 1306.37 140.499 1306.58 139.926C1307.73 137.706 1308.73 135.557 1309.59 133.48C1309.81 132.979 1309.63 132.729 1309.05 132.729H1284.88C1283.95 132.729 1283.16 132.442 1282.52 131.869C1281.95 131.225 1281.66 130.437 1281.66 129.506C1281.66 128.503 1281.95 127.715 1282.52 127.143C1283.16 126.498 1283.95 126.176 1284.88 126.176H1311.42C1312.13 126.176 1312.53 125.925 1312.6 125.424C1312.67 125.137 1313.24 123.168 1314.32 119.516C1314.46 118.943 1314.28 118.656 1313.78 118.656C1304.26 119.014 1295.38 119.193 1287.14 119.193C1286.14 119.193 1285.28 118.871 1284.56 118.227C1283.92 117.582 1283.56 116.794 1283.49 115.863C1283.42 114.861 1283.7 114.037 1284.35 113.393C1285.06 112.748 1285.89 112.426 1286.82 112.426C1313.96 112.354 1338.56 110.85 1360.62 107.914C1361.55 107.842 1362.41 108.093 1363.19 108.666C1364.05 109.167 1364.59 109.919 1364.81 110.922C1365.02 111.853 1364.84 112.712 1364.27 113.5C1363.77 114.216 1363.02 114.646 1362.01 114.789C1350.63 116.15 1338.06 117.26 1324.31 118.119C1323.73 118.119 1323.38 118.441 1323.23 119.086C1322.3 122.523 1321.73 124.564 1321.51 125.209C1321.37 125.854 1321.59 126.176 1322.16 126.176H1363.52C1364.45 126.176 1365.2 126.498 1365.77 127.143C1366.42 127.715 1366.74 128.503 1366.74 129.506C1366.74 130.437 1366.42 131.225 1365.77 131.869C1365.2 132.442 1364.45 132.729 1363.52 132.729H1319.69C1319.04 132.729 1318.61 133.015 1318.4 133.588C1317.25 136.524 1316.29 138.708 1315.5 140.141C1315.21 140.57 1315.39 140.785 1316.04 140.785H1370.28C1371.21 140.785 1372 141.107 1372.65 141.752C1373.36 142.396 1373.72 143.22 1373.72 144.223C1373.72 145.154 1373.36 145.941 1372.65 146.586C1372 147.23 1371.21 147.553 1370.28 147.553H1312.17C1311.6 147.553 1311.13 147.839 1310.77 148.412C1309.77 150.202 1308.59 152.029 1307.23 153.891C1306.94 154.32 1307.05 154.535 1307.55 154.535H1357.39C1359.11 154.535 1360.58 155.18 1361.8 156.469C1363.02 157.686 1363.62 159.118 1363.62 160.766V201.156C1363.62 202.374 1363.16 203.412 1362.23 204.271C1361.37 205.131 1360.37 205.561 1359.22 205.561H1359C1357.86 205.561 1356.86 205.167 1356 204.379C1355.21 203.591 1354.82 202.589 1354.82 201.371C1354.82 200.941 1354.64 200.727 1354.28 200.727H1305.94C1305.51 200.727 1305.29 200.941 1305.29 201.371C1305.29 202.517 1304.9 203.484 1304.11 204.271C1303.32 205.131 1302.36 205.561 1301.21 205.561H1301C1299.78 205.561 1298.74 205.131 1297.88 204.271C1297.09 203.484 1296.7 202.481 1296.7 201.264V166.996C1296.7 166.853 1296.63 166.745 1296.49 166.674C1296.34 166.602 1296.2 166.638 1296.06 166.781C1290.76 172.654 1284.81 178.132 1278.22 183.217ZM1305.29 162.162V167.426C1305.29 168.07 1305.62 168.393 1306.26 168.393H1353.85C1354.42 168.393 1354.74 168.07 1354.82 167.426V162.162C1354.82 161.518 1354.49 161.16 1353.85 161.088H1306.26C1305.62 161.16 1305.29 161.518 1305.29 162.162ZM1305.29 175.053V180.531C1305.29 181.104 1305.62 181.391 1306.26 181.391H1353.85C1354.42 181.391 1354.74 181.104 1354.82 180.531V175.053C1354.82 174.48 1354.49 174.193 1353.85 174.193H1306.26C1305.62 174.193 1305.29 174.48 1305.29 175.053ZM1305.29 188.158V193.422C1305.29 194.066 1305.62 194.424 1306.26 194.496H1353.85C1354.42 194.496 1354.74 194.138 1354.82 193.422V188.158C1354.82 187.514 1354.49 187.191 1353.85 187.191H1306.26C1305.62 187.191 1305.29 187.514 1305.29 188.158ZM1492.09 179.887C1493.02 179.887 1493.81 180.245 1494.46 180.961C1495.1 181.605 1495.42 182.429 1495.42 183.432C1495.42 184.363 1495.1 185.15 1494.46 185.795C1493.81 186.368 1493.02 186.654 1492.09 186.654H1490.59C1490.16 186.654 1489.94 186.905 1489.94 187.406V191.918C1489.94 197.719 1489.44 201.299 1488.44 202.66C1487.44 204.092 1484.82 204.809 1480.6 204.809C1478.52 204.809 1475.01 204.701 1470.07 204.486C1469.07 204.415 1468.21 204.021 1467.49 203.305C1466.78 202.589 1466.38 201.729 1466.31 200.727C1466.24 199.796 1466.53 198.972 1467.17 198.256C1467.81 197.54 1468.64 197.217 1469.64 197.289C1473.44 197.504 1476.05 197.611 1477.48 197.611C1479.49 197.611 1480.67 197.325 1481.03 196.752C1481.46 196.251 1481.67 194.639 1481.67 191.918V187.621C1481.67 186.977 1481.35 186.654 1480.71 186.654H1439.13C1438.56 186.654 1438.27 186.977 1438.27 187.621V201.371C1438.27 202.517 1437.84 203.484 1436.98 204.271C1436.2 205.131 1435.23 205.561 1434.08 205.561C1432.94 205.561 1431.97 205.167 1431.18 204.379C1430.4 203.591 1430 202.589 1430 201.371V187.406C1430 186.905 1429.75 186.654 1429.25 186.654H1427.96C1427.03 186.654 1426.21 186.368 1425.49 185.795C1424.85 185.15 1424.52 184.363 1424.52 183.432C1424.52 182.429 1424.85 181.605 1425.49 180.961C1426.13 180.245 1426.96 179.887 1427.96 179.887H1429.25C1429.75 179.887 1430 179.636 1430 179.135V157.113C1430 155.395 1430.61 153.926 1431.83 152.709C1433.05 151.492 1434.51 150.883 1436.23 150.883H1454.92C1455.57 150.883 1455.89 150.561 1455.89 149.916V146.156C1455.89 145.512 1455.57 145.189 1454.92 145.189H1430.11C1429.18 145.189 1428.39 144.903 1427.75 144.33C1427.1 143.686 1426.78 142.898 1426.78 141.967C1426.78 140.964 1427.1 140.141 1427.75 139.496C1428.39 138.852 1429.18 138.529 1430.11 138.529H1441.71C1442.36 138.529 1442.68 138.243 1442.68 137.67V132.836C1442.68 132.191 1442.36 131.869 1441.71 131.869H1433.87C1433.08 131.869 1432.37 131.583 1431.72 131.01C1431.15 130.437 1430.86 129.757 1430.86 128.969C1430.86 128.109 1431.15 127.393 1431.72 126.82C1432.37 126.247 1433.08 125.961 1433.87 125.961H1441.71C1442.36 125.961 1442.68 125.603 1442.68 124.887V120.16C1442.68 119.516 1442.36 119.193 1441.71 119.193H1432.47C1431.61 119.193 1430.86 118.907 1430.22 118.334C1429.57 117.689 1429.25 116.938 1429.25 116.078C1429.25 115.147 1429.54 114.359 1430.11 113.715C1430.75 113.07 1431.54 112.748 1432.47 112.748H1441.82C1442.39 112.748 1442.68 112.497 1442.68 111.996V110.707C1442.68 109.561 1443.07 108.594 1443.86 107.807C1444.65 106.947 1445.61 106.518 1446.76 106.518C1447.98 106.518 1448.98 106.947 1449.77 107.807C1450.63 108.594 1451.06 109.561 1451.06 110.707V111.996C1451.06 112.497 1451.34 112.748 1451.92 112.748H1468.67C1469.18 112.748 1469.43 112.497 1469.43 111.996V110.707C1469.43 109.561 1469.82 108.594 1470.61 107.807C1471.4 106.947 1472.36 106.518 1473.51 106.518C1474.73 106.518 1475.76 106.947 1476.62 107.807C1477.48 108.594 1477.91 109.561 1477.91 110.707V111.996C1477.91 112.497 1478.16 112.748 1478.66 112.748H1488.76C1489.62 112.748 1490.37 113.07 1491.02 113.715C1491.66 114.359 1491.98 115.147 1491.98 116.078C1491.98 116.938 1491.66 117.689 1491.02 118.334C1490.37 118.907 1489.62 119.193 1488.76 119.193H1478.77C1478.2 119.193 1477.91 119.516 1477.91 120.16V124.887C1477.91 125.531 1478.2 125.889 1478.77 125.961H1487.37C1488.15 125.961 1488.83 126.247 1489.41 126.82C1489.98 127.393 1490.27 128.109 1490.27 128.969C1490.27 129.757 1489.98 130.437 1489.41 131.01C1488.83 131.583 1488.15 131.869 1487.37 131.869H1478.77C1478.2 131.869 1477.91 132.191 1477.91 132.836V137.67C1477.91 138.243 1478.2 138.529 1478.77 138.529H1491.02C1491.95 138.529 1492.74 138.852 1493.38 139.496C1494.03 140.141 1494.35 140.964 1494.35 141.967C1494.35 142.898 1494.03 143.686 1493.38 144.33C1492.81 144.903 1492.02 145.189 1491.02 145.189H1465.02C1464.45 145.189 1464.16 145.512 1464.16 146.156V149.916C1464.16 150.561 1464.45 150.883 1465.02 150.883H1483.71C1485.43 150.883 1486.9 151.492 1488.12 152.709C1489.33 153.926 1489.94 155.395 1489.94 157.113V179.135C1489.94 179.636 1490.16 179.887 1490.59 179.887H1492.09ZM1455.89 178.92V172.367C1455.89 171.723 1455.57 171.4 1454.92 171.4H1439.13C1438.56 171.4 1438.27 171.723 1438.27 172.367V178.92C1438.27 179.564 1438.56 179.887 1439.13 179.887H1454.92C1455.57 179.887 1455.89 179.564 1455.89 178.92ZM1455.89 164.418V157.865C1455.89 157.221 1455.57 156.863 1454.92 156.791H1439.13C1438.56 156.791 1438.27 157.149 1438.27 157.865V164.418C1438.27 165.062 1438.56 165.385 1439.13 165.385H1454.92C1455.57 165.385 1455.89 165.062 1455.89 164.418ZM1451.06 120.16V124.887C1451.06 125.531 1451.38 125.889 1452.02 125.961H1468.57C1469.14 125.961 1469.43 125.603 1469.43 124.887V120.16C1469.43 119.516 1469.14 119.193 1468.57 119.193H1452.02C1451.38 119.193 1451.06 119.516 1451.06 120.16ZM1452.02 138.529H1468.57C1469.14 138.529 1469.43 138.243 1469.43 137.67V132.836C1469.43 132.191 1469.14 131.869 1468.57 131.869H1452.02C1451.38 131.869 1451.06 132.191 1451.06 132.836V137.67C1451.06 138.243 1451.38 138.529 1452.02 138.529ZM1481.67 178.92V172.367C1481.67 171.723 1481.35 171.4 1480.71 171.4H1465.02C1464.45 171.4 1464.16 171.723 1464.16 172.367V178.92C1464.16 179.564 1464.45 179.887 1465.02 179.887H1480.71C1481.35 179.887 1481.67 179.564 1481.67 178.92ZM1481.67 164.418V157.865C1481.67 157.221 1481.35 156.863 1480.71 156.791H1465.02C1464.45 156.791 1464.16 157.149 1464.16 157.865V164.418C1464.16 165.062 1464.45 165.385 1465.02 165.385H1480.71C1481.35 165.385 1481.67 165.062 1481.67 164.418ZM1394.77 116.615C1394.77 114.896 1395.38 113.428 1396.59 112.211C1397.81 110.993 1399.28 110.385 1401 110.385H1417.65C1419.37 110.385 1420.84 110.993 1422.05 112.211C1423.34 113.428 1423.99 114.896 1423.99 116.615V170.434C1423.99 172.152 1423.34 173.656 1422.05 174.945C1420.84 176.163 1419.37 176.771 1417.65 176.771H1402.61H1401C1399.28 176.771 1397.81 176.163 1396.59 174.945C1395.38 173.656 1394.77 172.152 1394.77 170.434V116.615ZM1402.61 118.656V129.398C1402.61 129.971 1402.93 130.294 1403.58 130.365H1415.29C1415.93 130.365 1416.25 130.043 1416.25 129.398V118.656C1416.25 118.012 1415.93 117.689 1415.29 117.689H1403.58C1402.93 117.689 1402.61 118.012 1402.61 118.656ZM1402.61 137.885V148.842C1402.61 149.486 1402.93 149.809 1403.58 149.809H1415.29C1415.93 149.809 1416.25 149.486 1416.25 148.842V137.885C1416.25 137.24 1415.93 136.918 1415.29 136.918H1403.58C1402.93 136.918 1402.61 137.24 1402.61 137.885ZM1402.61 157.436V168.5C1402.61 169.073 1402.93 169.359 1403.58 169.359H1415.29C1415.93 169.359 1416.25 169.073 1416.25 168.5V157.436C1416.25 156.791 1415.93 156.433 1415.29 156.361H1403.58C1402.93 156.433 1402.61 156.791 1402.61 157.436ZM1393.69 203.305C1392.83 202.803 1392.3 202.016 1392.08 200.941C1391.87 199.867 1392.05 198.865 1392.62 197.934C1395.48 193.279 1397.74 188.731 1399.39 184.291C1399.74 183.36 1400.39 182.68 1401.32 182.25C1402.25 181.82 1403.18 181.785 1404.11 182.143C1405.12 182.501 1405.83 183.145 1406.26 184.076C1406.76 185.007 1406.83 185.974 1406.48 186.977C1404.61 192.133 1402.18 197.146 1399.17 202.016C1398.6 202.947 1397.78 203.52 1396.7 203.734C1395.63 204.021 1394.62 203.878 1393.69 203.305ZM1418.94 200.941C1416.86 196.215 1414.57 191.811 1412.06 187.729C1411.56 186.869 1411.42 185.938 1411.63 184.936C1411.92 183.933 1412.53 183.217 1413.46 182.787C1414.39 182.286 1415.36 182.178 1416.36 182.465C1417.36 182.751 1418.15 183.324 1418.72 184.184C1420.87 187.693 1423.2 192.24 1425.71 197.826C1426.13 198.757 1426.13 199.688 1425.71 200.619C1425.35 201.622 1424.67 202.338 1423.66 202.768C1422.73 203.269 1421.8 203.305 1420.87 202.875C1420.01 202.517 1419.37 201.872 1418.94 200.941ZM1516.79 152.494C1515.86 153.067 1514.86 153.21 1513.78 152.924C1512.78 152.566 1512.03 151.957 1511.53 151.098C1511.03 150.238 1510.92 149.343 1511.2 148.412C1514.14 138.1 1516.22 127.035 1517.43 115.219C1517.51 114.216 1517.94 113.393 1518.72 112.748C1519.58 112.104 1520.51 111.817 1521.52 111.889C1522.59 111.96 1523.45 112.39 1524.09 113.178C1524.81 113.965 1525.1 114.896 1524.95 115.971C1524.81 117.904 1524.52 120.375 1524.09 123.383C1523.95 123.956 1524.2 124.242 1524.85 124.242H1528.82C1529.47 124.242 1529.79 123.956 1529.79 123.383V111.459C1529.79 110.313 1530.18 109.346 1530.97 108.559C1531.83 107.699 1532.83 107.27 1533.98 107.27C1535.12 107.27 1536.09 107.663 1536.88 108.451C1537.74 109.239 1538.17 110.242 1538.17 111.459V123.383C1538.17 123.956 1538.49 124.242 1539.13 124.242H1546.76C1547.69 124.242 1548.55 124.636 1549.34 125.424C1550.13 126.14 1550.52 126.999 1550.52 128.002C1550.52 128.933 1550.13 129.792 1549.34 130.58C1548.62 131.296 1547.76 131.654 1546.76 131.654H1539.13C1538.49 131.654 1538.17 131.977 1538.17 132.621V159.691C1538.17 160.264 1538.45 160.479 1539.03 160.336C1544.33 158.975 1547.15 158.223 1547.51 158.08C1548.44 157.794 1549.34 157.901 1550.2 158.402C1551.06 158.904 1551.52 159.62 1551.59 160.551C1551.81 162.986 1550.7 164.597 1548.26 165.385C1547.26 165.671 1545.72 166.137 1543.65 166.781C1541.64 167.354 1540.14 167.784 1539.13 168.07C1538.49 168.214 1538.17 168.572 1538.17 169.145V201.371C1538.17 202.517 1537.74 203.484 1536.88 204.271C1536.09 205.131 1535.12 205.561 1533.98 205.561C1532.83 205.561 1531.83 205.167 1530.97 204.379C1530.18 203.591 1529.79 202.589 1529.79 201.371V171.4C1529.79 170.756 1529.5 170.469 1528.93 170.541C1524.7 171.615 1520.23 172.618 1515.5 173.549C1514.57 173.764 1513.68 173.585 1512.82 173.012C1512.03 172.367 1511.56 171.508 1511.42 170.434C1511.35 169.431 1511.6 168.536 1512.17 167.748C1512.82 166.889 1513.68 166.316 1514.75 166.029C1517.9 165.456 1522.63 164.454 1528.93 163.021C1529.5 162.878 1529.79 162.52 1529.79 161.947V132.621C1529.79 131.977 1529.47 131.654 1528.82 131.654H1523.77C1523.2 131.654 1522.81 131.941 1522.59 132.514C1521.45 139.174 1520.12 145.082 1518.62 150.238C1518.33 151.169 1517.72 151.921 1516.79 152.494ZM1604.02 118.764C1605.74 118.764 1607.2 119.408 1608.42 120.697C1609.71 121.986 1610.32 123.49 1610.25 125.209C1609.82 143.686 1609.32 158.044 1608.74 168.285C1608.24 178.526 1607.45 186.332 1606.38 191.703C1605.31 197.003 1604.16 200.261 1602.94 201.479C1601.8 202.768 1600.04 203.412 1597.68 203.412C1595.1 203.412 1589.84 203.161 1581.89 202.66C1580.81 202.589 1579.88 202.159 1579.09 201.371C1578.38 200.583 1577.98 199.652 1577.91 198.578C1577.84 197.647 1578.16 196.788 1578.88 196C1579.6 195.284 1580.46 194.962 1581.46 195.033C1588.05 195.463 1592.27 195.678 1594.13 195.678C1595.28 195.678 1596.21 194.962 1596.93 193.529C1597.71 192.025 1598.43 188.91 1599.08 184.184C1599.79 179.457 1600.36 172.51 1600.79 163.344C1601.3 154.177 1601.76 141.967 1602.19 126.713C1602.19 126.498 1602.08 126.391 1601.87 126.391C1601.58 126.391 1601.44 126.498 1601.44 126.713C1599.08 142.11 1594.38 156.469 1587.37 169.789C1580.42 183.038 1571.93 193.78 1561.91 202.016C1561.05 202.732 1560.05 203.018 1558.9 202.875C1557.75 202.803 1556.82 202.338 1556.11 201.479C1555.39 200.691 1555.1 199.724 1555.25 198.578C1555.39 197.504 1555.86 196.609 1556.64 195.893C1565.95 188.087 1573.87 178.275 1580.38 166.459C1586.97 154.571 1591.63 141.501 1594.35 127.25C1594.49 126.677 1594.24 126.391 1593.6 126.391H1584.25C1583.61 126.391 1583.21 126.677 1583.07 127.25C1580.35 137.276 1576.48 146.765 1571.47 155.717C1566.45 164.597 1560.87 171.973 1554.71 177.846C1553.92 178.562 1552.96 178.884 1551.81 178.812C1550.74 178.741 1549.84 178.275 1549.12 177.416C1547.48 175.411 1547.62 173.513 1549.55 171.723C1561.23 160.694 1569.79 145.87 1575.23 127.25C1575.37 126.677 1575.16 126.391 1574.58 126.391H1565.45C1564.81 126.391 1564.38 126.677 1564.16 127.25C1560.15 136.488 1555.39 144.473 1549.88 151.205C1549.23 151.993 1548.37 152.423 1547.3 152.494C1546.22 152.566 1545.33 152.172 1544.61 151.312C1542.82 149.379 1542.75 147.445 1544.4 145.512C1552.28 135.557 1558.18 123.598 1562.12 109.633C1562.48 108.559 1563.12 107.699 1564.06 107.055C1565.06 106.339 1566.1 106.052 1567.17 106.195C1568.17 106.339 1569 106.876 1569.64 107.807C1570.29 108.666 1570.47 109.597 1570.18 110.6C1569.53 113.035 1568.75 115.469 1567.82 117.904C1567.67 118.477 1567.85 118.764 1568.35 118.764H1604.02ZM1634.19 192.133C1633.26 192.133 1632.44 191.811 1631.72 191.166C1631.08 190.45 1630.76 189.626 1630.76 188.695C1630.76 187.693 1631.08 186.869 1631.72 186.225C1632.44 185.58 1633.26 185.258 1634.19 185.258H1675.23C1675.87 185.258 1676.2 184.9 1676.2 184.184V176.234C1676.2 175.661 1675.87 175.339 1675.23 175.268H1649.23H1647.3C1645.58 175.268 1644.08 174.659 1642.79 173.441C1641.57 172.224 1640.96 170.756 1640.96 169.037V139.389C1640.96 137.67 1641.57 136.202 1642.79 134.984C1644.08 133.695 1645.58 133.051 1647.3 133.051H1675.23C1675.87 133.051 1676.2 132.764 1676.2 132.191V124.887C1676.2 124.242 1675.87 123.92 1675.23 123.92H1635.27C1634.34 123.92 1633.51 123.598 1632.8 122.953C1632.15 122.237 1631.83 121.413 1631.83 120.482C1631.83 119.48 1632.15 118.656 1632.8 118.012C1633.51 117.367 1634.34 117.045 1635.27 117.045H1675.23C1675.87 117.045 1676.2 116.723 1676.2 116.078V110.492C1676.2 109.275 1676.63 108.236 1677.48 107.377C1678.42 106.518 1679.45 106.088 1680.6 106.088C1681.75 106.088 1682.75 106.518 1683.61 107.377C1684.54 108.236 1685 109.275 1685 110.492V116.078C1685 116.723 1685.33 117.045 1685.97 117.045H1725.93C1726.86 117.045 1727.65 117.367 1728.3 118.012C1729.01 118.656 1729.37 119.48 1729.37 120.482C1729.37 121.413 1729.01 122.237 1728.3 122.953C1727.65 123.598 1726.86 123.92 1725.93 123.92H1685.97C1685.33 123.92 1685 124.242 1685 124.887V132.191C1685 132.764 1685.33 133.051 1685.97 133.051H1713.9C1715.62 133.051 1717.09 133.695 1718.31 134.984C1719.59 136.202 1720.24 137.67 1720.24 139.389V169.037C1720.24 170.756 1719.59 172.224 1718.31 173.441C1717.09 174.659 1715.62 175.268 1713.9 175.268H1685.97C1685.33 175.268 1685 175.59 1685 176.234V184.184C1685 184.828 1685.33 185.186 1685.97 185.258H1727.01C1727.94 185.258 1728.72 185.58 1729.37 186.225C1730.09 186.869 1730.44 187.693 1730.44 188.695C1730.44 189.626 1730.09 190.45 1729.37 191.166C1728.72 191.811 1727.94 192.133 1727.01 192.133H1685.97C1685.33 192.133 1685 192.455 1685 193.1V202.23C1685 203.448 1684.54 204.486 1683.61 205.346C1682.75 206.205 1681.75 206.635 1680.6 206.635C1679.45 206.635 1678.42 206.205 1677.48 205.346C1676.63 204.558 1676.2 203.52 1676.2 202.23V193.1C1676.2 192.455 1675.87 192.133 1675.23 192.133H1634.19ZM1711.97 167.748V157.973C1711.97 157.328 1711.64 156.97 1711 156.898H1685.97C1685.33 156.898 1685 157.257 1685 157.973V167.748C1685 168.393 1685.33 168.715 1685.97 168.715H1711C1711.64 168.715 1711.97 168.393 1711.97 167.748ZM1711 139.711H1685.97C1685.33 139.711 1685 140.033 1685 140.678V149.701C1685 150.346 1685.33 150.668 1685.97 150.668H1711C1711.64 150.668 1711.97 150.346 1711.97 149.701V140.678C1711.97 140.033 1711.64 139.711 1711 139.711ZM1649.23 140.678V149.701C1649.23 150.346 1649.56 150.668 1650.2 150.668H1675.23C1675.87 150.668 1676.2 150.346 1676.2 149.701V140.678C1676.2 140.033 1675.87 139.711 1675.23 139.711H1650.2C1649.56 139.711 1649.23 140.033 1649.23 140.678ZM1650.2 168.715H1675.23C1675.87 168.715 1676.2 168.393 1676.2 167.748V157.973C1676.2 157.328 1675.87 156.97 1675.23 156.898H1650.2C1649.56 156.898 1649.23 157.257 1649.23 157.973V167.748C1649.23 168.393 1649.56 168.715 1650.2 168.715ZM1802.19 172.475C1801.41 173.262 1800.47 173.656 1799.4 173.656C1798.33 173.656 1797.36 173.262 1796.5 172.475C1795.71 171.687 1795.32 170.72 1795.32 169.574L1794.35 120.912C1794.35 119.48 1794.85 118.262 1795.86 117.26C1796.86 116.186 1798.04 115.648 1799.4 115.648C1800.76 115.648 1801.94 116.15 1802.94 117.152C1803.95 118.155 1804.45 119.408 1804.45 120.912L1803.48 169.574C1803.48 170.648 1803.05 171.615 1802.19 172.475ZM1796.07 183.861C1797 182.93 1798.11 182.465 1799.4 182.465C1800.69 182.465 1801.8 182.93 1802.73 183.861C1803.66 184.792 1804.13 185.902 1804.13 187.191V191.273C1804.13 192.562 1803.66 193.673 1802.73 194.604C1801.8 195.535 1800.69 196 1799.4 196C1798.11 196 1797 195.535 1796.07 194.604C1795.14 193.673 1794.67 192.562 1794.67 191.273V187.191C1794.67 185.902 1795.14 184.792 1796.07 183.861Z" fill="black"/>
</svg>
