<svg width="2928" height="2918" viewBox="0 0 2928 2918" fill="none" xmlns="http://www.w3.org/2000/svg">
<circle cx="1469" cy="115" r="115" fill="#9B9BE3"/>
<circle cx="1805" cy="115" r="115" fill="#9B9BE3"/>
<circle cx="2141" cy="115" r="115" fill="#9B9BE3"/>
<circle cx="2477" cy="115" r="115" fill="#9B9BE3"/>
<circle cx="2813" cy="115" r="115" fill="#9B9BE3"/>
<circle cx="2813" cy="451" r="115" fill="#9B9BE3"/>
<circle cx="2477" cy="451" r="115" fill="#9B9BE3"/>
<circle cx="2477" cy="787" r="115" fill="#9B9BE3"/>
<circle cx="2141" cy="451" r="115" fill="#9B9BE3"/>
<circle cx="2813" cy="787" r="115" fill="#9B9BE3"/>
<circle cx="2813" cy="1123" r="115" fill="#9B9BE3"/>
<circle cx="2813" cy="1459" r="115" fill="#9B9BE3"/>
<circle cx="2477" cy="1123" r="115" fill="#9B9BE3"/>
<circle cx="2477" cy="1459" r="115" fill="#BF9BE3"/>
<circle cx="2477" cy="1795" r="115" fill="#BF9BE3"/>
<circle cx="2477" cy="2131" r="115" fill="#BF9BE3"/>
<circle cx="2141" cy="2467" r="115" fill="#BF9BE3"/>
<circle cx="1800" cy="2467" r="115" fill="#BF9BE3"/>
<circle cx="1469" cy="2467" r="115" fill="#BF9BE3"/>
<circle cx="2141" cy="787" r="115" fill="#BF9BE3"/>
<circle cx="2141" cy="1123" r="115" fill="#BF9BE3"/>
<circle cx="2141" cy="1459" r="115" fill="#BF9BE3"/>
<circle cx="2141" cy="1795" r="115" fill="#BF9BE3"/>
<circle cx="1128" cy="2803" r="115" fill="#BF9BE3"/>
<circle cx="1464" cy="2803" r="115" fill="#BF9BE3"/>
<circle cx="1800" cy="2803" r="115" fill="#BF9BE3"/>
<circle cx="2141" cy="2803" r="115" fill="#BF9BE3"/>
<circle cx="1805" cy="787" r="115" fill="#BF9BE3"/>
<circle cx="1805" cy="451" r="115" fill="#BF9BE3"/>
<circle cx="1469" cy="451" r="115" fill="#BF9BE3"/>
<circle cx="1469" cy="787" r="115" fill="#E8A8D4"/>
<circle cx="1469" cy="1123" r="115" fill="#E8A8D4"/>
<circle cx="1464" cy="1459" r="115" fill="#E8A8D4"/>
<circle cx="115" cy="2467" r="115" fill="#F28C8B"/>
<circle cx="115" cy="2803" r="115" fill="#E8A8D4"/>
<circle cx="451" cy="2803" r="115" fill="#E8A8D4"/>
<circle cx="792" cy="2803" r="115" fill="#E8A8D4"/>
<circle cx="792" cy="2467" r="115" fill="#E8A8D4"/>
<circle cx="1128" cy="2467" r="115" fill="#E8A8D4"/>
<circle cx="1128" cy="2131" r="115" fill="#E8A8D4"/>
<circle cx="1469" cy="1795" r="115" fill="#E8A8D4"/>
<circle cx="1469" cy="2131" r="115" fill="#E8A8D4"/>
<circle cx="1805" cy="1459" r="115" fill="#E8A8D4"/>
<circle cx="1810" cy="1795" r="115" fill="#E8A8D4"/>
<circle cx="1805" cy="2131" r="115" fill="#E8A8D4"/>
<circle cx="1128" cy="1459" r="115" fill="#F28C8B"/>
<circle cx="792" cy="1459" r="115" fill="#F28C8B"/>
<circle cx="451" cy="1459" r="115" fill="#F28C8B"/>
<circle cx="115" cy="1459" r="115" fill="#F28C8B"/>
<circle cx="115" cy="1795" r="115" fill="#F28C8B"/>
<circle cx="115" cy="2131" r="115" fill="#F28C8B"/>
<circle cx="451" cy="1795" r="115" fill="#F28C8B"/>
<circle cx="451" cy="2131" r="115" fill="#F28C8B"/>
<circle cx="451" cy="2467" r="115" fill="#F28C8B"/>
<circle cx="792" cy="1795" r="115" fill="#F28C8B"/>
<circle cx="792" cy="2131" r="115" fill="#F28C8B"/>
<circle cx="1128" cy="1795" r="115" fill="#F28C8B"/>
<circle cx="1805" cy="1123" r="115" fill="#E8A8D4"/>
<circle cx="2813" cy="1795" r="115" fill="#9B9BE3"/>
<circle cx="2813" cy="2131" r="115" fill="#9B9BE3"/>
<circle cx="2813" cy="2467" r="115" fill="#9B9BE3"/>
<circle cx="2477" cy="2467" r="115" fill="#9B9BE3"/>
<circle cx="2813" cy="2803" r="115" fill="#9B9BE3"/>
<circle cx="2477" cy="2803" r="115" fill="#9B9BE3"/>
</svg>
