<svg width="121" height="145" viewBox="0 0 121 145" fill="none" xmlns="http://www.w3.org/2000/svg">
<path d="M34.3867 53.6914C33.5273 53.6914 32.7852 53.3984 32.1602 52.8125C31.5742 52.2266 31.2812 51.5039 31.2812 50.6445V9.04297C31.2812 8.10547 31.6133 7.30469 32.2773 6.64062C32.9805 5.9375 33.8008 5.58594 34.7383 5.58594H50.2656C51.2031 5.58594 52.0039 5.9375 52.668 6.64062C53.332 7.30469 53.6641 8.10547 53.6641 9.04297V50.5859C53.6641 51.4844 53.3516 52.2266 52.7266 52.8125C52.1406 53.3984 51.3984 53.6914 50.5 53.6914C49.6016 53.6914 48.8594 53.3984 48.2734 52.8125C47.6875 52.2266 47.3945 51.4844 47.3945 50.5859C47.3945 50.2734 47.2383 50.1172 46.9258 50.1172H37.9023C37.6289 50.1172 37.4922 50.2734 37.4922 50.5859C37.4922 51.4844 37.1992 52.2266 36.6133 52.8125C36.0273 53.3984 35.2852 53.6914 34.3867 53.6914ZM37.4922 11.6797V44.2578C37.4922 44.6094 37.6484 44.7852 37.9609 44.7852H46.8672C47.2188 44.7852 47.3945 44.6094 47.3945 44.2578V11.6797C47.3945 11.3281 47.2188 11.1328 46.8672 11.0938H37.9609C37.6484 11.1328 37.4922 11.3281 37.4922 11.6797ZM1.63281 52.1094C0.96875 51.4453 0.597656 50.625 0.519531 49.6484C0.441406 48.6328 0.65625 47.7148 1.16406 46.8945C3.27344 43.5352 4.875 39.5898 5.96875 35.0586C7.10156 30.4883 7.84375 24.2383 8.19531 16.3086C8.19531 15.9961 8.03906 15.8203 7.72656 15.7812H3.39062C2.60938 15.7812 1.92578 15.5078 1.33984 14.9609C0.792969 14.4141 0.519531 13.7695 0.519531 13.0273C0.519531 12.2461 0.792969 11.5625 1.33984 10.9766C1.92578 10.3906 2.60938 10.0977 3.39062 10.0977H7.90234C8.25391 10.0977 8.42969 9.92188 8.42969 9.57031C8.46875 8.35938 8.48828 6.40625 8.48828 3.71094C8.48828 2.8125 8.80078 2.08984 9.42578 1.54297C10.0508 0.957031 10.793 0.664062 11.6523 0.664062C12.5508 0.664062 13.293 0.976563 13.8789 1.60156C14.5039 2.22656 14.8164 2.98828 14.8164 3.88672C14.8164 6.50391 14.7969 8.39844 14.7578 9.57031C14.7578 9.92188 14.9141 10.0977 15.2266 10.0977H24.7773C25.7148 10.0977 26.5156 10.4492 27.1797 11.1523C27.8438 11.8164 28.1758 12.5977 28.1758 13.4961V15.1953C28.1758 24.1016 28.0586 31.0742 27.8242 36.1133C27.5898 41.1133 27.1211 44.9414 26.418 47.5977C25.7148 50.2148 24.9141 51.8359 24.0156 52.4609C23.1562 53.125 21.8867 53.457 20.207 53.457C18.6445 53.457 16.5352 53.3398 13.8789 53.1055C12.9805 53.0664 12.2383 52.7344 11.6523 52.1094C11.1055 51.4844 10.8125 50.7422 10.7734 49.8828C10.7344 49.1406 10.9883 48.4961 11.5352 47.9492C12.1211 47.3633 12.8047 47.1094 13.5859 47.1875C15.6562 47.3828 17.2188 47.4805 18.2734 47.4805C18.7812 47.4805 19.2109 47.3242 19.5625 47.0117C19.9141 46.6602 20.2461 45.918 20.5586 44.7852C20.8711 43.6523 21.1055 42.0703 21.2617 40.0391C21.457 37.9688 21.6133 35.1953 21.7305 31.7188C21.8477 28.2422 21.9062 23.9844 21.9062 18.9453V16.3672C21.9062 16.0156 21.7109 15.8203 21.3203 15.7812H15.0508C14.6992 15.7812 14.5234 15.9766 14.5234 16.3672C14.1328 25.2734 13.2734 32.4023 11.9453 37.7539C10.6562 43.1055 8.68359 47.793 6.02734 51.8164C5.55859 52.5195 4.85547 52.8906 3.91797 52.9297C3.01953 53.0078 2.25781 52.7344 1.63281 52.1094ZM72.9062 53.6328C72.1641 54.0234 71.3633 54.1211 70.5039 53.9258C69.6836 53.7305 69.0391 53.3008 68.5703 52.6367C68.1406 51.9727 68.0234 51.25 68.2188 50.4688C68.4141 49.7266 68.8438 49.1211 69.5078 48.6523C76.4219 44.4336 82.0078 38.8867 86.2656 32.0117C90.5234 25.0977 92.6523 18.2031 92.6523 11.3281V9.74609C92.6523 9.39453 92.4766 9.21875 92.125 9.21875H79.293C78.5508 9.21875 77.8867 8.94531 77.3008 8.39844C76.7148 7.8125 76.4219 7.12891 76.4219 6.34766C76.4219 5.60547 76.6953 4.94141 77.2422 4.35547C77.8281 3.76953 78.5117 3.47656 79.293 3.47656H95.875C96.8125 3.47656 97.6133 3.82812 98.2773 4.53125C98.9414 5.19531 99.2734 5.99609 99.2734 6.93359V8.92578C99.2734 17.4023 100.992 25.1562 104.43 32.1875C107.867 39.2188 112.574 44.6875 118.551 48.5938C119.215 49.0234 119.625 49.6289 119.781 50.4102C119.977 51.2305 119.859 51.9727 119.43 52.6367C118.961 53.3008 118.316 53.7305 117.496 53.9258C116.676 54.1602 115.895 54.043 115.152 53.5742C110.895 50.8789 107.086 47.168 103.727 42.4414C100.406 37.6758 97.8281 32.3828 95.9922 26.5625C95.9531 26.4844 95.8945 26.4453 95.8164 26.4453C95.7773 26.4453 95.7383 26.4844 95.6992 26.5625C93.4336 32.2266 90.3086 37.4414 86.3242 42.207C82.3398 46.9336 77.8672 50.7422 72.9062 53.6328ZM0.519531 102.906L0.460938 102.789C0.226562 102.047 0.285156 101.305 0.636719 100.562C1.02734 99.8203 1.61328 99.3125 2.39453 99.0391C9.23047 96.5 15.3828 93.7461 20.8516 90.7773C22.8828 89.6445 25.0117 89.0781 27.2383 89.0781H28.7617C30.9883 89.0781 33.1367 89.6445 35.207 90.7773C40.793 93.8633 46.9453 96.6172 53.6641 99.0391C54.4062 99.3125 54.9531 99.8203 55.3047 100.562C55.6953 101.266 55.7734 102.008 55.5391 102.789L55.4805 102.906C55.2852 103.609 54.8359 104.137 54.1328 104.488C53.4688 104.84 52.7852 104.879 52.082 104.605C51.8477 104.527 51.7109 104.625 51.6719 104.898V117.906C51.6719 118.844 51.3398 119.645 50.6758 120.309C50.0117 120.973 49.2109 121.305 48.2734 121.305H10.5977H7.72656C6.78906 121.305 5.98828 120.973 5.32422 120.309C4.66016 119.605 4.32812 118.805 4.32812 117.906V104.898C4.32812 104.625 4.19141 104.527 3.91797 104.605C3.21484 104.879 2.51172 104.84 1.80859 104.488C1.14453 104.137 0.714844 103.609 0.519531 102.906ZM25.0117 116.441V108.062C25.0117 107.711 24.8359 107.516 24.4844 107.477H11.0664C10.7539 107.477 10.5977 107.672 10.5977 108.062V116.441C10.5977 116.754 10.7539 116.91 11.0664 116.91H24.4844C24.8359 116.91 25.0117 116.754 25.0117 116.441ZM45.4023 116.441V108.062C45.4023 107.711 45.2266 107.516 44.875 107.477H31.457C31.1445 107.477 30.9883 107.672 30.9883 108.062V116.441C30.9883 116.754 31.1445 116.91 31.457 116.91H44.875C45.2266 116.91 45.4023 116.754 45.4023 116.441ZM22.4922 96.3438C22.4531 96.3828 22.4336 96.4219 22.4336 96.4609C22.4336 96.5 22.4727 96.5195 22.5508 96.5195H33.4492C33.5273 96.5195 33.5664 96.5 33.5664 96.4609C33.5664 96.4219 33.5469 96.3828 33.5078 96.3438C32.0625 95.5625 30.3828 94.5859 28.4688 93.4141C28.1562 93.2188 27.8438 93.2188 27.5312 93.4141C25.6172 94.5859 23.9375 95.5625 22.4922 96.3438ZM8.25391 102.965C8.21484 103.004 8.19531 103.062 8.19531 103.141C8.19531 103.18 8.23438 103.199 8.3125 103.199H47.6875C47.7656 103.199 47.8047 103.18 47.8047 103.141C47.8047 103.062 47.7656 103.004 47.6875 102.965C45.6953 102.184 43.1758 101.07 40.1289 99.625C40.0508 99.625 40.0117 99.6641 40.0117 99.7422C40.0117 100.094 39.8945 100.406 39.6602 100.68C39.4258 100.953 39.1133 101.09 38.7227 101.09H17.2773C16.9258 101.09 16.6133 100.973 16.3398 100.738C16.1055 100.465 15.9883 100.133 15.9883 99.7422C15.9883 99.7031 15.9688 99.6836 15.9297 99.6836C15.8906 99.6445 15.8516 99.6445 15.8125 99.6836C13.3906 100.855 10.8711 101.949 8.25391 102.965ZM10.1289 123.414H45.8711C46.8086 123.414 47.6094 123.766 48.2734 124.469C48.9766 125.133 49.3281 125.914 49.3281 126.812V141.52C49.3281 142.457 48.9961 143.238 48.332 143.863C47.668 144.527 46.8867 144.859 45.9883 144.859H44.6992C44.1523 144.859 43.6836 144.664 43.293 144.273C42.9023 143.883 42.707 143.434 42.707 142.926C42.707 142.73 42.6094 142.613 42.4141 142.574H13.5859C13.3906 142.574 13.293 142.691 13.293 142.926C13.293 143.434 13.0977 143.883 12.707 144.273C12.3555 144.664 11.8867 144.859 11.3008 144.859H10.0117C9.11328 144.859 8.33203 144.527 7.66797 143.863C7.00391 143.238 6.67188 142.457 6.67188 141.52V126.812C6.67188 125.875 7.00391 125.074 7.66797 124.41C8.37109 123.746 9.19141 123.414 10.1289 123.414ZM42.707 137.711V135.66C42.707 135.309 42.5312 135.113 42.1797 135.074H13.8203C13.4688 135.074 13.293 135.27 13.293 135.66V137.711C13.293 138.062 13.4688 138.258 13.8203 138.297H42.1797C42.5312 138.258 42.707 138.062 42.707 137.711ZM42.707 130.387V128.277C42.707 127.926 42.5312 127.73 42.1797 127.691H13.8203C13.4688 127.691 13.293 127.887 13.293 128.277V130.387C13.293 130.738 13.4688 130.914 13.8203 130.914H42.1797C42.5312 130.914 42.707 130.738 42.707 130.387ZM18.8008 109.234C19.7383 110.484 20.5977 111.754 21.3789 113.043C21.7305 113.629 21.7891 114.254 21.5547 114.918C21.3594 115.543 20.9102 115.992 20.207 116.266C19.543 116.539 18.8594 116.559 18.1562 116.324C17.4531 116.09 16.8867 115.641 16.457 114.977C15.7539 113.805 14.9141 112.594 13.9375 111.344C13.5469 110.797 13.4297 110.23 13.5859 109.645C13.7812 109.02 14.1914 108.57 14.8164 108.297C16.457 107.594 17.7852 107.906 18.8008 109.234ZM38.7812 108.18C39.4844 107.867 40.168 107.848 40.832 108.121C41.5352 108.355 42.0039 108.805 42.2383 109.469C42.5117 110.094 42.4922 110.719 42.1797 111.344C41.5156 112.672 40.6367 114 39.543 115.328C39.0742 115.914 38.4492 116.285 37.668 116.441C36.9258 116.559 36.2227 116.461 35.5586 116.148C34.9727 115.875 34.6211 115.426 34.5039 114.801C34.3867 114.137 34.5234 113.551 34.9141 113.043C35.8906 111.715 36.6523 110.543 37.1992 109.527C37.5508 108.902 38.0781 108.453 38.7812 108.18ZM71.8516 143.863C71.1094 144.059 70.3672 143.98 69.625 143.629C68.8828 143.277 68.3555 142.73 68.043 141.988C67.7695 141.363 67.7891 140.719 68.1016 140.055C68.4141 139.391 68.9023 138.961 69.5664 138.766C74.5664 137.438 78.8438 135.992 82.3984 134.43C82.4375 134.391 82.457 134.352 82.457 134.312C82.457 134.234 82.4375 134.195 82.3984 134.195H77.4766H74.3125C73.375 134.195 72.5742 133.863 71.9102 133.199C71.2461 132.496 70.9141 131.695 70.9141 130.797V110.348C70.9141 109.41 71.2461 108.609 71.9102 107.945C72.6133 107.242 73.4141 106.891 74.3125 106.891H113.688C114.625 106.891 115.426 107.242 116.09 107.945C116.754 108.609 117.086 109.41 117.086 110.348V130.797C117.086 131.734 116.734 132.535 116.031 133.199C115.367 133.863 114.586 134.195 113.688 134.195H106.188C106.148 134.234 106.129 134.273 106.129 134.312C110.465 135.68 114.625 137.223 118.609 138.941C119.273 139.254 119.723 139.762 119.957 140.465C120.23 141.168 120.152 141.852 119.723 142.516C119.332 143.219 118.746 143.668 117.965 143.863C117.223 144.098 116.5 144.059 115.797 143.746C111.891 141.949 107.145 140.133 101.559 138.297C100.934 138.102 100.465 137.691 100.152 137.066C99.8398 136.441 99.8203 135.797 100.094 135.133C100.172 134.977 100.289 134.781 100.445 134.547C100.641 134.312 100.621 134.195 100.387 134.195H87.8477C87.5742 134.195 87.4961 134.312 87.6133 134.547V134.605C87.6523 134.645 87.6719 134.684 87.6719 134.723C88.0234 135.348 88.1016 136.031 87.9062 136.773C87.7109 137.477 87.3203 137.984 86.7344 138.297C82.8281 140.367 77.8672 142.223 71.8516 143.863ZM77.4766 112.34V114.332C77.4766 114.684 77.6719 114.859 78.0625 114.859H109.938C110.289 114.859 110.484 114.684 110.523 114.332V112.34C110.523 112.027 110.328 111.871 109.938 111.871H78.0625C77.6719 111.871 77.4766 112.027 77.4766 112.34ZM77.4766 119.547V121.715C77.4766 122.027 77.6719 122.184 78.0625 122.184H109.938C110.289 122.184 110.484 122.027 110.523 121.715V119.547C110.523 119.234 110.328 119.078 109.938 119.078H78.0625C77.6719 119.078 77.4766 119.234 77.4766 119.547ZM77.4766 129.039C77.4766 129.352 77.6719 129.508 78.0625 129.508H109.938C110.289 129.508 110.484 129.352 110.523 129.039V126.871C110.523 126.559 110.328 126.402 109.938 126.402H78.0625C77.7109 126.402 77.5156 126.559 77.4766 126.871V129.039ZM76.7148 91.5977H111.285C112.223 91.5977 113.023 91.9492 113.688 92.6523C114.352 93.3164 114.684 94.0977 114.684 94.9961V101.09C114.684 102.027 114.332 102.828 113.629 103.492C112.965 104.156 112.184 104.488 111.285 104.488H79.7031H76.7148C75.7773 104.488 74.9766 104.156 74.3125 103.492C73.6484 102.789 73.3164 101.988 73.3164 101.09V94.9961C73.3164 94.0586 73.6484 93.2578 74.3125 92.5938C74.9766 91.9297 75.7773 91.5977 76.7148 91.5977ZM108.297 99.7422V97.3398C108.297 96.9883 108.102 96.8125 107.711 96.8125H80.2891C79.9375 96.8125 79.7422 96.9883 79.7031 97.3398V99.7422C79.7031 100.094 79.8984 100.289 80.2891 100.328H107.711C108.102 100.289 108.297 100.094 108.297 99.7422Z" fill="#1E1C1C"/>
</svg>
