<svg width="121" height="144" viewBox="0 0 121 144" fill="none" xmlns="http://www.w3.org/2000/svg">
<path d="M0.519531 13.9062L0.460938 13.7891C0.226562 13.0469 0.285156 12.3047 0.636719 11.5625C1.02734 10.8203 1.61328 10.3125 2.39453 10.0391C9.23047 7.5 15.3828 4.74609 20.8516 1.77734C22.8828 0.644531 25.0117 0.078125 27.2383 0.078125H28.7617C30.9883 0.078125 33.1367 0.644531 35.207 1.77734C40.793 4.86328 46.9453 7.61719 53.6641 10.0391C54.4062 10.3125 54.9531 10.8203 55.3047 11.5625C55.6953 12.2656 55.7734 13.0078 55.5391 13.7891L55.4805 13.9062C55.2852 14.6094 54.8359 15.1367 54.1328 15.4883C53.4688 15.8398 52.7852 15.8789 52.082 15.6055C51.8477 15.5273 51.7109 15.625 51.6719 15.8984V28.9062C51.6719 29.8438 51.3398 30.6445 50.6758 31.3086C50.0117 31.9727 49.2109 32.3047 48.2734 32.3047H10.5977H7.72656C6.78906 32.3047 5.98828 31.9727 5.32422 31.3086C4.66016 30.6055 4.32812 29.8047 4.32812 28.9062V15.8984C4.32812 15.625 4.19141 15.5273 3.91797 15.6055C3.21484 15.8789 2.51172 15.8398 1.80859 15.4883C1.14453 15.1367 0.714844 14.6094 0.519531 13.9062ZM25.0117 27.4414V19.0625C25.0117 18.7109 24.8359 18.5156 24.4844 18.4766H11.0664C10.7539 18.4766 10.5977 18.6719 10.5977 19.0625V27.4414C10.5977 27.7539 10.7539 27.9102 11.0664 27.9102H24.4844C24.8359 27.9102 25.0117 27.7539 25.0117 27.4414ZM45.4023 27.4414V19.0625C45.4023 18.7109 45.2266 18.5156 44.875 18.4766H31.457C31.1445 18.4766 30.9883 18.6719 30.9883 19.0625V27.4414C30.9883 27.7539 31.1445 27.9102 31.457 27.9102H44.875C45.2266 27.9102 45.4023 27.7539 45.4023 27.4414ZM22.4922 7.34375C22.4531 7.38281 22.4336 7.42188 22.4336 7.46094C22.4336 7.5 22.4727 7.51953 22.5508 7.51953H33.4492C33.5273 7.51953 33.5664 7.5 33.5664 7.46094C33.5664 7.42188 33.5469 7.38281 33.5078 7.34375C32.0625 6.5625 30.3828 5.58594 28.4688 4.41406C28.1562 4.21875 27.8438 4.21875 27.5312 4.41406C25.6172 5.58594 23.9375 6.5625 22.4922 7.34375ZM8.25391 13.9648C8.21484 14.0039 8.19531 14.0625 8.19531 14.1406C8.19531 14.1797 8.23438 14.1992 8.3125 14.1992H47.6875C47.7656 14.1992 47.8047 14.1797 47.8047 14.1406C47.8047 14.0625 47.7656 14.0039 47.6875 13.9648C45.6953 13.1836 43.1758 12.0703 40.1289 10.625C40.0508 10.625 40.0117 10.6641 40.0117 10.7422C40.0117 11.0938 39.8945 11.4063 39.6602 11.6797C39.4258 11.9531 39.1133 12.0898 38.7227 12.0898H17.2773C16.9258 12.0898 16.6133 11.9727 16.3398 11.7383C16.1055 11.4648 15.9883 11.1328 15.9883 10.7422C15.9883 10.7031 15.9688 10.6836 15.9297 10.6836C15.8906 10.6445 15.8516 10.6445 15.8125 10.6836C13.3906 11.8555 10.8711 12.9492 8.25391 13.9648ZM10.1289 34.4141H45.8711C46.8086 34.4141 47.6094 34.7656 48.2734 35.4688C48.9766 36.1328 49.3281 36.9141 49.3281 37.8125V52.5195C49.3281 53.457 48.9961 54.2383 48.332 54.8633C47.668 55.5273 46.8867 55.8594 45.9883 55.8594H44.6992C44.1523 55.8594 43.6836 55.6641 43.293 55.2734C42.9023 54.8828 42.707 54.4336 42.707 53.9258C42.707 53.7305 42.6094 53.6133 42.4141 53.5742H13.5859C13.3906 53.5742 13.293 53.6914 13.293 53.9258C13.293 54.4336 13.0977 54.8828 12.707 55.2734C12.3555 55.6641 11.8867 55.8594 11.3008 55.8594H10.0117C9.11328 55.8594 8.33203 55.5273 7.66797 54.8633C7.00391 54.2383 6.67188 53.457 6.67188 52.5195V37.8125C6.67188 36.875 7.00391 36.0742 7.66797 35.4102C8.37109 34.7461 9.19141 34.4141 10.1289 34.4141ZM42.707 48.7109V46.6602C42.707 46.3086 42.5312 46.1133 42.1797 46.0742H13.8203C13.4688 46.0742 13.293 46.2695 13.293 46.6602V48.7109C13.293 49.0625 13.4688 49.2578 13.8203 49.2969H42.1797C42.5312 49.2578 42.707 49.0625 42.707 48.7109ZM42.707 41.3867V39.2773C42.707 38.9258 42.5312 38.7305 42.1797 38.6914H13.8203C13.4688 38.6914 13.293 38.8867 13.293 39.2773V41.3867C13.293 41.7383 13.4688 41.9141 13.8203 41.9141H42.1797C42.5312 41.9141 42.707 41.7383 42.707 41.3867ZM18.8008 20.2344C19.7383 21.4844 20.5977 22.7539 21.3789 24.043C21.7305 24.6289 21.7891 25.2539 21.5547 25.918C21.3594 26.543 20.9102 26.9922 20.207 27.2656C19.543 27.5391 18.8594 27.5586 18.1562 27.3242C17.4531 27.0898 16.8867 26.6406 16.457 25.9766C15.7539 24.8047 14.9141 23.5938 13.9375 22.3438C13.5469 21.7969 13.4297 21.2305 13.5859 20.6445C13.7812 20.0195 14.1914 19.5703 14.8164 19.2969C16.457 18.5938 17.7852 18.9062 18.8008 20.2344ZM38.7812 19.1797C39.4844 18.8672 40.168 18.8477 40.832 19.1211C41.5352 19.3555 42.0039 19.8047 42.2383 20.4688C42.5117 21.0938 42.4922 21.7188 42.1797 22.3438C41.5156 23.6719 40.6367 25 39.543 26.3281C39.0742 26.9141 38.4492 27.2852 37.668 27.4414C36.9258 27.5586 36.2227 27.4609 35.5586 27.1484C34.9727 26.875 34.6211 26.4258 34.5039 25.8008C34.3867 25.1367 34.5234 24.5508 34.9141 24.043C35.8906 22.7148 36.6523 21.543 37.1992 20.5273C37.5508 19.9023 38.0781 19.4531 38.7812 19.1797ZM71.8516 54.8633C71.1094 55.0586 70.3672 54.9805 69.625 54.6289C68.8828 54.2773 68.3555 53.7305 68.043 52.9883C67.7695 52.3633 67.7891 51.7188 68.1016 51.0547C68.4141 50.3906 68.9023 49.9609 69.5664 49.7656C74.5664 48.4375 78.8438 46.9922 82.3984 45.4297C82.4375 45.3906 82.457 45.3516 82.457 45.3125C82.457 45.2344 82.4375 45.1953 82.3984 45.1953H77.4766H74.3125C73.375 45.1953 72.5742 44.8633 71.9102 44.1992C71.2461 43.4961 70.9141 42.6953 70.9141 41.7969V21.3477C70.9141 20.4102 71.2461 19.6094 71.9102 18.9453C72.6133 18.2422 73.4141 17.8906 74.3125 17.8906H113.688C114.625 17.8906 115.426 18.2422 116.09 18.9453C116.754 19.6094 117.086 20.4102 117.086 21.3477V41.7969C117.086 42.7344 116.734 43.5352 116.031 44.1992C115.367 44.8633 114.586 45.1953 113.688 45.1953H106.188C106.148 45.2344 106.129 45.2734 106.129 45.3125C110.465 46.6797 114.625 48.2227 118.609 49.9414C119.273 50.2539 119.723 50.7617 119.957 51.4648C120.23 52.168 120.152 52.8516 119.723 53.5156C119.332 54.2188 118.746 54.668 117.965 54.8633C117.223 55.0977 116.5 55.0586 115.797 54.7461C111.891 52.9492 107.145 51.1328 101.559 49.2969C100.934 49.1016 100.465 48.6914 100.152 48.0664C99.8398 47.4414 99.8203 46.7969 100.094 46.1328C100.172 45.9766 100.289 45.7812 100.445 45.5469C100.641 45.3125 100.621 45.1953 100.387 45.1953H87.8477C87.5742 45.1953 87.4961 45.3125 87.6133 45.5469V45.6055C87.6523 45.6445 87.6719 45.6836 87.6719 45.7227C88.0234 46.3477 88.1016 47.0312 87.9062 47.7734C87.7109 48.4766 87.3203 48.9844 86.7344 49.2969C82.8281 51.3672 77.8672 53.2227 71.8516 54.8633ZM77.4766 23.3398V25.332C77.4766 25.6836 77.6719 25.8594 78.0625 25.8594H109.938C110.289 25.8594 110.484 25.6836 110.523 25.332V23.3398C110.523 23.0273 110.328 22.8711 109.938 22.8711H78.0625C77.6719 22.8711 77.4766 23.0273 77.4766 23.3398ZM77.4766 30.5469V32.7148C77.4766 33.0273 77.6719 33.1836 78.0625 33.1836H109.938C110.289 33.1836 110.484 33.0273 110.523 32.7148V30.5469C110.523 30.2344 110.328 30.0781 109.938 30.0781H78.0625C77.6719 30.0781 77.4766 30.2344 77.4766 30.5469ZM77.4766 40.0391C77.4766 40.3516 77.6719 40.5078 78.0625 40.5078H109.938C110.289 40.5078 110.484 40.3516 110.523 40.0391V37.8711C110.523 37.5586 110.328 37.4023 109.938 37.4023H78.0625C77.7109 37.4023 77.5156 37.5586 77.4766 37.8711V40.0391ZM76.7148 2.59766H111.285C112.223 2.59766 113.023 2.94922 113.688 3.65234C114.352 4.31641 114.684 5.09766 114.684 5.99609V12.0898C114.684 13.0273 114.332 13.8281 113.629 14.4922C112.965 15.1562 112.184 15.4883 111.285 15.4883H79.7031H76.7148C75.7773 15.4883 74.9766 15.1562 74.3125 14.4922C73.6484 13.7891 73.3164 12.9883 73.3164 12.0898V5.99609C73.3164 5.05859 73.6484 4.25781 74.3125 3.59375C74.9766 2.92969 75.7773 2.59766 76.7148 2.59766ZM108.297 10.7422V8.33984C108.297 7.98828 108.102 7.8125 107.711 7.8125H80.2891C79.9375 7.8125 79.7422 7.98828 79.7031 8.33984V10.7422C79.7031 11.0938 79.8984 11.2891 80.2891 11.3281H107.711C108.102 11.2891 108.297 11.0938 108.297 10.7422ZM15.5195 137.828C15.832 137.828 15.9492 137.652 15.8711 137.301C15.3633 135.895 14.6211 134.117 13.6445 131.969C13.5273 131.656 13.293 131.5 12.9414 131.5H12.3555C11.418 131.5 10.6172 131.168 9.95312 130.504C9.28906 129.801 8.95703 129 8.95703 128.102V119.723C8.95703 118.785 9.28906 117.984 9.95312 117.32C10.6172 116.656 11.418 116.324 12.3555 116.324H43.6445C44.582 116.324 45.3828 116.676 46.0469 117.379C46.75 118.043 47.1016 118.824 47.1016 119.723V128.102C47.1016 129.039 46.75 129.84 46.0469 130.504C45.3828 131.168 44.582 131.5 43.6445 131.5H43.0586C42.707 131.5 42.4727 131.656 42.3555 131.969C41.6133 133.688 40.6367 135.465 39.4258 137.301C39.3477 137.379 39.3281 137.496 39.3672 137.652C39.4453 137.77 39.543 137.828 39.6602 137.828H52.0234C52.7656 137.828 53.3906 138.082 53.8984 138.59C54.4453 139.098 54.7188 139.723 54.7188 140.465C54.7188 141.246 54.4453 141.891 53.8984 142.398C53.3906 142.945 52.7656 143.219 52.0234 143.219H3.97656C3.23438 143.219 2.58984 142.945 2.04297 142.398C1.53516 141.891 1.28125 141.246 1.28125 140.465C1.28125 139.723 1.53516 139.098 2.04297 138.59C2.58984 138.082 3.23438 137.828 3.97656 137.828H15.5195ZM35.6172 131.91C35.6562 131.832 35.6367 131.754 35.5586 131.676C35.5195 131.559 35.4414 131.5 35.3242 131.5H20.6758C20.3242 131.5 20.2266 131.656 20.3828 131.969C21.2422 133.961 21.9453 135.738 22.4922 137.301C22.6094 137.613 22.8242 137.789 23.1367 137.828H31.6328C31.9453 137.828 32.2188 137.672 32.4531 137.359C33.7031 135.445 34.7578 133.629 35.6172 131.91ZM15.7539 126.871H40.2461C40.5977 126.871 40.7734 126.695 40.7734 126.344V121.656C40.7734 121.305 40.5977 121.129 40.2461 121.129H15.7539C15.4414 121.129 15.2852 121.305 15.2852 121.656V126.344C15.2852 126.695 15.4414 126.871 15.7539 126.871ZM4.91406 117.906C4.25 118.297 3.52734 118.355 2.74609 118.082C1.96484 117.77 1.41797 117.262 1.10547 116.559C0.792969 115.816 0.773438 115.055 1.04688 114.273C1.32031 113.492 1.82812 112.887 2.57031 112.457C5.73438 110.738 8.23438 109.273 10.0703 108.062C10.1875 108.023 10.2461 107.926 10.2461 107.77C10.2461 107.574 10.207 107.438 10.1289 107.359C6.57422 104.156 4.73828 102.496 4.62109 102.379C4.03516 101.871 3.72266 101.246 3.68359 100.504C3.64453 99.7227 3.91797 99.0586 4.50391 98.5117C5.08984 97.9648 5.77344 97.6719 6.55469 97.6328C7.375 97.5547 8.09766 97.7891 8.72266 98.3359C9.46484 98.9609 11.4961 100.777 14.8164 103.785C15.0898 103.98 15.3438 104 15.5781 103.844C18.1953 101.617 20.3438 99.3711 22.0234 97.1055C22.1016 97.0273 22.1016 96.9492 22.0234 96.8711C21.9844 96.7539 21.9062 96.6953 21.7891 96.6953H10.9492C10.2461 96.6953 9.62109 96.4414 9.07422 95.9336C8.56641 95.4258 8.3125 94.8203 8.3125 94.1172C8.3125 93.4141 8.56641 92.8086 9.07422 92.3008C9.62109 91.7539 10.2461 91.4805 10.9492 91.4805H27.5898C29.7773 91.4805 31.4766 92.457 32.6875 94.4102C33.4688 95.6992 34.3281 96.9297 35.2656 98.1016C35.4609 98.375 35.6758 98.3945 35.9102 98.1602C37.2773 96.6367 38.5664 95.1133 39.7773 93.5898C40.2461 92.9648 40.8516 92.5742 41.5938 92.418C42.375 92.2617 43.0977 92.3984 43.7617 92.8281C44.4258 93.2578 44.8359 93.8438 44.9922 94.5859C45.1484 95.2891 45.0117 95.9336 44.582 96.5195C42.9805 98.5508 41.3789 100.426 39.7773 102.145C39.543 102.379 39.543 102.633 39.7773 102.906C40.7148 103.766 41.8281 104.723 43.1172 105.777C43.3906 105.973 43.625 105.973 43.8203 105.777C45.1484 104.371 46.6719 102.555 48.3906 100.328C48.8594 99.7031 49.4844 99.3125 50.2656 99.1562C51.0469 99 51.7891 99.1172 52.4922 99.5078C53.1562 99.9375 53.5469 100.523 53.6641 101.266C53.8203 102.008 53.6836 102.691 53.2539 103.316C51.8477 105.074 50.2266 106.949 48.3906 108.941C48.3125 109.02 48.2734 109.137 48.2734 109.293C48.3125 109.449 48.3906 109.547 48.5078 109.586C50.2266 110.68 51.8672 111.637 53.4297 112.457C54.1328 112.848 54.6211 113.453 54.8945 114.273C55.207 115.055 55.207 115.816 54.8945 116.559C54.582 117.262 54.0352 117.75 53.2539 118.023C52.5117 118.297 51.7891 118.238 51.0859 117.848C46.6328 115.387 42.7656 112.73 39.4844 109.879C39.3281 109.801 39.1914 109.879 39.0742 110.113C39.0742 110.816 38.8203 111.422 38.3125 111.93C37.8047 112.438 37.1797 112.691 36.4375 112.691H19.5625C18.8594 112.691 18.2344 112.457 17.6875 111.988C17.1797 111.48 16.9258 110.855 16.9258 110.113C16.9258 110.035 16.8672 109.977 16.75 109.938C16.6328 109.859 16.5547 109.84 16.5156 109.879C13.0781 112.848 9.21094 115.523 4.91406 117.906ZM27.707 97.9258C25.4414 101.168 22.7656 104.234 19.6797 107.125C19.6016 107.164 19.582 107.242 19.6211 107.359C19.6602 107.438 19.7188 107.477 19.7969 107.477H36.2031C36.2812 107.477 36.3398 107.438 36.3789 107.359C36.418 107.242 36.3984 107.164 36.3203 107.125C33.0781 104.039 30.3828 100.953 28.2344 97.8672C28.0781 97.6328 27.9023 97.6523 27.707 97.9258ZM72.9062 142.633C72.1641 143.023 71.3633 143.121 70.5039 142.926C69.6836 142.73 69.0391 142.301 68.5703 141.637C68.1406 140.973 68.0234 140.25 68.2188 139.469C68.4141 138.727 68.8438 138.121 69.5078 137.652C76.4219 133.434 82.0078 127.887 86.2656 121.012C90.5234 114.098 92.6523 107.203 92.6523 100.328V98.7461C92.6523 98.3945 92.4766 98.2188 92.125 98.2188H79.293C78.5508 98.2188 77.8867 97.9453 77.3008 97.3984C76.7148 96.8125 76.4219 96.1289 76.4219 95.3477C76.4219 94.6055 76.6953 93.9414 77.2422 93.3555C77.8281 92.7695 78.5117 92.4766 79.293 92.4766H95.875C96.8125 92.4766 97.6133 92.8281 98.2773 93.5312C98.9414 94.1953 99.2734 94.9961 99.2734 95.9336V97.9258C99.2734 106.402 100.992 114.156 104.43 121.188C107.867 128.219 112.574 133.688 118.551 137.594C119.215 138.023 119.625 138.629 119.781 139.41C119.977 140.23 119.859 140.973 119.43 141.637C118.961 142.301 118.316 142.73 117.496 142.926C116.676 143.16 115.895 143.043 115.152 142.574C110.895 139.879 107.086 136.168 103.727 131.441C100.406 126.676 97.8281 121.383 95.9922 115.562C95.9531 115.484 95.8945 115.445 95.8164 115.445C95.7773 115.445 95.7383 115.484 95.6992 115.562C93.4336 121.227 90.3086 126.441 86.3242 131.207C82.3398 135.934 77.8672 139.742 72.9062 142.633Z" fill="#1E1C1C"/>
</svg>
