<svg width="656" height="21" viewBox="0 0 656 21" fill="none" xmlns="http://www.w3.org/2000/svg">
<path d="M5.50781 5.80469C5.2474 5.80469 5.03906 5.69401 4.88281 5.47266C4.72656 5.2513 4.70052 5.01693 4.80469 4.76953L6.19141 1.42969C6.29557 1.18229 6.45833 0.986979 6.67969 0.84375C6.91406 0.6875 7.17448 0.609375 7.46094 0.609375C7.68229 0.609375 7.85807 0.69401 7.98828 0.863281C8.13151 1.03255 8.17708 1.23438 8.125 1.46875L7.26562 4.69141C7.17448 5.01693 6.99219 5.28385 6.71875 5.49219C6.45833 5.70052 6.15885 5.80469 5.82031 5.80469H5.50781ZM1.50391 5.80469C1.24349 5.80469 1.03516 5.69401 0.878906 5.47266C0.722656 5.2513 0.696615 5.01693 0.800781 4.76953L2.20703 1.42969C2.3112 1.18229 2.47396 0.986979 2.69531 0.84375C2.92969 0.6875 3.18359 0.609375 3.45703 0.609375C3.67839 0.609375 3.85417 0.69401 3.98438 0.863281C4.1276 1.03255 4.17318 1.23438 4.12109 1.46875L3.26172 4.69141C3.17057 5.01693 2.98828 5.28385 2.71484 5.49219C2.45443 5.70052 2.15495 5.80469 1.81641 5.80469H1.50391ZM15.0562 16C14.7437 16 14.4768 15.8893 14.2555 15.668C14.0341 15.4336 13.9234 15.1667 13.9234 14.8672V2.54297C13.9234 2.23047 14.0341 1.96354 14.2555 1.74219C14.4768 1.50781 14.7437 1.39062 15.0562 1.39062H15.1734C15.4859 1.39062 15.7529 1.50781 15.9742 1.74219C16.1956 1.96354 16.3062 2.23047 16.3062 2.54297V14.8672C16.3062 15.1797 16.1956 15.4466 15.9742 15.668C15.7529 15.8893 15.4859 16 15.1734 16H15.0562ZM31.7898 14.9062L29.6414 6.70312C29.5763 6.41667 29.6349 6.16276 29.8172 5.94141C29.9995 5.72005 30.2273 5.60938 30.5008 5.60938C30.8393 5.60938 31.1323 5.71354 31.3797 5.92188C31.6401 6.13021 31.8029 6.39714 31.868 6.72266L33.3914 14.1836C33.3914 14.1966 33.3979 14.2031 33.4109 14.2031C33.424 14.2031 33.4305 14.1966 33.4305 14.1836L34.8758 6.72266C34.9409 6.39714 35.1036 6.13021 35.3641 5.92188C35.6245 5.71354 35.9174 5.60938 36.243 5.60938H36.7703C37.1089 5.60938 37.4018 5.71354 37.6492 5.92188C37.9096 6.13021 38.0659 6.39714 38.118 6.72266L39.5828 14.1836C39.5828 14.1966 39.5893 14.2031 39.6023 14.2031C39.6154 14.2031 39.6219 14.1966 39.6219 14.1836L41.1453 6.68359C41.2104 6.37109 41.3667 6.11719 41.6141 5.92188C41.8615 5.71354 42.1414 5.60938 42.4539 5.60938C42.7404 5.60938 42.9682 5.72005 43.1375 5.94141C43.3198 6.14974 43.3654 6.39062 43.2742 6.66406L41.1453 14.9062C41.0672 15.2318 40.8914 15.4987 40.618 15.707C40.3576 15.9023 40.0581 16 39.7195 16H39.3094C38.9839 16 38.6909 15.8958 38.4305 15.6875C38.1701 15.4661 38.0073 15.1992 37.9422 14.8867L36.4773 7.62109C36.4773 7.60807 36.4708 7.60156 36.4578 7.60156C36.4448 7.60156 36.4383 7.60807 36.4383 7.62109L34.9734 14.8867C34.9214 15.2122 34.7651 15.4792 34.5047 15.6875C34.2443 15.8958 33.9513 16 33.6258 16H33.1961C32.8706 16 32.5711 15.9023 32.2977 15.707C32.0372 15.4987 31.868 15.2318 31.7898 14.9062ZM52.7055 10.7656C51.6117 10.7656 50.7849 10.9479 50.225 11.3125C49.6781 11.6771 49.4047 12.1719 49.4047 12.7969C49.4047 13.2917 49.5479 13.7018 49.8344 14.0273C50.1339 14.3398 50.4854 14.4961 50.8891 14.4961C51.7745 14.4961 52.4776 14.2227 52.9984 13.6758C53.5323 13.1159 53.7992 12.3542 53.7992 11.3906V10.9219C53.7992 10.8177 53.7406 10.7656 53.6234 10.7656H52.7055ZM50.4008 16.1953C49.4893 16.1953 48.7406 15.9023 48.1547 15.3164C47.5818 14.7305 47.2953 13.9557 47.2953 12.9922C47.2953 11.8203 47.738 10.9154 48.6234 10.2773C49.5219 9.6263 50.8826 9.30078 52.7055 9.30078H53.6234C53.7406 9.30078 53.7992 9.24219 53.7992 9.125V8.89062C53.7992 8.1875 53.6299 7.69922 53.2914 7.42578C52.9659 7.13932 52.3669 6.99609 51.4945 6.99609C50.7263 6.99609 49.8083 7.15885 48.7406 7.48438C48.5453 7.54948 48.3565 7.51693 48.1742 7.38672C47.9919 7.25651 47.9008 7.08724 47.9008 6.87891C47.9008 6.61849 47.9789 6.38411 48.1352 6.17578C48.2914 5.95443 48.4997 5.81771 48.7602 5.76562C49.7237 5.53125 50.6352 5.40755 51.4945 5.39453C53.1742 5.39453 54.3266 5.69401 54.9516 6.29297C55.5766 6.89193 55.8891 7.99219 55.8891 9.59375V15.0234C55.8891 15.2839 55.7914 15.5117 55.5961 15.707C55.4138 15.9023 55.1859 16 54.9125 16C54.6521 16 54.4242 15.9023 54.2289 15.707C54.0336 15.5117 53.9294 15.2839 53.9164 15.0234L53.8969 14.5156C53.8969 14.5026 53.8904 14.4961 53.8773 14.4961C53.8513 14.4961 53.8383 14.5026 53.8383 14.5156C53.0701 15.6354 51.9242 16.1953 50.4008 16.1953ZM62.8789 15.707C62.6836 15.9023 62.4362 16 62.1367 16C61.8372 16 61.5833 15.9023 61.375 15.707C61.1797 15.4987 61.082 15.2513 61.082 14.9648V6.58594C61.082 6.32552 61.1732 6.09766 61.3555 5.90234C61.5508 5.70703 61.7786 5.60938 62.0391 5.60938C62.3125 5.60938 62.5469 5.70703 62.7422 5.90234C62.9375 6.08464 63.0417 6.3125 63.0547 6.58594L63.0742 6.87891C63.0742 6.89193 63.0807 6.89844 63.0938 6.89844C63.1068 6.89844 63.1198 6.89193 63.1328 6.87891C64.0833 5.88932 65.1641 5.39453 66.375 5.39453C67.5859 5.39453 68.4714 5.73958 69.0312 6.42969C69.5911 7.11979 69.8711 8.24609 69.8711 9.80859V14.9844C69.8711 15.2708 69.7734 15.5117 69.5781 15.707C69.3828 15.9023 69.1419 16 68.8555 16C68.582 16 68.3411 15.9023 68.1328 15.707C67.9245 15.4987 67.8203 15.2578 67.8203 14.9844V10.1016C67.8203 8.90365 67.6706 8.08984 67.3711 7.66016C67.0846 7.21745 66.5508 6.99609 65.7695 6.99609C65.1445 6.99609 64.5521 7.27604 63.9922 7.83594C63.4453 8.38281 63.1719 8.96875 63.1719 9.59375V14.9648C63.1719 15.2643 63.0742 15.5117 62.8789 15.707ZM76.8414 15.707C76.6461 15.9023 76.3987 16 76.0992 16C75.7997 16 75.5458 15.9023 75.3375 15.707C75.1422 15.4987 75.0445 15.2513 75.0445 14.9648V6.58594C75.0445 6.32552 75.1357 6.09766 75.318 5.90234C75.5133 5.70703 75.7411 5.60938 76.0016 5.60938C76.275 5.60938 76.5094 5.70703 76.7047 5.90234C76.9 6.08464 77.0042 6.3125 77.0172 6.58594L77.0367 6.87891C77.0367 6.89193 77.0432 6.89844 77.0563 6.89844C77.0693 6.89844 77.0823 6.89193 77.0953 6.87891C78.0458 5.88932 79.1266 5.39453 80.3375 5.39453C81.5484 5.39453 82.4339 5.73958 82.9938 6.42969C83.5536 7.11979 83.8336 8.24609 83.8336 9.80859V14.9844C83.8336 15.2708 83.7359 15.5117 83.5406 15.707C83.3453 15.9023 83.1044 16 82.818 16C82.5445 16 82.3036 15.9023 82.0953 15.707C81.887 15.4987 81.7828 15.2578 81.7828 14.9844V10.1016C81.7828 8.90365 81.6331 8.08984 81.3336 7.66016C81.0471 7.21745 80.5133 6.99609 79.732 6.99609C79.107 6.99609 78.5146 7.27604 77.9547 7.83594C77.4078 8.38281 77.1344 8.96875 77.1344 9.59375V14.9648C77.1344 15.2643 77.0367 15.5117 76.8414 15.707ZM93.9094 10.7656C92.8156 10.7656 91.9888 10.9479 91.4289 11.3125C90.882 11.6771 90.6086 12.1719 90.6086 12.7969C90.6086 13.2917 90.7518 13.7018 91.0383 14.0273C91.3378 14.3398 91.6893 14.4961 92.093 14.4961C92.9784 14.4961 93.6815 14.2227 94.2023 13.6758C94.7362 13.1159 95.0031 12.3542 95.0031 11.3906V10.9219C95.0031 10.8177 94.9445 10.7656 94.8273 10.7656H93.9094ZM91.6047 16.1953C90.6932 16.1953 89.9445 15.9023 89.3586 15.3164C88.7857 14.7305 88.4992 13.9557 88.4992 12.9922C88.4992 11.8203 88.9419 10.9154 89.8273 10.2773C90.7258 9.6263 92.0865 9.30078 93.9094 9.30078H94.8273C94.9445 9.30078 95.0031 9.24219 95.0031 9.125V8.89062C95.0031 8.1875 94.8339 7.69922 94.4953 7.42578C94.1698 7.13932 93.5708 6.99609 92.6984 6.99609C91.9302 6.99609 91.0122 7.15885 89.9445 7.48438C89.7492 7.54948 89.5604 7.51693 89.3781 7.38672C89.1958 7.25651 89.1047 7.08724 89.1047 6.87891C89.1047 6.61849 89.1828 6.38411 89.3391 6.17578C89.4953 5.95443 89.7036 5.81771 89.9641 5.76562C90.9276 5.53125 91.8391 5.40755 92.6984 5.39453C94.3781 5.39453 95.5305 5.69401 96.1555 6.29297C96.7805 6.89193 97.093 7.99219 97.093 9.59375V15.0234C97.093 15.2839 96.9953 15.5117 96.8 15.707C96.6177 15.9023 96.3898 16 96.1164 16C95.856 16 95.6281 15.9023 95.4328 15.707C95.2375 15.5117 95.1333 15.2839 95.1203 15.0234L95.1008 14.5156C95.1008 14.5026 95.0943 14.4961 95.0813 14.4961C95.0552 14.4961 95.0422 14.5026 95.0422 14.5156C94.274 15.6354 93.1281 16.1953 91.6047 16.1953ZM113.612 11.6055C112.258 11.2669 111.301 10.8438 110.741 10.3359C110.181 9.8151 109.901 9.17057 109.901 8.40234C109.901 7.46484 110.239 6.72917 110.916 6.19531C111.593 5.66146 112.59 5.39453 113.905 5.39453C114.764 5.39453 115.623 5.49219 116.483 5.6875C116.717 5.73958 116.912 5.86979 117.069 6.07812C117.225 6.27344 117.303 6.5013 117.303 6.76172C117.303 6.97005 117.218 7.13932 117.049 7.26953C116.88 7.38672 116.691 7.41276 116.483 7.34766C115.636 7.1263 114.842 7.00911 114.1 6.99609C112.694 6.99609 111.997 7.39974 112.01 8.20703C112.01 8.61068 112.14 8.9362 112.401 9.18359C112.674 9.43099 113.143 9.63932 113.807 9.80859C115.343 10.1732 116.379 10.6029 116.912 11.0977C117.446 11.5924 117.713 12.3281 117.713 13.3047C117.713 14.2161 117.362 14.9258 116.659 15.4336C115.955 15.9414 114.94 16.1953 113.612 16.1953C112.739 16.1953 111.873 16.0846 111.014 15.8633C110.78 15.7982 110.584 15.6615 110.428 15.4531C110.285 15.2448 110.213 15.0169 110.213 14.7695C110.213 14.5742 110.291 14.418 110.448 14.3008C110.617 14.1706 110.799 14.138 110.995 14.2031C111.815 14.4635 112.622 14.5938 113.416 14.5938C114.888 14.5938 115.617 14.1641 115.604 13.3047C115.604 12.888 115.454 12.5495 115.155 12.2891C114.868 12.0286 114.354 11.8008 113.612 11.6055ZM126.695 6.95703C125.172 6.95703 124.312 7.85547 124.117 9.65234C124.091 9.76953 124.15 9.83464 124.293 9.84766H128.766C128.87 9.84766 128.922 9.78255 128.922 9.65234C128.857 7.85547 128.115 6.95703 126.695 6.95703ZM127.184 16.1953C125.517 16.1953 124.234 15.7461 123.336 14.8477C122.438 13.9362 121.988 12.5885 121.988 10.8047C121.988 9.02083 122.392 7.67318 123.199 6.76172C124.007 5.85026 125.172 5.39453 126.695 5.39453C129.469 5.39453 130.901 7.02214 130.992 10.2773C131.005 10.6029 130.888 10.8698 130.641 11.0781C130.406 11.2865 130.126 11.3906 129.801 11.3906H124.273C124.169 11.3906 124.111 11.4492 124.098 11.5664C124.254 13.6237 125.348 14.6458 127.379 14.6328C128.082 14.6328 128.779 14.5221 129.469 14.3008C129.664 14.2357 129.846 14.2617 130.016 14.3789C130.198 14.4961 130.289 14.6654 130.289 14.8867C130.289 15.1341 130.204 15.362 130.035 15.5703C129.879 15.7656 129.677 15.8958 129.43 15.9609C128.688 16.1172 127.939 16.1953 127.184 16.1953ZM137.455 15.707C137.259 15.9023 137.012 16 136.712 16C136.413 16 136.159 15.9023 135.951 15.707C135.755 15.4987 135.658 15.2513 135.658 14.9648V6.58594C135.658 6.32552 135.749 6.09766 135.931 5.90234C136.127 5.70703 136.354 5.60938 136.615 5.60938C136.888 5.60938 137.123 5.70703 137.318 5.90234C137.513 6.08464 137.617 6.3125 137.63 6.58594L137.65 6.87891C137.65 6.89193 137.657 6.89844 137.67 6.89844C137.683 6.89844 137.696 6.89193 137.709 6.87891C138.659 5.88932 139.74 5.39453 140.951 5.39453C142.162 5.39453 143.047 5.73958 143.607 6.42969C144.167 7.11979 144.447 8.24609 144.447 9.80859V14.9844C144.447 15.2708 144.349 15.5117 144.154 15.707C143.959 15.9023 143.718 16 143.431 16C143.158 16 142.917 15.9023 142.709 15.707C142.5 15.4987 142.396 15.2578 142.396 14.9844V10.1016C142.396 8.90365 142.246 8.08984 141.947 7.66016C141.66 7.21745 141.127 6.99609 140.345 6.99609C139.72 6.99609 139.128 7.27604 138.568 7.83594C138.021 8.38281 137.748 8.96875 137.748 9.59375V14.9648C137.748 15.2643 137.65 15.5117 137.455 15.707ZM153.722 6.99609C151.99 6.99609 151.124 8.26562 151.124 10.8047C151.124 12.0807 151.352 13.0312 151.808 13.6562C152.264 14.2812 152.902 14.5938 153.722 14.5938C154.425 14.5938 155.03 14.3659 155.538 13.9102C156.059 13.4414 156.32 12.9076 156.32 12.3086V9.30078C156.32 8.70182 156.059 8.16797 155.538 7.69922C155.03 7.23047 154.425 6.99609 153.722 6.99609ZM153.214 16.1953C152.003 16.1953 151.001 15.7135 150.206 14.75C149.412 13.7734 149.015 12.4583 149.015 10.8047C149.015 9.09896 149.399 7.77083 150.167 6.82031C150.935 5.86979 151.951 5.39453 153.214 5.39453C154.399 5.39453 155.415 5.82422 156.261 6.68359C156.274 6.69661 156.287 6.70312 156.3 6.70312C156.313 6.70312 156.32 6.69661 156.32 6.68359V2.03516C156.32 1.73568 156.424 1.48828 156.632 1.29297C156.84 1.09766 157.088 1 157.374 1C157.674 1 157.921 1.10417 158.116 1.3125C158.312 1.50781 158.409 1.7487 158.409 2.03516V15.0234C158.409 15.2839 158.312 15.5117 158.116 15.707C157.934 15.9023 157.706 16 157.433 16C157.172 16 156.945 15.9023 156.749 15.707C156.554 15.5117 156.45 15.2839 156.437 15.0234L156.417 14.7109C156.417 14.6979 156.411 14.6914 156.398 14.6914C156.385 14.6914 156.372 14.6979 156.359 14.7109C155.864 15.2578 155.376 15.6419 154.894 15.8633C154.412 16.0846 153.852 16.1953 153.214 16.1953ZM173.502 15.707C173.307 15.9023 173.06 16 172.76 16C172.461 16 172.213 15.9023 172.018 15.707C171.823 15.4987 171.725 15.2513 171.725 14.9648V6.60547C171.725 6.31901 171.816 6.08464 171.998 5.90234C172.194 5.70703 172.428 5.60938 172.702 5.60938C172.988 5.60938 173.229 5.70703 173.424 5.90234C173.633 6.08464 173.743 6.31901 173.756 6.60547V6.78125C173.756 6.79427 173.763 6.80078 173.776 6.80078C173.802 6.80078 173.815 6.79427 173.815 6.78125C174.596 5.85677 175.462 5.39453 176.413 5.39453C176.998 5.39453 177.474 5.51823 177.838 5.76562C178.203 6 178.515 6.40365 178.776 6.97656C178.776 6.98958 178.789 6.99609 178.815 6.99609C178.828 6.99609 178.841 6.98958 178.854 6.97656C179.635 5.92188 180.573 5.39453 181.666 5.39453C182.76 5.39453 183.541 5.69401 184.01 6.29297C184.479 6.87891 184.713 7.91406 184.713 9.39844V14.9648C184.713 15.2513 184.609 15.4987 184.401 15.707C184.205 15.9023 183.965 16 183.678 16C183.405 16 183.164 15.8958 182.955 15.6875C182.76 15.4792 182.663 15.2383 182.663 14.9648V10.0039C182.663 8.79297 182.545 7.99219 182.311 7.60156C182.09 7.19792 181.673 6.99609 181.061 6.99609C180.67 6.99609 180.273 7.19792 179.87 7.60156C179.466 8.00521 179.264 8.40234 179.264 8.79297V14.9648C179.264 15.2513 179.16 15.4987 178.952 15.707C178.756 15.9023 178.515 16 178.229 16C177.955 16 177.715 15.8958 177.506 15.6875C177.298 15.4792 177.194 15.2383 177.194 14.9648V10.0039C177.194 8.79297 177.077 7.99219 176.842 7.60156C176.621 7.19792 176.204 6.99609 175.592 6.99609C175.202 6.99609 174.804 7.19792 174.401 7.60156C174.01 8.00521 173.815 8.40234 173.815 8.79297V14.9648C173.815 15.2643 173.711 15.5117 173.502 15.707ZM192.016 15.8438L188.734 6.64453C188.643 6.39714 188.676 6.16276 188.832 5.94141C188.988 5.72005 189.203 5.60938 189.477 5.60938C189.815 5.60938 190.115 5.70703 190.375 5.90234C190.635 6.08464 190.811 6.33203 190.902 6.64453L193.148 13.5781C193.148 13.5911 193.155 13.5977 193.168 13.5977C193.181 13.5977 193.188 13.5911 193.188 13.5781L195.688 6.60547C195.805 6.29297 195.987 6.05208 196.234 5.88281C196.495 5.70052 196.788 5.60938 197.113 5.60938C197.361 5.60938 197.556 5.71354 197.699 5.92188C197.842 6.11719 197.868 6.33854 197.777 6.58594L192.68 19.418C192.562 19.7174 192.367 19.9518 192.094 20.1211C191.82 20.3034 191.527 20.3945 191.215 20.3945C190.98 20.3945 190.792 20.2904 190.648 20.082C190.505 19.8737 190.479 19.6523 190.57 19.418L192.016 16.1562C192.042 16.1042 192.055 16.0521 192.055 16C192.055 15.9479 192.042 15.8958 192.016 15.8438ZM214.53 16.1953C212.929 16.1953 211.692 15.7396 210.82 14.8281C209.96 13.9167 209.53 12.5755 209.53 10.8047C209.53 9.0599 209.947 7.72526 210.78 6.80078C211.627 5.86328 212.812 5.39453 214.335 5.39453C215.038 5.39453 215.709 5.4401 216.347 5.53125C216.594 5.57031 216.803 5.69401 216.972 5.90234C217.141 6.09766 217.226 6.33203 217.226 6.60547C217.226 6.82682 217.135 7.00911 216.952 7.15234C216.77 7.28255 216.568 7.32161 216.347 7.26953C215.696 7.1263 215.077 7.04818 214.491 7.03516C213.567 7.03516 212.877 7.33464 212.421 7.93359C211.965 8.53255 211.738 9.48958 211.738 10.8047C211.738 12.1328 211.978 13.0898 212.46 13.6758C212.942 14.2617 213.684 14.5547 214.687 14.5547C215.312 14.5547 215.911 14.4701 216.484 14.3008C216.692 14.2357 216.881 14.2682 217.05 14.3984C217.232 14.5156 217.323 14.6849 217.323 14.9062C217.323 15.1667 217.239 15.4076 217.07 15.6289C216.9 15.8372 216.685 15.9674 216.425 16.0195C215.787 16.1367 215.155 16.1953 214.53 16.1953ZM227.399 10.7656C226.305 10.7656 225.479 10.9479 224.919 11.3125C224.372 11.6771 224.098 12.1719 224.098 12.7969C224.098 13.2917 224.242 13.7018 224.528 14.0273C224.828 14.3398 225.179 14.4961 225.583 14.4961C226.468 14.4961 227.171 14.2227 227.692 13.6758C228.226 13.1159 228.493 12.3542 228.493 11.3906V10.9219C228.493 10.8177 228.434 10.7656 228.317 10.7656H227.399ZM225.095 16.1953C224.183 16.1953 223.434 15.9023 222.848 15.3164C222.276 14.7305 221.989 13.9557 221.989 12.9922C221.989 11.8203 222.432 10.9154 223.317 10.2773C224.216 9.6263 225.576 9.30078 227.399 9.30078H228.317C228.434 9.30078 228.493 9.24219 228.493 9.125V8.89062C228.493 8.1875 228.324 7.69922 227.985 7.42578C227.66 7.13932 227.061 6.99609 226.188 6.99609C225.42 6.99609 224.502 7.15885 223.434 7.48438C223.239 7.54948 223.05 7.51693 222.868 7.38672C222.686 7.25651 222.595 7.08724 222.595 6.87891C222.595 6.61849 222.673 6.38411 222.829 6.17578C222.985 5.95443 223.193 5.81771 223.454 5.76562C224.417 5.53125 225.329 5.40755 226.188 5.39453C227.868 5.39453 229.02 5.69401 229.645 6.29297C230.27 6.89193 230.583 7.99219 230.583 9.59375V15.0234C230.583 15.2839 230.485 15.5117 230.29 15.707C230.108 15.9023 229.88 16 229.606 16C229.346 16 229.118 15.9023 228.923 15.707C228.727 15.5117 228.623 15.2839 228.61 15.0234L228.591 14.5156C228.591 14.5026 228.584 14.4961 228.571 14.4961C228.545 14.4961 228.532 14.5026 228.532 14.5156C227.764 15.6354 226.618 16.1953 225.095 16.1953ZM237.651 15.6875C237.442 15.8958 237.182 16 236.87 16C236.557 16 236.297 15.8958 236.088 15.6875C235.88 15.4661 235.776 15.2057 235.776 14.9062V6.64453C235.776 6.34505 235.873 6.09766 236.069 5.90234C236.264 5.70703 236.511 5.60938 236.811 5.60938C237.11 5.60938 237.358 5.70703 237.553 5.90234C237.761 6.09766 237.866 6.34505 237.866 6.64453V7.58203C237.866 7.59505 237.872 7.60156 237.885 7.60156C237.911 7.60156 237.924 7.59505 237.924 7.58203C238.328 7.03516 238.862 6.58594 239.526 6.23438C240.19 5.88281 240.919 5.68099 241.713 5.62891C241.948 5.61589 242.149 5.6875 242.319 5.84375C242.488 6 242.573 6.20182 242.573 6.44922C242.573 6.68359 242.488 6.88542 242.319 7.05469C242.149 7.22396 241.948 7.3151 241.713 7.32812C240.437 7.38021 239.493 7.71224 238.881 8.32422C238.269 8.92318 237.963 9.8151 237.963 11V14.9062C237.963 15.2188 237.859 15.4792 237.651 15.6875ZM251.164 6.99609C249.432 6.99609 248.566 8.26562 248.566 10.8047C248.566 12.0807 248.794 13.0312 249.25 13.6562C249.706 14.2812 250.344 14.5938 251.164 14.5938C251.867 14.5938 252.473 14.3659 252.98 13.9102C253.501 13.4414 253.762 12.9076 253.762 12.3086V9.30078C253.762 8.70182 253.501 8.16797 252.98 7.69922C252.473 7.23047 251.867 6.99609 251.164 6.99609ZM250.656 16.1953C249.445 16.1953 248.443 15.7135 247.648 14.75C246.854 13.7734 246.457 12.4583 246.457 10.8047C246.457 9.09896 246.841 7.77083 247.609 6.82031C248.378 5.86979 249.393 5.39453 250.656 5.39453C251.841 5.39453 252.857 5.82422 253.703 6.68359C253.716 6.69661 253.729 6.70312 253.742 6.70312C253.755 6.70312 253.762 6.69661 253.762 6.68359V2.03516C253.762 1.73568 253.866 1.48828 254.074 1.29297C254.283 1.09766 254.53 1 254.816 1C255.116 1 255.363 1.10417 255.559 1.3125C255.754 1.50781 255.852 1.7487 255.852 2.03516V15.0234C255.852 15.2839 255.754 15.5117 255.559 15.707C255.376 15.9023 255.148 16 254.875 16C254.615 16 254.387 15.9023 254.191 15.707C253.996 15.5117 253.892 15.2839 253.879 15.0234L253.859 14.7109C253.859 14.6979 253.853 14.6914 253.84 14.6914C253.827 14.6914 253.814 14.6979 253.801 14.7109C253.306 15.2578 252.818 15.6419 252.336 15.8633C251.854 16.0846 251.294 16.1953 250.656 16.1953ZM269.46 7.60156C269.239 7.60156 269.05 7.52344 268.894 7.36719C268.737 7.19792 268.659 7.00911 268.659 6.80078C268.659 6.59245 268.737 6.41016 268.894 6.25391C269.05 6.08464 269.239 6 269.46 6H270.573C270.691 6 270.756 5.94141 270.769 5.82422V3.24609C270.769 2.94661 270.866 2.69922 271.062 2.50391C271.257 2.29557 271.498 2.19141 271.784 2.19141C272.084 2.19141 272.338 2.29557 272.546 2.50391C272.754 2.69922 272.859 2.94661 272.859 3.24609V5.82422C272.859 5.94141 272.917 6 273.034 6H275.671C275.892 6 276.075 6.08464 276.218 6.25391C276.374 6.41016 276.452 6.59245 276.452 6.80078C276.452 7.00911 276.374 7.19792 276.218 7.36719C276.075 7.52344 275.892 7.60156 275.671 7.60156H273.034C272.917 7.60156 272.859 7.66016 272.859 7.77734V12.4062C272.859 13.3177 272.963 13.9102 273.171 14.1836C273.392 14.457 273.822 14.5938 274.46 14.5938C274.773 14.5938 275.066 14.5742 275.339 14.5352C275.547 14.5091 275.736 14.5612 275.905 14.6914C276.075 14.8086 276.159 14.9648 276.159 15.1602C276.159 15.3945 276.081 15.6094 275.925 15.8047C275.769 15.987 275.567 16.0911 275.32 16.1172C274.76 16.1693 274.343 16.1953 274.07 16.1953C272.846 16.1953 271.986 15.9349 271.491 15.4141C271.01 14.8932 270.769 13.9557 270.769 12.6016V7.77734C270.769 7.66016 270.704 7.60156 270.573 7.60156H269.46ZM288.501 10.8047C288.501 8.26562 287.576 6.99609 285.727 6.99609C283.891 6.99609 282.973 8.26562 282.973 10.8047C282.973 13.3307 283.891 14.5938 285.727 14.5938C287.576 14.5938 288.501 13.3307 288.501 10.8047ZM289.341 14.7891C288.481 15.7266 287.283 16.1953 285.747 16.1953C284.21 16.1953 283.006 15.7266 282.134 14.7891C281.274 13.8516 280.845 12.5234 280.845 10.8047C280.845 9.08594 281.274 7.75781 282.134 6.82031C283.006 5.86979 284.21 5.39453 285.747 5.39453C287.283 5.39453 288.481 5.86979 289.341 6.82031C290.213 7.75781 290.649 9.08594 290.649 10.8047C290.649 12.5234 290.213 13.8516 289.341 14.7891ZM305.664 15.8438L302.383 6.64453C302.292 6.39714 302.324 6.16276 302.48 5.94141C302.637 5.72005 302.852 5.60938 303.125 5.60938C303.464 5.60938 303.763 5.70703 304.023 5.90234C304.284 6.08464 304.46 6.33203 304.551 6.64453L306.797 13.5781C306.797 13.5911 306.803 13.5977 306.816 13.5977C306.829 13.5977 306.836 13.5911 306.836 13.5781L309.336 6.60547C309.453 6.29297 309.635 6.05208 309.883 5.88281C310.143 5.70052 310.436 5.60938 310.762 5.60938C311.009 5.60938 311.204 5.71354 311.348 5.92188C311.491 6.11719 311.517 6.33854 311.426 6.58594L306.328 19.418C306.211 19.7174 306.016 19.9518 305.742 20.1211C305.469 20.3034 305.176 20.3945 304.863 20.3945C304.629 20.3945 304.44 20.2904 304.297 20.082C304.154 19.8737 304.128 19.6523 304.219 19.418L305.664 16.1562C305.69 16.1042 305.703 16.0521 305.703 16C305.703 15.9479 305.69 15.8958 305.664 15.8438ZM322.4 10.8047C322.4 8.26562 321.476 6.99609 319.627 6.99609C317.791 6.99609 316.873 8.26562 316.873 10.8047C316.873 13.3307 317.791 14.5938 319.627 14.5938C321.476 14.5938 322.4 13.3307 322.4 10.8047ZM323.24 14.7891C322.38 15.7266 321.183 16.1953 319.646 16.1953C318.11 16.1953 316.905 15.7266 316.033 14.7891C315.173 13.8516 314.744 12.5234 314.744 10.8047C314.744 9.08594 315.173 7.75781 316.033 6.82031C316.905 5.86979 318.11 5.39453 319.646 5.39453C321.183 5.39453 322.38 5.86979 323.24 6.82031C324.112 7.75781 324.548 9.08594 324.548 10.8047C324.548 12.5234 324.112 13.8516 323.24 14.7891ZM332.417 16.1953C331.245 16.1953 330.386 15.8763 329.839 15.2383C329.292 14.5872 329.019 13.5065 329.019 11.9961V6.625C329.019 6.33854 329.116 6.09766 329.312 5.90234C329.507 5.70703 329.741 5.60938 330.015 5.60938C330.301 5.60938 330.549 5.70703 330.757 5.90234C330.965 6.09766 331.07 6.33854 331.07 6.625V11.7031C331.07 12.8099 331.213 13.5716 331.499 13.9883C331.799 14.3919 332.3 14.5938 333.003 14.5938C333.628 14.5938 334.221 14.3203 334.78 13.7734C335.34 13.2135 335.62 12.6211 335.62 11.9961V6.64453C335.62 6.34505 335.718 6.09766 335.913 5.90234C336.122 5.70703 336.369 5.60938 336.655 5.60938C336.955 5.60938 337.202 5.70703 337.398 5.90234C337.606 6.09766 337.71 6.34505 337.71 6.64453V15.0234C337.71 15.2839 337.612 15.5117 337.417 15.707C337.222 15.9023 336.987 16 336.714 16C336.454 16 336.226 15.9023 336.03 15.707C335.835 15.5117 335.731 15.2839 335.718 15.0234V14.7109C335.718 14.6979 335.711 14.6914 335.698 14.6914C335.685 14.6914 335.672 14.6979 335.659 14.7109C334.709 15.7005 333.628 16.1953 332.417 16.1953ZM343.43 18.207C343.196 18.207 342.994 18.1029 342.825 17.8945C342.669 17.6992 342.623 17.4779 342.688 17.2305L343.528 14.1055C343.619 13.7799 343.802 13.513 344.075 13.3047C344.361 13.0964 344.661 12.9922 344.973 12.9922H345.501C345.787 12.9922 346.002 13.1029 346.145 13.3242C346.289 13.5456 346.308 13.7865 346.204 14.0469L344.817 17.2891C344.7 17.5755 344.518 17.7969 344.27 17.9531C344.023 18.1224 343.743 18.207 343.43 18.207ZM365.359 16.1953C363.328 16.1953 361.701 15.5443 360.477 14.2422C359.266 12.9401 358.66 11.0911 358.66 8.69531C358.66 6.33854 359.246 4.5026 360.418 3.1875C361.603 1.85938 363.25 1.19531 365.359 1.19531C366.271 1.19531 367.098 1.26042 367.84 1.39062C368.1 1.44271 368.315 1.57943 368.484 1.80078C368.667 2.02214 368.758 2.27604 368.758 2.5625C368.758 2.79688 368.66 2.98568 368.465 3.12891C368.27 3.27214 368.061 3.3112 367.84 3.24609C367.215 3.08984 366.453 3.00521 365.555 2.99219C364.109 2.99219 362.97 3.49349 362.137 4.49609C361.316 5.48568 360.906 6.89193 360.906 8.71484C360.906 10.5247 361.329 11.9245 362.176 12.9141C363.035 13.9036 364.161 14.3984 365.555 14.3984C366.44 14.3984 367.234 14.3138 367.938 14.1445C368.159 14.0794 368.367 14.1185 368.562 14.2617C368.758 14.4049 368.855 14.6003 368.855 14.8477C368.855 15.1341 368.771 15.388 368.602 15.6094C368.432 15.8177 368.204 15.9479 367.918 16C367.137 16.1302 366.284 16.1953 365.359 16.1953ZM378.931 10.7656C377.837 10.7656 377.011 10.9479 376.451 11.3125C375.904 11.6771 375.63 12.1719 375.63 12.7969C375.63 13.2917 375.774 13.7018 376.06 14.0273C376.36 14.3398 376.711 14.4961 377.115 14.4961C378 14.4961 378.703 14.2227 379.224 13.6758C379.758 13.1159 380.025 12.3542 380.025 11.3906V10.9219C380.025 10.8177 379.966 10.7656 379.849 10.7656H378.931ZM376.627 16.1953C375.715 16.1953 374.966 15.9023 374.38 15.3164C373.808 14.7305 373.521 13.9557 373.521 12.9922C373.521 11.8203 373.964 10.9154 374.849 10.2773C375.748 9.6263 377.108 9.30078 378.931 9.30078H379.849C379.966 9.30078 380.025 9.24219 380.025 9.125V8.89062C380.025 8.1875 379.856 7.69922 379.517 7.42578C379.192 7.13932 378.593 6.99609 377.72 6.99609C376.952 6.99609 376.034 7.15885 374.966 7.48438C374.771 7.54948 374.582 7.51693 374.4 7.38672C374.218 7.25651 374.127 7.08724 374.127 6.87891C374.127 6.61849 374.205 6.38411 374.361 6.17578C374.517 5.95443 374.726 5.81771 374.986 5.76562C375.949 5.53125 376.861 5.40755 377.72 5.39453C379.4 5.39453 380.552 5.69401 381.177 6.29297C381.802 6.89193 382.115 7.99219 382.115 9.59375V15.0234C382.115 15.2839 382.017 15.5117 381.822 15.707C381.64 15.9023 381.412 16 381.138 16C380.878 16 380.65 15.9023 380.455 15.707C380.259 15.5117 380.155 15.2839 380.142 15.0234L380.123 14.5156C380.123 14.5026 380.116 14.4961 380.103 14.4961C380.077 14.4961 380.064 14.5026 380.064 14.5156C379.296 15.6354 378.15 16.1953 376.627 16.1953ZM389.183 15.6875C388.974 15.8958 388.714 16 388.402 16C388.089 16 387.829 15.8958 387.62 15.6875C387.412 15.4661 387.308 15.2057 387.308 14.9062V6.64453C387.308 6.34505 387.405 6.09766 387.601 5.90234C387.796 5.70703 388.043 5.60938 388.343 5.60938C388.642 5.60938 388.89 5.70703 389.085 5.90234C389.293 6.09766 389.398 6.34505 389.398 6.64453V7.58203C389.398 7.59505 389.404 7.60156 389.417 7.60156C389.443 7.60156 389.456 7.59505 389.456 7.58203C389.86 7.03516 390.394 6.58594 391.058 6.23438C391.722 5.88281 392.451 5.68099 393.245 5.62891C393.48 5.61589 393.681 5.6875 393.851 5.84375C394.02 6 394.105 6.20182 394.105 6.44922C394.105 6.68359 394.02 6.88542 393.851 7.05469C393.681 7.22396 393.48 7.3151 393.245 7.32812C391.969 7.38021 391.025 7.71224 390.413 8.32422C389.801 8.92318 389.495 9.8151 389.495 11V14.9062C389.495 15.2188 389.391 15.4792 389.183 15.6875ZM402.696 6.99609C400.964 6.99609 400.098 8.26562 400.098 10.8047C400.098 12.0807 400.326 13.0312 400.782 13.6562C401.238 14.2812 401.876 14.5938 402.696 14.5938C403.399 14.5938 404.005 14.3659 404.513 13.9102C405.033 13.4414 405.294 12.9076 405.294 12.3086V9.30078C405.294 8.70182 405.033 8.16797 404.513 7.69922C404.005 7.23047 403.399 6.99609 402.696 6.99609ZM402.188 16.1953C400.977 16.1953 399.975 15.7135 399.18 14.75C398.386 13.7734 397.989 12.4583 397.989 10.8047C397.989 9.09896 398.373 7.77083 399.141 6.82031C399.91 5.86979 400.925 5.39453 402.188 5.39453C403.373 5.39453 404.389 5.82422 405.235 6.68359C405.248 6.69661 405.261 6.70312 405.274 6.70312C405.287 6.70312 405.294 6.69661 405.294 6.68359V2.03516C405.294 1.73568 405.398 1.48828 405.606 1.29297C405.815 1.09766 406.062 1 406.348 1C406.648 1 406.895 1.10417 407.091 1.3125C407.286 1.50781 407.384 1.7487 407.384 2.03516V15.0234C407.384 15.2839 407.286 15.5117 407.091 15.707C406.908 15.9023 406.68 16 406.407 16C406.147 16 405.919 15.9023 405.723 15.707C405.528 15.5117 405.424 15.2839 405.411 15.0234L405.391 14.7109C405.391 14.6979 405.385 14.6914 405.372 14.6914C405.359 14.6914 405.346 14.6979 405.333 14.7109C404.838 15.2578 404.35 15.6419 403.868 15.8633C403.386 16.0846 402.826 16.1953 402.188 16.1953ZM423.102 3.28516V8.53906C423.102 8.64323 423.16 8.70833 423.277 8.73438C423.954 8.82552 424.56 8.87109 425.094 8.87109C426.266 8.87109 427.164 8.61719 427.789 8.10938C428.414 7.60156 428.727 6.86589 428.727 5.90234C428.727 4.9388 428.421 4.20964 427.809 3.71484C427.197 3.20703 426.292 2.95312 425.094 2.95312C424.456 2.95312 423.85 2.99219 423.277 3.07031C423.16 3.10938 423.102 3.18099 423.102 3.28516ZM422.77 15.6875C422.561 15.8958 422.301 16 421.988 16C421.689 16 421.428 15.8958 421.207 15.6875C420.999 15.4661 420.895 15.2057 420.895 14.9062V2.64062C420.895 2.3151 420.999 2.02865 421.207 1.78125C421.428 1.52083 421.695 1.3776 422.008 1.35156C423.141 1.2474 424.234 1.19531 425.289 1.19531C427.125 1.19531 428.518 1.58594 429.469 2.36719C430.419 3.14844 430.895 4.26172 430.895 5.70703C430.895 8.97526 429.026 10.6094 425.289 10.6094C424.508 10.6094 423.831 10.5768 423.258 10.5117C423.154 10.5117 423.102 10.5703 423.102 10.6875V14.9062C423.102 15.2188 422.991 15.4792 422.77 15.6875ZM441.927 10.8047C441.927 8.26562 441.003 6.99609 439.154 6.99609C437.318 6.99609 436.4 8.26562 436.4 10.8047C436.4 13.3307 437.318 14.5938 439.154 14.5938C441.003 14.5938 441.927 13.3307 441.927 10.8047ZM442.767 14.7891C441.908 15.7266 440.71 16.1953 439.173 16.1953C437.637 16.1953 436.433 15.7266 435.56 14.7891C434.701 13.8516 434.271 12.5234 434.271 10.8047C434.271 9.08594 434.701 7.75781 435.56 6.82031C436.433 5.86979 437.637 5.39453 439.173 5.39453C440.71 5.39453 441.908 5.86979 442.767 6.82031C443.64 7.75781 444.076 9.08594 444.076 10.8047C444.076 12.5234 443.64 13.8516 442.767 14.7891ZM455.792 10.8047C455.792 8.26562 454.868 6.99609 453.019 6.99609C451.183 6.99609 450.265 8.26562 450.265 10.8047C450.265 13.3307 451.183 14.5938 453.019 14.5938C454.868 14.5938 455.792 13.3307 455.792 10.8047ZM456.632 14.7891C455.773 15.7266 454.575 16.1953 453.038 16.1953C451.502 16.1953 450.297 15.7266 449.425 14.7891C448.566 13.8516 448.136 12.5234 448.136 10.8047C448.136 9.08594 448.566 7.75781 449.425 6.82031C450.297 5.86979 451.502 5.39453 453.038 5.39453C454.575 5.39453 455.773 5.86979 456.632 6.82031C457.504 7.75781 457.941 9.08594 457.941 10.8047C457.941 12.5234 457.504 13.8516 456.632 14.7891ZM465.067 15.6875C464.846 15.8958 464.585 16 464.286 16C463.999 16 463.746 15.8958 463.524 15.6875C463.316 15.4661 463.212 15.2057 463.212 14.9062V2.09375C463.212 1.78125 463.316 1.52083 463.524 1.3125C463.746 1.10417 463.999 1 464.286 1C464.585 1 464.846 1.11068 465.067 1.33203C465.289 1.54036 465.399 1.79427 465.399 2.09375V14.9062C465.399 15.2188 465.289 15.4792 465.067 15.6875ZM480.004 2.09375C480.004 1.78125 480.108 1.52083 480.316 1.3125C480.538 1.10417 480.792 1 481.078 1C481.378 1 481.638 1.11068 481.859 1.33203C482.081 1.54036 482.191 1.80078 482.191 2.11328C482.191 2.41276 482.081 2.67318 481.859 2.89453C481.638 3.10286 481.378 3.20703 481.078 3.20703C480.792 3.20703 480.538 3.10286 480.316 2.89453C480.108 2.67318 480.004 2.40625 480.004 2.09375ZM481.859 15.6875C481.638 15.8958 481.378 16 481.078 16C480.792 16 480.538 15.8958 480.316 15.6875C480.108 15.4661 480.004 15.2057 480.004 14.9062V6.70312C480.004 6.39062 480.108 6.13021 480.316 5.92188C480.538 5.71354 480.792 5.60938 481.078 5.60938C481.378 5.60938 481.638 5.71354 481.859 5.92188C482.081 6.13021 482.191 6.39062 482.191 6.70312V14.9062C482.191 15.2188 482.081 15.4792 481.859 15.6875ZM491.564 11.6055C490.21 11.2669 489.253 10.8438 488.693 10.3359C488.133 9.8151 487.853 9.17057 487.853 8.40234C487.853 7.46484 488.192 6.72917 488.869 6.19531C489.546 5.66146 490.542 5.39453 491.857 5.39453C492.716 5.39453 493.576 5.49219 494.435 5.6875C494.67 5.73958 494.865 5.86979 495.021 6.07812C495.177 6.27344 495.255 6.5013 495.255 6.76172C495.255 6.97005 495.171 7.13932 495.002 7.26953C494.832 7.38672 494.643 7.41276 494.435 7.34766C493.589 7.1263 492.795 7.00911 492.052 6.99609C490.646 6.99609 489.949 7.39974 489.962 8.20703C489.962 8.61068 490.093 8.9362 490.353 9.18359C490.627 9.43099 491.095 9.63932 491.759 9.80859C493.296 10.1732 494.331 10.6029 494.865 11.0977C495.399 11.5924 495.666 12.3281 495.666 13.3047C495.666 14.2161 495.314 14.9258 494.611 15.4336C493.908 15.9414 492.892 16.1953 491.564 16.1953C490.692 16.1953 489.826 16.0846 488.966 15.8633C488.732 15.7982 488.537 15.6615 488.38 15.4531C488.237 15.2448 488.166 15.0169 488.166 14.7695C488.166 14.5742 488.244 14.418 488.4 14.3008C488.569 14.1706 488.752 14.138 488.947 14.2031C489.767 14.4635 490.574 14.5938 491.369 14.5938C492.84 14.5938 493.569 14.1641 493.556 13.3047C493.556 12.888 493.407 12.5495 493.107 12.2891C492.821 12.0286 492.306 11.8008 491.564 11.6055ZM513.473 10.7656C512.38 10.7656 511.553 10.9479 510.993 11.3125C510.446 11.6771 510.173 12.1719 510.173 12.7969C510.173 13.2917 510.316 13.7018 510.602 14.0273C510.902 14.3398 511.253 14.4961 511.657 14.4961C512.542 14.4961 513.246 14.2227 513.766 13.6758C514.3 13.1159 514.567 12.3542 514.567 11.3906V10.9219C514.567 10.8177 514.509 10.7656 514.391 10.7656H513.473ZM511.169 16.1953C510.257 16.1953 509.509 15.9023 508.923 15.3164C508.35 14.7305 508.063 13.9557 508.063 12.9922C508.063 11.8203 508.506 10.9154 509.391 10.2773C510.29 9.6263 511.651 9.30078 513.473 9.30078H514.391C514.509 9.30078 514.567 9.24219 514.567 9.125V8.89062C514.567 8.1875 514.398 7.69922 514.059 7.42578C513.734 7.13932 513.135 6.99609 512.263 6.99609C511.494 6.99609 510.576 7.15885 509.509 7.48438C509.313 7.54948 509.124 7.51693 508.942 7.38672C508.76 7.25651 508.669 7.08724 508.669 6.87891C508.669 6.61849 508.747 6.38411 508.903 6.17578C509.059 5.95443 509.268 5.81771 509.528 5.76562C510.492 5.53125 511.403 5.40755 512.263 5.39453C513.942 5.39453 515.095 5.69401 515.72 6.29297C516.345 6.89193 516.657 7.99219 516.657 9.59375V15.0234C516.657 15.2839 516.559 15.5117 516.364 15.707C516.182 15.9023 515.954 16 515.68 16C515.42 16 515.192 15.9023 514.997 15.707C514.802 15.5117 514.697 15.2839 514.684 15.0234L514.665 14.5156C514.665 14.5026 514.658 14.4961 514.645 14.4961C514.619 14.4961 514.606 14.5026 514.606 14.5156C513.838 15.6354 512.692 16.1953 511.169 16.1953ZM524.409 15.6875C524.187 15.8958 523.927 16 523.627 16C523.341 16 523.087 15.8958 522.866 15.6875C522.657 15.4661 522.553 15.2057 522.553 14.9062V2.09375C522.553 1.78125 522.657 1.52083 522.866 1.3125C523.087 1.10417 523.341 1 523.627 1C523.927 1 524.187 1.11068 524.409 1.33203C524.63 1.54036 524.741 1.79427 524.741 2.09375V14.9062C524.741 15.2188 524.63 15.4792 524.409 15.6875ZM532.883 15.6875C532.661 15.8958 532.401 16 532.102 16C531.815 16 531.561 15.8958 531.34 15.6875C531.132 15.4661 531.027 15.2057 531.027 14.9062V2.09375C531.027 1.78125 531.132 1.52083 531.34 1.3125C531.561 1.10417 531.815 1 532.102 1C532.401 1 532.661 1.11068 532.883 1.33203C533.104 1.54036 533.215 1.79427 533.215 2.09375V14.9062C533.215 15.2188 533.104 15.4792 532.883 15.6875ZM547.82 2.09375C547.82 1.78125 547.924 1.52083 548.132 1.3125C548.353 1.10417 548.607 1 548.894 1C549.193 1 549.454 1.11068 549.675 1.33203C549.896 1.54036 550.007 1.80078 550.007 2.11328C550.007 2.41276 549.896 2.67318 549.675 2.89453C549.454 3.10286 549.193 3.20703 548.894 3.20703C548.607 3.20703 548.353 3.10286 548.132 2.89453C547.924 2.67318 547.82 2.40625 547.82 2.09375ZM549.675 15.6875C549.454 15.8958 549.193 16 548.894 16C548.607 16 548.353 15.8958 548.132 15.6875C547.924 15.4661 547.82 15.2057 547.82 14.9062V6.70312C547.82 6.39062 547.924 6.13021 548.132 5.92188C548.353 5.71354 548.607 5.60938 548.894 5.60938C549.193 5.60938 549.454 5.71354 549.675 5.92188C549.896 6.13021 550.007 6.39062 550.007 6.70312V14.9062C550.007 15.2188 549.896 15.4792 549.675 15.6875ZM556.274 7.60156C556.053 7.60156 555.864 7.52344 555.708 7.36719C555.552 7.19792 555.473 7.00911 555.473 6.80078C555.473 6.59245 555.552 6.41016 555.708 6.25391C555.864 6.08464 556.053 6 556.274 6H557.388C557.505 6 557.57 5.94141 557.583 5.82422V3.24609C557.583 2.94661 557.68 2.69922 557.876 2.50391C558.071 2.29557 558.312 2.19141 558.598 2.19141C558.898 2.19141 559.152 2.29557 559.36 2.50391C559.569 2.69922 559.673 2.94661 559.673 3.24609V5.82422C559.673 5.94141 559.731 6 559.848 6H562.485C562.707 6 562.889 6.08464 563.032 6.25391C563.188 6.41016 563.266 6.59245 563.266 6.80078C563.266 7.00911 563.188 7.19792 563.032 7.36719C562.889 7.52344 562.707 7.60156 562.485 7.60156H559.848C559.731 7.60156 559.673 7.66016 559.673 7.77734V12.4062C559.673 13.3177 559.777 13.9102 559.985 14.1836C560.207 14.457 560.636 14.5938 561.274 14.5938C561.587 14.5938 561.88 14.5742 562.153 14.5352C562.361 14.5091 562.55 14.5612 562.72 14.6914C562.889 14.8086 562.973 14.9648 562.973 15.1602C562.973 15.3945 562.895 15.6094 562.739 15.8047C562.583 15.987 562.381 16.0911 562.134 16.1172C561.574 16.1693 561.157 16.1953 560.884 16.1953C559.66 16.1953 558.8 15.9349 558.305 15.4141C557.824 14.8932 557.583 13.9557 557.583 12.6016V7.77734C557.583 7.66016 557.518 7.60156 557.388 7.60156H556.274ZM576.777 7.60156C576.556 7.60156 576.367 7.52344 576.211 7.36719C576.055 7.19792 575.977 7.00911 575.977 6.80078C575.977 6.59245 576.055 6.41016 576.211 6.25391C576.367 6.08464 576.556 6 576.777 6H577.891C578.008 6 578.073 5.94141 578.086 5.82422V3.24609C578.086 2.94661 578.184 2.69922 578.379 2.50391C578.574 2.29557 578.815 2.19141 579.102 2.19141C579.401 2.19141 579.655 2.29557 579.863 2.50391C580.072 2.69922 580.176 2.94661 580.176 3.24609V5.82422C580.176 5.94141 580.234 6 580.352 6H582.988C583.21 6 583.392 6.08464 583.535 6.25391C583.691 6.41016 583.77 6.59245 583.77 6.80078C583.77 7.00911 583.691 7.19792 583.535 7.36719C583.392 7.52344 583.21 7.60156 582.988 7.60156H580.352C580.234 7.60156 580.176 7.66016 580.176 7.77734V12.4062C580.176 13.3177 580.28 13.9102 580.488 14.1836C580.71 14.457 581.139 14.5938 581.777 14.5938C582.09 14.5938 582.383 14.5742 582.656 14.5352C582.865 14.5091 583.053 14.5612 583.223 14.6914C583.392 14.8086 583.477 14.9648 583.477 15.1602C583.477 15.3945 583.398 15.6094 583.242 15.8047C583.086 15.987 582.884 16.0911 582.637 16.1172C582.077 16.1693 581.66 16.1953 581.387 16.1953C580.163 16.1953 579.303 15.9349 578.809 15.4141C578.327 14.8932 578.086 13.9557 578.086 12.6016V7.77734C578.086 7.66016 578.021 7.60156 577.891 7.60156H576.777ZM593.767 10.7656C592.673 10.7656 591.847 10.9479 591.287 11.3125C590.74 11.6771 590.466 12.1719 590.466 12.7969C590.466 13.2917 590.61 13.7018 590.896 14.0273C591.196 14.3398 591.547 14.4961 591.951 14.4961C592.836 14.4961 593.539 14.2227 594.06 13.6758C594.594 13.1159 594.861 12.3542 594.861 11.3906V10.9219C594.861 10.8177 594.802 10.7656 594.685 10.7656H593.767ZM591.463 16.1953C590.551 16.1953 589.802 15.9023 589.216 15.3164C588.644 14.7305 588.357 13.9557 588.357 12.9922C588.357 11.8203 588.8 10.9154 589.685 10.2773C590.584 9.6263 591.944 9.30078 593.767 9.30078H594.685C594.802 9.30078 594.861 9.24219 594.861 9.125V8.89062C594.861 8.1875 594.692 7.69922 594.353 7.42578C594.028 7.13932 593.429 6.99609 592.556 6.99609C591.788 6.99609 590.87 7.15885 589.802 7.48438C589.607 7.54948 589.418 7.51693 589.236 7.38672C589.054 7.25651 588.963 7.08724 588.963 6.87891C588.963 6.61849 589.041 6.38411 589.197 6.17578C589.353 5.95443 589.561 5.81771 589.822 5.76562C590.785 5.53125 591.697 5.40755 592.556 5.39453C594.236 5.39453 595.388 5.69401 596.013 6.29297C596.638 6.89193 596.951 7.99219 596.951 9.59375V15.0234C596.951 15.2839 596.853 15.5117 596.658 15.707C596.476 15.9023 596.248 16 595.974 16C595.714 16 595.486 15.9023 595.291 15.707C595.095 15.5117 594.991 15.2839 594.978 15.0234L594.959 14.5156C594.959 14.5026 594.952 14.4961 594.939 14.4961C594.913 14.4961 594.9 14.5026 594.9 14.5156C594.132 15.6354 592.986 16.1953 591.463 16.1953ZM604.019 15.707C603.823 15.9023 603.576 16 603.277 16C602.99 16 602.743 15.9023 602.534 15.707C602.339 15.4987 602.241 15.2513 602.241 14.9648V2.03516C602.241 1.73568 602.339 1.48828 602.534 1.29297C602.743 1.09766 602.99 1 603.277 1C603.576 1 603.823 1.10417 604.019 1.3125C604.227 1.50781 604.331 1.7487 604.331 2.03516V10.1797C604.331 10.1927 604.338 10.1992 604.351 10.1992L604.39 10.1797L607.964 6.42969C608.485 5.88281 609.123 5.60938 609.878 5.60938H610.093C610.301 5.60938 610.451 5.70703 610.542 5.90234C610.633 6.09766 610.607 6.27344 610.464 6.42969L606.558 10.4727C606.493 10.5378 606.493 10.6224 606.558 10.7266L610.484 15.1602C610.627 15.3164 610.653 15.4987 610.562 15.707C610.484 15.9023 610.327 16 610.093 16H609.878C609.136 16 608.511 15.7135 608.003 15.1406L604.39 11.0195C604.377 11.0065 604.364 11 604.351 11C604.338 11 604.331 11.0065 604.331 11.0195V14.9648C604.331 15.2643 604.227 15.5117 604.019 15.707ZM618.489 6.95703C616.966 6.95703 616.106 7.85547 615.911 9.65234C615.885 9.76953 615.944 9.83464 616.087 9.84766H620.559C620.664 9.84766 620.716 9.78255 620.716 9.65234C620.651 7.85547 619.908 6.95703 618.489 6.95703ZM618.977 16.1953C617.311 16.1953 616.028 15.7461 615.13 14.8477C614.231 13.9362 613.782 12.5885 613.782 10.8047C613.782 9.02083 614.186 7.67318 614.993 6.76172C615.8 5.85026 616.966 5.39453 618.489 5.39453C621.263 5.39453 622.695 7.02214 622.786 10.2773C622.799 10.6029 622.682 10.8698 622.434 11.0781C622.2 11.2865 621.92 11.3906 621.595 11.3906H616.067C615.963 11.3906 615.904 11.4492 615.891 11.5664C616.048 13.6237 617.141 14.6458 619.173 14.6328C619.876 14.6328 620.572 14.5221 621.263 14.3008C621.458 14.2357 621.64 14.2617 621.809 14.3789C621.992 14.4961 622.083 14.6654 622.083 14.8867C622.083 15.1341 621.998 15.362 621.829 15.5703C621.673 15.7656 621.471 15.8958 621.223 15.9609C620.481 16.1172 619.733 16.1953 618.977 16.1953ZM630.85 11.6055C629.496 11.2669 628.539 10.8438 627.979 10.3359C627.419 9.8151 627.139 9.17057 627.139 8.40234C627.139 7.46484 627.478 6.72917 628.155 6.19531C628.832 5.66146 629.828 5.39453 631.143 5.39453C632.002 5.39453 632.862 5.49219 633.721 5.6875C633.955 5.73958 634.151 5.86979 634.307 6.07812C634.463 6.27344 634.541 6.5013 634.541 6.76172C634.541 6.97005 634.457 7.13932 634.287 7.26953C634.118 7.38672 633.929 7.41276 633.721 7.34766C632.875 7.1263 632.08 7.00911 631.338 6.99609C629.932 6.99609 629.235 7.39974 629.248 8.20703C629.248 8.61068 629.379 8.9362 629.639 9.18359C629.912 9.43099 630.381 9.63932 631.045 9.80859C632.582 10.1732 633.617 10.6029 634.151 11.0977C634.685 11.5924 634.952 12.3281 634.952 13.3047C634.952 14.2161 634.6 14.9258 633.897 15.4336C633.194 15.9414 632.178 16.1953 630.85 16.1953C629.978 16.1953 629.112 16.0846 628.252 15.8633C628.018 15.7982 627.823 15.6615 627.666 15.4531C627.523 15.2448 627.452 15.0169 627.452 14.7695C627.452 14.5742 627.53 14.418 627.686 14.3008C627.855 14.1706 628.037 14.138 628.233 14.2031C629.053 14.4635 629.86 14.5938 630.655 14.5938C632.126 14.5938 632.855 14.1641 632.842 13.3047C632.842 12.888 632.692 12.5495 632.393 12.2891C632.106 12.0286 631.592 11.8008 630.85 11.6055ZM641.277 16C640.965 16 640.691 15.8893 640.457 15.668C640.236 15.4336 640.125 15.1667 640.125 14.8672V14.1445C640.125 13.832 640.236 13.5651 640.457 13.3438C640.691 13.1094 640.965 12.9922 641.277 12.9922H641.59C641.902 12.9922 642.169 13.1094 642.391 13.3438C642.612 13.5651 642.723 13.832 642.723 14.1445V14.8672C642.723 15.1797 642.612 15.4466 642.391 15.668C642.169 15.8893 641.902 16 641.59 16H641.277ZM652.877 5.80469C652.655 5.80469 652.473 5.72005 652.33 5.55078C652.2 5.36849 652.16 5.16667 652.213 4.94531L653.072 1.70312C653.163 1.3776 653.345 1.11719 653.619 0.921875C653.892 0.713542 654.192 0.609375 654.517 0.609375H654.83C655.09 0.609375 655.298 0.720052 655.455 0.941406C655.611 1.14974 655.637 1.38411 655.533 1.64453L654.146 4.98438C654.042 5.23177 653.873 5.43359 653.638 5.58984C653.417 5.73307 653.163 5.80469 652.877 5.80469ZM648.873 5.80469C648.651 5.80469 648.469 5.72005 648.326 5.55078C648.196 5.36849 648.163 5.16667 648.228 4.94531L649.088 1.70312C649.179 1.3776 649.361 1.11719 649.634 0.921875C649.908 0.713542 650.201 0.609375 650.513 0.609375H650.845C651.106 0.609375 651.314 0.720052 651.47 0.941406C651.627 1.14974 651.646 1.38411 651.529 1.64453L650.142 4.98438C650.038 5.23177 649.869 5.43359 649.634 5.58984C649.413 5.73307 649.159 5.80469 648.873 5.80469Z" fill="white"/>
</svg>
